<svg xmlns="http://www.w3.org/2000/svg" viewBox="0 0 69.93 20.72"><defs><style>.cls-1{fill:#a7a6a6;}.cls-2{fill:#fff;}</style></defs><title>App store</title><g id="Layer_2" data-name="Layer 2"><g id="artwork"><rect width="69.93" height="20.72" rx="2.59" ry="2.59"/><path class="cls-1" d="M67.34.41a2.18,2.18,0,0,1,2.17,2.18V18.13a2.18,2.18,0,0,1-2.17,2.18H2.59A2.19,2.19,0,0,1,.41,18.13V2.59A2.19,2.19,0,0,1,2.59.41H67.34m0-.41H2.59A2.6,2.6,0,0,0,0,2.59V18.13a2.6,2.6,0,0,0,2.59,2.59H67.34a2.6,2.6,0,0,0,2.59-2.59V2.59A2.6,2.6,0,0,0,67.34,0Z"/><g id="_Group_" data-name="&lt;Group&gt;"><g id="_Group_2" data-name="&lt;Group&gt;"><g id="_Group_3" data-name="&lt;Group&gt;"><path id="_Path_" data-name="&lt;Path&gt;" class="cls-2" d="M16.72,10A2.6,2.6,0,0,1,18,7.82a2.65,2.65,0,0,0-2.1-1.13c-.88-.09-1.73.53-2.18.53s-1.15-.52-1.89-.51A2.8,2.8,0,0,0,9.44,8.14c-1,1.76-.26,4.34.71,5.76.49.7,1.06,1.48,1.8,1.45s1-.47,1.88-.47,1.13.47,1.88.45,1.28-.7,1.75-1.4a5.76,5.76,0,0,0,.79-1.62A2.52,2.52,0,0,1,16.72,10Z"/><path id="_Path_2" data-name="&lt;Path&gt;" class="cls-2" d="M15.29,5.75a2.52,2.52,0,0,0,.58-1.83,2.63,2.63,0,0,0-1.68.87,2.48,2.48,0,0,0-.6,1.77A2.16,2.16,0,0,0,15.29,5.75Z"/></g></g><path class="cls-2" d="M25.92,13.59H23.44l-.6,1.76H21.79l2.35-6.52h1.09l2.36,6.52H26.52Zm-2.23-.82h2l-1-2.85h0Z"/><path class="cls-2" d="M32.67,13c0,1.48-.79,2.43-2,2.43a1.61,1.61,0,0,1-1.49-.83h0v2.35h-1V10.6h.95v.79h0a1.69,1.69,0,0,1,1.52-.84C31.87,10.55,32.67,11.5,32.67,13Zm-1,0c0-1-.49-1.59-1.25-1.59S29.16,12,29.16,13s.5,1.6,1.25,1.6S31.66,13.94,31.66,13Z"/><path class="cls-2" d="M37.89,13c0,1.48-.79,2.43-2,2.43a1.61,1.61,0,0,1-1.49-.83h0v2.35h-1V10.6h.94v.79h0a1.68,1.68,0,0,1,1.51-.84C37.1,10.55,37.89,11.5,37.89,13Zm-1,0c0-1-.49-1.59-1.25-1.59S34.39,12,34.39,13s.5,1.6,1.25,1.6S36.89,13.94,36.89,13Z"/><path class="cls-2" d="M41.35,13.53c.07.65.7,1.07,1.56,1.07s1.41-.42,1.41-1-.36-.81-1.2-1l-.84-.2c-1.2-.29-1.76-.85-1.76-1.76,0-1.12,1-1.9,2.37-1.9a2.09,2.09,0,0,1,2.36,1.9h-1c-.06-.65-.59-1-1.38-1s-1.32.39-1.32,1,.34.73,1.18.94l.72.18c1.34.31,1.89.85,1.89,1.8,0,1.22-1,2-2.51,2s-2.42-.75-2.49-1.93Z"/><path class="cls-2" d="M47.46,9.47V10.6h.9v.77h-.9V14c0,.41.18.6.57.6l.32,0v.77a2.34,2.34,0,0,1-.54.05c-1,0-1.33-.37-1.33-1.29V11.37h-.7V10.6h.7V9.47Z"/><path class="cls-2" d="M48.88,13a2.26,2.26,0,1,1,4.51,0,2.26,2.26,0,1,1-4.51,0Zm3.51,0c0-1-.47-1.63-1.26-1.63S49.88,12,49.88,13s.46,1.63,1.25,1.63S52.39,14,52.39,13Z"/><path class="cls-2" d="M54.19,10.6h.93v.81h0a1.14,1.14,0,0,1,1.15-.86,2.34,2.34,0,0,1,.33,0v.92a1.18,1.18,0,0,0-.44-.06,1,1,0,0,0-1,1.09v2.82h-1Z"/><path class="cls-2" d="M61.12,14a1.9,1.9,0,0,1-2,1.46A2.17,2.17,0,0,1,56.83,13,2.19,2.19,0,0,1,59,10.54a2.09,2.09,0,0,1,2.14,2.34v.34H57.82v.06a1.23,1.23,0,0,0,1.27,1.34,1.07,1.07,0,0,0,1.1-.67Zm-3.3-1.41H60.2A1.15,1.15,0,0,0,59,11.33,1.21,1.21,0,0,0,57.82,12.54Z"/></g><g id="_Group_4" data-name="&lt;Group&gt;"><path class="cls-2" d="M23.57,3.93a1.39,1.39,0,0,1,1.48,1.55,1.4,1.4,0,0,1-1.48,1.58H22.44V3.93Zm-.64,2.69h.59a1,1,0,0,0,1-1.13,1,1,0,0,0-1-1.12h-.59Z"/><path class="cls-2" d="M25.59,5.88a1.12,1.12,0,1,1,2.23,0,1.12,1.12,0,1,1-2.23,0Zm1.75,0c0-.52-.23-.81-.63-.81s-.63.29-.63.81.22.81.63.81S27.34,6.39,27.34,5.88Z"/><path class="cls-2" d="M30.78,7.06H30.3l-.49-1.74h0l-.49,1.74h-.48L28.16,4.7h.47l.43,1.8h0l.49-1.8H30l.49,1.8h0L31,4.7h.46Z"/><path class="cls-2" d="M32,4.7h.45v.37h0a.72.72,0,0,1,.71-.42.77.77,0,0,1,.82.88V7.06h-.47V5.65c0-.38-.16-.57-.51-.57a.54.54,0,0,0-.56.6V7.06H32Z"/><path class="cls-2" d="M34.73,3.77h.47V7.06h-.47Z"/><path class="cls-2" d="M35.85,5.88a1.12,1.12,0,1,1,2.22,0,1.11,1.11,0,1,1-2.22,0Zm1.74,0c0-.52-.23-.81-.63-.81s-.63.29-.63.81.22.81.63.81S37.59,6.39,37.59,5.88Z"/><path class="cls-2" d="M38.56,6.39c0-.42.32-.67.88-.7l.64,0v-.2c0-.25-.16-.4-.48-.4s-.44.1-.49.27h-.45c0-.41.43-.67,1-.67s.93.3.93.8V7.06H40.1V6.73h0a.81.81,0,0,1-.71.37A.72.72,0,0,1,38.56,6.39Zm1.52-.2V6l-.57,0c-.33,0-.48.13-.48.34s.19.34.44.34A.56.56,0,0,0,40.08,6.19Z"/><path class="cls-2" d="M41.16,5.88c0-.75.38-1.22,1-1.22a.79.79,0,0,1,.73.41h0V3.77h.47V7.06h-.45V6.69h0a.82.82,0,0,1-.74.41C41.54,7.1,41.16,6.63,41.16,5.88Zm.48,0c0,.5.24.8.63.8s.64-.31.64-.8-.25-.8-.64-.8S41.64,5.38,41.64,5.88Z"/><path class="cls-2" d="M45.3,5.88a1.12,1.12,0,1,1,2.22,0,1.11,1.11,0,1,1-2.22,0Zm1.74,0c0-.52-.23-.81-.63-.81s-.63.29-.63.81.23.81.63.81S47,6.39,47,5.88Z"/><path class="cls-2" d="M48.15,4.7h.45v.37h0a.72.72,0,0,1,.71-.42.77.77,0,0,1,.82.88V7.06h-.47V5.65q0-.57-.51-.57a.54.54,0,0,0-.56.6V7.06h-.47Z"/><path class="cls-2" d="M52.79,4.11v.6h.51V5.1h-.51V6.32c0,.24.1.35.33.35h.18v.39l-.25,0c-.52,0-.73-.18-.73-.64V5.1H52V4.71h.37v-.6Z"/><path class="cls-2" d="M53.94,3.77h.46V5.08h0a.72.72,0,0,1,.72-.43.78.78,0,0,1,.81.88V7.06h-.46V5.65c0-.38-.18-.57-.51-.57a.55.55,0,0,0-.59.6V7.06h-.47Z"/><path class="cls-2" d="M58.69,6.42a1,1,0,0,1-1,.68,1.07,1.07,0,0,1-1.09-1.21,1.09,1.09,0,0,1,1.09-1.24c.65,0,1,.45,1,1.19V6H57.05V6a.63.63,0,0,0,.63.68.55.55,0,0,0,.56-.29Zm-1.64-.76h1.19a.56.56,0,0,0-.58-.61A.61.61,0,0,0,57.05,5.66Z"/></g></g></g></svg>