<?xml version="1.0" encoding="UTF-8"?>
<svg width="51px" height="75px" viewBox="0 0 51 75" version="1.1" xmlns="http://www.w3.org/2000/svg" xmlns:xlink="http://www.w3.org/1999/xlink">
    <!-- Generator: Sketch 52.4 (67378) - http://www.bohemiancoding.com/sketch -->
    <title>icon lock@3x</title>
    <desc>Created with Sketch.</desc>
    <g id="ICONOGRAPHY" stroke="none" stroke-width="1" fill="none" fill-rule="evenodd">
        <g id="Feature-Icons" transform="translate(-52.000000, -1081.000000)">
            <g id="Group-2-Copy-18" transform="translate(32.000000, 1073.000000)">
                <g id="icon-lock" transform="translate(22.000000, 9.000000)">
                    <path d="M35.9857426,14.6423762 L35.9857426,12.9813861 C35.9857426,6.09149718 30.400384,0.506138614 23.510495,0.506138614 C16.6206061,0.506138614 11.0352475,6.09149718 11.0352475,12.9813861 L11.0352475,30.4467327 L16.3817822,30.4467327 L16.3817822,12.9813861 C16.3817822,9.04430673 19.5734156,5.85267327 23.510495,5.85267327 C27.4475745,5.85267327 30.6392079,9.04430673 30.6392079,12.9813861 L30.6392079,30.4467327 L35.9857426,30.4467327 L35.9857426,20.7089109" id="Shape" fill="#FDDD85" fill-rule="nonzero"></path>
                    <path d="M23.8669307,5.49623762 C19.9298513,5.49623762 16.7382178,8.68787109 16.7382178,12.6249505 L16.7382178,30.090297 L30.9956436,30.090297 L30.9956436,12.6249505 C30.9956436,8.68787109 27.8040101,5.49623762 23.8669307,5.49623762 Z" id="Shape"></path>
                    <path d="M35.9857426,14.6423762 L35.9857426,12.9813861 C35.9857426,6.09149718 30.400384,0.506138614 23.510495,0.506138614 C16.6206061,0.506138614 11.0352475,6.09149718 11.0352475,12.9813861 L11.0352475,30.4467327 L16.3817822,30.4467327 L16.3817822,12.9813861 C16.3817822,9.04430673 19.5734156,5.85267327 23.510495,5.85267327 C27.4475745,5.85267327 30.6392079,9.04430673 30.6392079,12.9813861 L30.6392079,30.4467327 L35.9857426,30.4467327 L35.9857426,20.7089109" id="Shape" stroke="#3C465A" stroke-width="2.83" stroke-linecap="round" stroke-linejoin="round"></path>
                    <rect id="Rectangle-path" stroke="#3C465A" stroke-width="2.83" fill="#F07B52" fill-rule="nonzero" x="0.342178218" y="29.7338614" width="47.049505" height="42.0594059" rx="5.48"></rect>
                    <path d="M35.9857426,71.7647525 C38.1432621,71.7647525 39.8922772,70.0157373 39.8922772,67.8582178 L39.8922772,33.640396 C39.8922772,31.4828765 38.1432621,29.7338614 35.9857426,29.7338614 L43.1144554,29.7338614 C45.271975,29.7338614 47.0209901,31.4828765 47.0209901,33.640396 L47.0209901,67.8582178 C47.0209901,70.0157373 45.271975,71.7647525 43.1144554,71.7647525 L35.9857426,71.7647525 Z" id="Shape" fill="#DD6140" fill-rule="nonzero"></path>
                    <rect id="Rectangle-path" stroke="#3C465A" stroke-width="2.83" x="0.342178218" y="29.7338614" width="47.049505" height="42.0594059" rx="5.48"></rect>
                    <path d="M15.3124752,43.2784158 L31.5017822,59.4677228" id="Shape" stroke="#3C465A" stroke-width="2.83" fill="#FFFFFF" fill-rule="nonzero" stroke-linecap="round" stroke-linejoin="round"></path>
                    <path d="M31.5017822,43.2784158 L15.3124752,59.4677228" id="Shape" stroke="#3C465A" stroke-width="2.83" fill="#FFFFFF" fill-rule="nonzero" stroke-linecap="round" stroke-linejoin="round"></path>
                </g>
            </g>
        </g>
    </g>
</svg>