<?xml version="1.0" encoding="UTF-8"?>
<svg width="54px" height="54px" viewBox="0 0 54 54" version="1.1" xmlns="http://www.w3.org/2000/svg" xmlns:xlink="http://www.w3.org/1999/xlink">
    <!-- Generator: Sketch 52.4 (67378) - http://www.bohemiancoding.com/sketch -->
    <title>icon risk</title>
    <desc>Created with Sketch.</desc>
    <defs>
        <path d="M51.544915,7.22943074 C51.1748436,6.1359034 50.1456671,5.39878497 48.9868305,5.39878497 C48.8814818,5.39878497 38.2223463,5.33938348 28.2169135,0.287557189 C27.4524595,-0.0958523963 26.5475405,-0.0958523963 25.7830865,0.287557189 C15.8262762,5.31508288 5.115817,5.39878497 5.01046822,5.39878497 C3.85433289,5.40148504 2.82515635,6.1359034 2.455085,7.22943074 C-1.23752478,18.1134028 -0.75670215,28.3574589 3.84352789,36.8518713 C8.29248788,45.0627766 16.696079,51.440336 26.3287392,53.9135978 C26.5502417,53.9702993 26.7744456,54 27.0013506,54 C27.2255544,54 27.4524595,53.9702993 27.6712608,53.9135978 C37.303921,51.440336 45.7075121,45.0627766 50.1564721,36.8518713 C54.7567021,28.3574589 55.2375248,18.1134028 51.544915,7.22943074 M27.0018621,52.5053626 C17.6079543,49.8646867 9.48920869,43.6026953 5.17031796,35.6229828 C0.867446848,27.6785219 0.987698258,17.6487955 4.05065044,7.25914561 C8.40798827,6.97713168 17.3324168,6.23264377 27.0018621,1.70119253 C36.6681034,6.23264377 45.5590755,6.97713168 49.9164133,7.25914561 C52.9825694,17.6487955 53.1330733,27.6785219 48.8302022,35.6229828 C44.5113115,43.6026953 36.3925659,49.8646867 27.0018621,52.5053626 Z" id="path-1"></path>
    </defs>
    <g id="Desktop" stroke="none" stroke-width="1" fill="none" fill-rule="evenodd">
        <g id="Desktop---Businesses" transform="translate(-1106.000000, -570.000000)">
            <g id="Group-4" transform="translate(150.000000, 475.000000)">
                <g id="icon-risk" transform="translate(956.000000, 95.000000)">
                    <g id="Mask-2">
                        <path d="M51.544915,7.22943074 C51.1748436,6.1359034 50.1456671,5.39878497 48.9868305,5.39878497 C48.8814818,5.39878497 38.2223463,5.33938348 28.2169135,0.287557189 C27.4524595,-0.0958523963 26.5475405,-0.0958523963 25.7830865,0.287557189 C15.8262762,5.31508288 5.115817,5.39878497 5.01046822,5.39878497 C3.85433289,5.40148504 2.82515635,6.1359034 2.455085,7.22943074 C-1.23752478,18.1134028 -0.75670215,28.3574589 3.84352789,36.8518713 C8.29248788,45.0627766 16.696079,51.440336 26.3287392,53.9135978 C26.5502417,53.9702993 26.7744456,54 27.0013506,54 C27.2255544,54 27.4524595,53.9702993 27.6712608,53.9135978 C37.303921,51.440336 45.7075121,45.0627766 50.1564721,36.8518713 C54.7567021,28.3574589 55.2375248,18.1134028 51.544915,7.22943074" id="Fill-3" fill="#F8F8F8"></path>
                        <mask id="mask-2" fill="white">
                            <use xlink:href="#path-1"></use>
                        </mask>
                        <use id="Mask" fill="#3C465A" xlink:href="#path-1"></use>
                    </g>
                    <path d="M25.3543495,27.9016496 L23.4777812,26.1343905 C22.9103116,25.5999757 21.9930718,25.5999757 21.4256022,26.1343905 C20.8581326,26.6688053 20.8581326,27.5326164 21.4256022,28.0670312 L24.3282599,30.8006106 C24.6112691,31.0671346 24.9828093,31.20108 25.3543495,31.20108 C25.7258897,31.20108 26.0974298,31.0671346 26.380439,30.8006106 L32.1857545,25.3334518 C32.7532241,24.799037 32.7532241,23.9352259 32.1857545,23.4008111 C31.6182849,22.8663963 30.701045,22.8663963 30.1335755,23.4008111 L25.3543495,27.9016496 Z" id="Fill-1" fill="#9FC49F"></path>
                    <path d="M21.0850444,15.2859158 C22.7641834,14.4623675 24.6521607,14 26.6483516,14 C33.6338957,14 39.2967033,19.6628076 39.2967033,26.6483516 C39.2967033,33.6336147 33.6338957,39.2967033 26.6483516,39.2967033 C19.6628076,39.2967033 14,33.6336147 14,26.6483516 C14,23.8097805 14.9348537,21.1898852 16.5136491,19.0792969" id="Stroke-23" stroke="#3C465A" stroke-width="2" stroke-linecap="round" stroke-linejoin="round" transform="translate(26.648352, 26.648352) rotate(-180.000000) translate(-26.648352, -26.648352) "></path>
                </g>
            </g>
        </g>
    </g>
</svg>