<?xml version="1.0" encoding="UTF-8"?>
<svg width="60px" height="60px" viewBox="0 0 60 60" version="1.1" xmlns="http://www.w3.org/2000/svg" xmlns:xlink="http://www.w3.org/1999/xlink">
    <!-- Generator: Sketch 52.4 (67378) - http://www.bohemiancoding.com/sketch -->
    <title>Asset 21</title>
    <desc>Created with Sketch.</desc>
    <g id="Mobile" stroke="none" stroke-width="1" fill="none" fill-rule="evenodd">
        <g id="Mobile---Help" transform="translate(-14.000000, -2563.000000)">
            <g id="Group-2" transform="translate(16.000000, 2565.000000)">
                <g id="Asset-21">
                    <polygon id="Rectangle" transform="translate(27.407403, 28.717329) rotate(-45.000000) translate(-27.407403, -28.717329) " points="25.6001305 17.8518747 29.2146759 17.8518747 29.2146759 39.5827838 25.6001305 39.5827838"></polygon>
                    <path d="M23.2290909,17.5345455 C25.3022679,15.4565419 25.3022679,12.092549 23.2290909,10.0145455 L15.0763636,1.86181818 C12.9975244,-0.216200655 9.62793014,-0.216200655 7.54909091,1.86181818 L5.36727273,4.04363636 L5.29454545,4.11636364 L21.0036364,19.76 L23.2290909,17.5345455 Z" id="Path" fill="#FFFFFF"></path>
                    <path d="M36.3636364,35.1272727 L33.8109091,37.68 L18.4436364,22.3127273 L21.0036364,19.76 L5.33090909,4.08727273 C-1.3970309,10.8976979 -1.36454322,21.8622906 5.40363636,28.6327273 L27.5054545,50.7345455 C34.2754024,57.4998598 45.2376928,57.5291012 52.0436364,50.8 L36.3636364,35.1272727 Z" id="Path" fill="#96C8EF"></path>
                    <path d="M52.1236364,50.7345455 L54.3054545,48.5527273 C55.30472,47.5566033 55.8663664,46.2036824 55.8663664,44.7927273 C55.8663664,43.3817721 55.30472,42.0288512 54.3054545,41.0327273 L46.1163636,32.9018182 C44.0375244,30.8237993 40.6679301,30.8237993 38.5890909,32.9018182 L36.3636364,35.1272727 L52.0436364,50.8 L52.1236364,50.7345455 Z" id="Path" fill="#FFFFFF"></path>
                    <path d="M18.1018182,16.8581818 L21.0036364,19.76" id="Path" stroke="#3C465A" stroke-width="2.83" stroke-linecap="round" stroke-linejoin="round"></path>
                    <path d="M5.33090909,4.08727273 L15.0909091,13.8545455" id="Path" stroke="#3C465A" stroke-width="2.83" stroke-linecap="round" stroke-linejoin="round"></path>
                    <path d="M36.3636364,35.1272727 L52.0436364,50.8" id="Path" stroke="#3C465A" stroke-width="2.83" stroke-linecap="round" stroke-linejoin="round"></path>
                    <path d="M18.8072727,42.0363636 L27.5345455,50.7636364 C34.3433198,57.5359966 45.3439529,57.5359966 52.1527273,50.7636364 L54.3345455,48.5818182 C55.3338109,47.5856942 55.8954573,46.2327733 55.8954573,44.8218182 C55.8954573,43.410863 55.3338109,42.0579421 54.3345455,41.0618182 L46.1163636,32.9018182 C44.0375244,30.8237993 40.6679301,30.8237993 38.5890909,32.9018182 L33.8109091,37.68 L18.4436364,22.3127273 L23.2290909,17.5345455 C25.3022679,15.4565419 25.3022679,12.092549 23.2290909,10.0145455 L15.0763636,1.86181818 C12.9975244,-0.216200655 9.62793014,-0.216200655 7.54909091,1.86181818 L5.36727273,4.04363636 C2.10170687,7.30768368 0.267003369,11.7355934 0.267003369,16.3527273 C0.267003369,20.9698612 2.10170687,25.3977709 5.36727273,28.6618182 L15.5490909,38.8436364" id="Path" stroke="#3C465A" stroke-width="2.83" stroke-linecap="round" stroke-linejoin="round"></path>
                    <path d="M46.2618182,23.2290909 C48.663441,19.2966005 48.0599899,14.2310382 44.8017486,10.9727968 C41.5435073,7.71455552 36.477945,7.11110448 32.5454545,9.51272727" id="Path" stroke="#3C465A" stroke-width="2.83" stroke-linecap="round" stroke-linejoin="round"></path>
                    <path d="M52.1381818,29.0909091 C56.5812181,21.7926275 55.4558389,12.4022065 49.4140889,6.36045652 C43.372339,0.318706556 33.9819179,-0.806672672 26.6836364,3.63636364" id="Path" stroke="#3C465A" stroke-width="2.83" stroke-linecap="round" stroke-linejoin="round"></path>
                </g>
            </g>
        </g>
    </g>
</svg>