<svg xmlns="http://www.w3.org/2000/svg" version="1.0" width="1457.4042548712368" height="403.48936104644963" preserveAspectRatio="xMidYMid meet"><rect id="backgroundrect" width="100%" height="100%" x="0" y="0" fill="none" stroke="none"/>
<metadata>
Created by potrace 1.13, written by Peter Selinger 2001-2015
</metadata>

<g class="currentLayer"><title>Layer 1</title><g transform="translate(0,750) scale(0.10000000149011612,-0.10000000149011612) " fill="#000000" stroke="none" id="svg_1" class="">
<path d="M3753.276611328125,7439.3616943359375 c-205,-37 -380,-159 -461,-321 c-52,-104 -64,-168 -59,-309 c4,-88 10,-128 27,-170 c53,-129 158,-234 305,-305 c39,-18 160,-63 268,-99 c213,-70 294,-107 363,-168 c128,-112 152,-335 54,-490 c-92,-143 -277,-227 -440,-198 c-189,33 -325,167 -360,356 c-7,32 -13,65 -15,72 c-2,9 -37,12 -130,12 l-126,0 l7,-62 c37,-320 248,-539 565,-589 c90,-14 251,-6 335,17 c275,74 458,301 473,586 c9,188 -34,306 -157,429 c-65,66 -92,84 -191,132 c-63,30 -187,81 -275,112 c-207,74 -290,114 -354,171 c-76,68 -94,109 -99,224 c-5,123 17,186 94,269 c87,95 225,141 361,121 c162,-23 263,-118 313,-295 l17,-60 l121,-3 l122,-3 l0,34 c0,53 -27,146 -67,227 c-67,139 -208,252 -369,296 c-71,19 -249,27 -322,14 z" id="svg_2"/>
<path d="M8511.276611328125,7434.3616943359375 c-246,-39 -483,-163 -650,-341 c-410,-436 -410,-1143 -1,-1577 c430,-456 1180,-477 1635,-47 c90,85 198,236 220,308 l7,22 l-134,0 l-134,0 l-28,-42 c-47,-71 -187,-200 -271,-250 c-279,-166 -639,-165 -921,4 c-74,44 -215,178 -265,251 c-59,87 -115,212 -140,313 c-31,127 -31,333 0,458 c45,179 131,325 264,451 c339,320 862,322 1202,3 c46,-42 100,-102 121,-132 l38,-56 l134,0 c73,0 133,3 133,8 c0,4 -18,37 -39,74 c-178,305 -479,508 -826,558 c-94,13 -242,11 -345,-5 z" id="svg_3"/>
<path d="M4891.276611328125,6304.3616943359375 l0,-1105 l115,0 l115,0 l2,965 l3,965 l421,-962 l421,-963 l84,-3 l84,-2 l420,964 l420,964 l3,-964 l2,-964 l120,0 l120,0 l0,1105 l0,1105 l-178,0 l-177,0 l-404,-920 c-223,-506 -407,-917 -410,-914 c-3,2 -186,415 -408,917 l-402,912 l-175,3 l-176,2 l0,-1105 z" id="svg_4"/>
<path d="M10021.276611328125,6304.3616943359375 l0,-1105 l125,0 l125,0 l2,433 l3,432 l310,6 c345,7 384,13 515,76 c150,72 271,231 316,418 c26,105 23,269 -5,370 c-60,216 -200,369 -392,429 c-116,37 -237,46 -634,46 l-365,0 l0,-1105 zm843,861 c136,-38 224,-102 273,-198 c38,-75 54,-141 54,-228 c0,-177 -73,-316 -199,-380 c-117,-59 -143,-63 -443,-68 l-278,-4 l0,452 l0,452 l268,-5 c203,-4 281,-9 325,-21 z" id="svg_5"/>
<path d="M166.276611328125,4280.3616943359375 c-74,-34 -105,-85 -105,-173 c0,-93 51,-142 195,-188 c126,-41 168,-117 112,-201 c-61,-90 -196,-69 -231,36 c-13,37 -17,40 -56,43 l-41,3 l7,-38 c14,-80 71,-143 146,-164 c93,-25 190,6 246,79 c24,31 27,44 27,111 c0,63 -4,81 -23,108 c-23,32 -96,73 -197,109 c-71,25 -105,62 -105,114 c0,34 6,48 34,76 c30,30 41,34 84,34 c59,0 95,-24 112,-75 c11,-32 15,-35 52,-35 c39,0 40,0 33,33 c-11,53 -52,107 -98,128 c-54,24 -139,24 -192,0 z" id="svg_6"/>
<path d="M3080.276611328125,4276.3616943359375 c-72,-30 -123,-70 -160,-123 c-37,-54 -49,-86 -59,-154 c-16,-115 22,-231 102,-306 c57,-54 84,-69 153,-90 c167,-48 356,38 428,194 c18,38 22,66 22,147 c0,87 -3,107 -26,155 c-33,70 -95,132 -167,167 c-46,22 -72,28 -146,30 c-78,3 -99,0 -147,-20 zm251,-72 c165,-83 212,-306 93,-444 c-54,-64 -123,-95 -208,-94 c-82,0 -128,18 -186,70 c-59,53 -81,104 -87,194 c-4,66 -1,84 20,130 c36,80 96,133 178,160 c39,13 152,4 190,-16 z" id="svg_7"/>
<path d="M7516.276611328125,4285.3616943359375 c-56,-17 -80,-32 -127,-74 c-189,-171 -142,-483 88,-589 c105,-48 247,-39 344,22 c43,27 120,112 120,131 c0,10 -13,14 -40,14 c-34,0 -46,-6 -72,-36 c-66,-75 -176,-108 -271,-80 c-154,45 -240,207 -192,361 c64,202 318,261 458,106 c32,-35 43,-41 77,-41 c22,0 40,3 40,6 c0,17 -46,78 -87,113 c-62,55 -135,81 -226,80 c-40,0 -90,-6 -112,-13 z" id="svg_8"/>
<path d="M13635.276611328125,4281.3616943359375 c-104,-36 -190,-126 -221,-231 c-23,-80 -14,-193 20,-264 c94,-192 351,-255 534,-131 c95,65 146,166 146,289 c-2,163 -81,279 -229,335 c-69,25 -179,26 -250,2 zm198,-62 c70,-20 130,-70 165,-138 c62,-120 39,-259 -57,-345 c-57,-52 -103,-70 -180,-71 c-73,0 -145,26 -193,72 c-43,40 -79,118 -84,182 c-18,198 161,352 349,300 z" id="svg_9"/>
<path d="M743.276611328125,4272.3616943359375 c-6,-10 -64,-148 -130,-308 c-66,-159 -128,-307 -137,-328 l-16,-38 l47,3 l47,3 l36,92 l36,93 l160,0 l160,0 l39,-95 l38,-95 l44,0 c24,0 44,2 44,4 c0,2 -61,151 -136,332 c-75,181 -138,335 -141,342 c-8,19 -81,15 -91,-5 zm111,-250 l65,-163 l-133,0 l-133,0 l66,165 c36,91 67,164 68,162 c1,-1 31,-75 67,-164 z" id="svg_10"/>
<path d="M1131.276611328125,3944.3616943359375 l0,-345 l40,0 l40,0 l0,286 l0,287 l202,-287 l201,-286 l39,0 l38,0 l0,345 l0,345 l-40,0 l-40,0 l-2,-277 l-3,-277 l-195,277 l-194,277 l-43,0 l-43,0 l0,-345 z" id="svg_11"/>
<path d="M1771.276611328125,3944.3616943359375 l0,-345 l124,0 c192,0 281,25 351,97 c57,59 79,116 83,220 c5,113 -8,172 -54,240 c-71,104 -150,133 -361,133 l-143,0 l0,-345 zm308,260 c62,-19 115,-62 145,-119 c18,-34 22,-57 22,-141 c0,-115 -17,-161 -80,-213 c-47,-38 -98,-53 -212,-59 l-93,-6 l0,277 l0,276 l83,0 c46,0 107,-7 135,-15 z" id="svg_12"/>
<path d="M2381.276611328125,3944.3616943359375 l0,-345 l40,0 l40,0 l0,311 l0,311 l103,-4 c121,-5 157,-20 187,-78 c35,-68 21,-149 -34,-200 c-22,-20 -40,-25 -96,-28 c-39,-2 -70,-7 -70,-11 c0,-3 42,-71 94,-151 l93,-145 l42,-3 c22,-2 41,0 41,5 c0,4 -36,62 -80,128 l-80,120 l46,12 c144,36 193,236 87,354 c-50,55 -104,69 -275,69 l-138,0 l0,-345 z" id="svg_13"/>
<path d="M4281.276611328125,3944.3616943359375 l0,-345 l35,0 l35,0 l2,296 l3,296 l129,-296 c122,-280 131,-296 156,-296 c24,0 33,16 155,298 c112,255 130,292 133,262 c2,-19 2,-153 0,-298 l-3,-262 l38,0 l37,0 l0,345 l0,346 l-56,-3 l-57,-3 l-121,-277 c-67,-153 -123,-277 -126,-277 c-3,-1 -60,124 -126,277 l-122,277 l-56,3 l-56,3 l0,-346 z" id="svg_14"/>
<path d="M5177.276611328125,3957.3616943359375 c-76,-183 -141,-339 -143,-345 c-4,-9 8,-13 39,-13 l45,0 l38,95 l39,95 l160,-2 l159,-3 l37,-90 l38,-90 l46,-3 c41,-3 45,-1 38,16 c-4,10 -68,166 -142,345 l-135,327 l-40,0 l-40,0 l-139,-332 zm302,-94 c-3,-2 -62,-3 -130,-2 l-125,3 l53,135 c29,74 58,149 64,165 c11,29 14,24 77,-133 c36,-90 63,-165 61,-168 z" id="svg_15"/>
<path d="M5979.276611328125,4005.3616943359375 c-3,-319 -2,-315 -79,-337 c-32,-10 -42,-9 -71,7 c-18,11 -41,36 -51,57 c-17,34 -22,37 -59,37 l-41,0 l6,-36 c22,-133 208,-189 319,-96 c55,47 58,64 58,372 l0,280 l-40,0 l-39,0 l-3,-284 z" id="svg_16"/>
<path d="M6151.276611328125,3944.3616943359375 l0,-345 l195,0 l195,0 l0,35 l0,34 l-152,3 l-153,3 l-3,118 l-3,117 l151,0 l150,0 l0,40 l0,40 l-150,0 l-150,0 l0,115 l0,115 l155,0 l155,0 l0,35 l0,35 l-195,0 l-195,0 l0,-345 z" id="svg_17"/>
<path d="M8041.276611328125,3944.3616943359375 l0,-345 l170,0 l170,0 l0,35 l0,34 l-127,3 l-128,3 l-3,308 l-2,307 l-40,0 l-40,0 l0,-345 z" id="svg_18"/>
<path d="M8537.276611328125,3957.3616943359375 c-76,-183 -141,-339 -143,-345 c-4,-9 8,-13 39,-13 l45,0 l38,95 l39,95 l160,-2 l159,-3 l37,-90 l38,-90 l46,-3 c41,-3 45,-1 38,16 c-4,10 -68,166 -142,345 l-135,327 l-40,0 l-40,0 l-139,-332 zm302,-94 c-3,-2 -62,-3 -130,-2 l-125,3 l53,135 c29,74 58,149 64,165 c11,29 14,24 77,-133 c36,-90 63,-165 61,-168 z" id="svg_19"/>
<path d="M9081.276611328125,4022.3616943359375 c0,-239 2,-272 19,-309 c58,-128 243,-165 357,-71 c70,58 74,78 74,380 l0,267 l-40,0 l-40,0 l0,-255 c0,-317 -6,-338 -111,-366 c-43,-11 -50,-10 -94,12 c-83,41 -85,51 -85,351 l0,258 l-40,0 l-40,0 l0,-267 z" id="svg_20"/>
<path d="M9661.276611328125,3944.3616943359375 l0,-345 l124,0 c192,0 281,25 351,97 c57,59 79,116 83,220 c5,110 -8,170 -50,236 c-66,104 -155,137 -365,137 l-143,0 l0,-345 zm308,260 c62,-19 115,-62 145,-119 c18,-34 22,-57 22,-141 c0,-115 -17,-161 -80,-213 c-47,-38 -98,-53 -212,-59 l-93,-6 l0,277 l0,276 l83,0 c46,0 107,-7 135,-15 z" id="svg_21"/>
<path d="M10321.276611328125,3944.3616943359375 l0,-345 l45,0 l45,0 l0,345 l0,345 l-45,0 l-45,0 l0,-345 z" id="svg_22"/>
<path d="M10541.276611328125,3944.3616943359375 l0,-345 l190,0 l190,0 l0,35 l0,35 l-150,0 l-150,0 l0,120 l0,120 l150,0 l150,0 l0,40 l0,40 l-150,0 l-150,0 l0,115 l0,115 l150,0 l150,0 l0,35 l0,35 l-190,0 l-190,0 l0,-345 z" id="svg_23"/>
<path d="M11301.276611328125,3945.3616943359375 l0,-346 l40,0 l40,0 l0,134 l0,133 l108,5 c91,4 115,8 152,29 c63,35 95,94 95,179 c0,81 -25,133 -84,175 c-42,30 -44,30 -197,33 l-154,4 l0,-346 zm296,251 c68,-36 84,-149 29,-207 c-32,-33 -94,-50 -185,-50 l-60,0 l0,141 l0,141 l93,-4 c59,-3 103,-10 123,-21 z" id="svg_24"/>
<path d="M11811.276611328125,3944.3616943359375 l0,-345 l40,0 l40,0 l0,345 l0,345 l-40,0 l-40,0 l0,-345 z" id="svg_25"/>
<path d="M12031.276611328125,3944.3616943359375 l0,-345 l190,0 l190,0 l0,35 l0,35 l-150,0 l-150,0 l0,120 l0,120 l150,0 l150,0 l0,40 l0,40 l-150,0 l-150,0 l0,115 l0,115 l150,0 l150,0 l0,35 l0,35 l-190,0 l-190,0 l0,-345 z" id="svg_26"/>
<path d="M12521.276611328125,3944.3616943359375 l0,-345 l40,0 l40,0 l0,311 l0,311 l105,-4 c85,-3 109,-7 131,-24 c45,-33 67,-70 71,-121 c8,-97 -56,-163 -158,-163 c-33,0 -59,-4 -59,-8 c0,-5 42,-74 93,-153 l93,-144 l42,-3 c23,-2 42,0 42,5 c0,4 -36,62 -79,127 l-80,119 l52,18 c142,48 183,228 80,349 c-49,56 -102,70 -275,70 l-138,0 l0,-345 z" id="svg_27"/>
<path d="M13071.276611328125,3944.3616943359375 l0,-345 l170,0 l170,0 l0,35 l0,35 l-130,0 l-130,0 l0,310 l0,310 l-40,0 l-40,0 l0,-345 z" id="svg_28"/>
<path d="M14111.276611328125,4254.3616943359375 l0,-35 l85,0 l85,0 l0,-310 l0,-310 l40,0 l40,0 l0,310 l0,310 l85,0 l85,0 l0,35 l0,35 l-210,0 l-210,0 l0,-35 z" id="svg_29"/>
</g></g></svg>