<?xml version="1.0" encoding="UTF-8"?>
<svg width="35px" height="35px" viewBox="0 0 35 35" version="1.1" xmlns="http://www.w3.org/2000/svg" xmlns:xlink="http://www.w3.org/1999/xlink">
    <!-- Generator: Sketch 52.4 (67378) - http://www.bohemiancoding.com/sketch -->
    <title>socialFacebook</title>
    <desc>Created with Sketch.</desc>
    <g id="Symbols" stroke="none" stroke-width="1" fill="none" fill-rule="evenodd">
        <g id="_Max/Facebook-Icon">
            <g id="Facebook">
                <path d="M34.0652,17.8493 C34.0652,8.4573 26.4492,0.8413 17.0562,0.8413 C7.6622,0.8413 0.0482,8.4573 0.0482,17.8493 C0.0482,27.2433 7.6622,34.8573 17.0562,34.8573 C26.4492,34.8573 34.0652,27.2433 34.0652,17.8493 Z" id="Fill-6" fill="#FFFFFF"></path>
                <path d="M12.9536,14.9697 L14.7116,14.9697 L14.7116,13.2607 C14.7116,12.5077 14.7296,11.3447 15.2776,10.6257 C15.8536,9.8637 16.6456,9.3447 18.0076,9.3447 C20.2246,9.3447 21.1596,9.6617 21.1596,9.6617 L20.7206,12.2667 C20.7206,12.2667 19.9866,12.0547 19.3036,12.0547 C18.6196,12.0547 18.0076,12.2997 18.0076,12.9837 L18.0076,14.9697 L20.8116,14.9697 L20.6156,17.5137 L18.0076,17.5137 L18.0076,26.3537 L14.7116,26.3537 L14.7116,17.5137 L12.9536,17.5137 L12.9536,14.9697 Z" id="Fill-9" fill="#3C465A"></path>
            </g>
        </g>
    </g>
</svg>