<?xml version="1.0" encoding="UTF-8"?>
<svg width="35px" height="34px" viewBox="0 0 35 34" version="1.1" xmlns="http://www.w3.org/2000/svg" xmlns:xlink="http://www.w3.org/1999/xlink">
    <!-- Generator: Sketch 52.4 (67378) - http://www.bohemiancoding.com/sketch -->
    <title>socialInstagram</title>
    <desc>Created with Sketch.</desc>
    <g id="Symbols" stroke="none" stroke-width="1" fill="none" fill-rule="evenodd">
        <g id="_Max/Instagram-Icon" transform="translate(0.000000, -1.000000)">
            <g id="Instagram">
                <path d="M17.273,35.0004 C26.667,35.0004 34.281,27.3854 34.281,17.9914 C34.281,8.5994 26.667,0.9844 17.273,0.9844 C7.878,0.9844 0.265,8.5994 0.265,17.9914 C0.265,27.3854 7.878,35.0004 17.273,35.0004" id="Fill-16" fill="#FFFFFF"></path>
                <path d="M24.1216,23.2094 C24.1216,24.1084 23.3916,24.8394 22.4916,24.8394 L12.0586,24.8394 C11.1586,24.8394 10.4286,24.1084 10.4286,23.2094 L10.4286,16.2464 L12.9676,16.2464 C12.7476,16.7864 12.6246,17.3754 12.6246,17.9924 C12.6246,20.5564 14.7106,22.6434 17.2746,22.6434 C19.8396,22.6434 21.9256,20.5564 21.9256,17.9924 C21.9256,17.3754 21.8016,16.7864 21.5826,16.2464 L24.1216,16.2464 L24.1216,23.2094 Z M14.8486,16.2464 C15.3926,15.4924 16.2756,14.9984 17.2746,14.9984 C18.2736,14.9984 19.1576,15.4924 19.7016,16.2464 C20.0576,16.7384 20.2686,17.3404 20.2686,17.9924 C20.2686,19.6434 18.9256,20.9854 17.2746,20.9854 C15.6246,20.9854 14.2816,19.6434 14.2816,17.9924 C14.2816,17.3404 14.4936,16.7384 14.8486,16.2464 Z M23.4346,11.4484 L23.8106,11.4474 L23.8106,11.8214 L23.8106,14.3304 L20.9366,14.3394 L20.9276,11.4564 L23.4346,11.4484 Z M22.4916,9.4884 L12.0586,9.4884 C10.2456,9.4884 8.7706,10.9624 8.7706,12.7744 L8.7706,16.2464 L8.7706,23.2094 C8.7706,25.0214 10.2456,26.4964 12.0586,26.4964 L22.4916,26.4964 C24.3046,26.4964 25.7786,25.0214 25.7786,23.2094 L25.7786,16.2464 L25.7786,12.7744 C25.7786,10.9624 24.3046,9.4884 22.4916,9.4884 Z" id="Fill-19" fill="#3C465A"></path>
            </g>
        </g>
    </g>
</svg>