<?xml version="1.0" encoding="UTF-8"?>
<svg width="34px" height="35px" viewBox="0 0 34 35" version="1.1" xmlns="http://www.w3.org/2000/svg" xmlns:xlink="http://www.w3.org/1999/xlink">
    <!-- Generator: Sketch 52.4 (67378) - http://www.bohemiancoding.com/sketch -->
    <title>socialTwitter</title>
    <desc>Created with Sketch.</desc>
    <g id="Symbols" stroke="none" stroke-width="1" fill="none" fill-rule="evenodd">
        <g id="_Max/Twitter-icon" transform="translate(-1.000000, 0.000000)">
            <g id="Twitter">
                <path d="M18.0083,34.8573 C27.4023,34.8573 35.0163,27.2433 35.0163,17.8493 C35.0163,8.4573 27.4023,0.8413 18.0083,0.8413 C8.6143,0.8413 0.9993,8.4573 0.9993,17.8493 C0.9993,27.2433 8.6143,34.8573 18.0083,34.8573" id="Fill-1" fill="#FFFFFF"></path>
                <path d="M26.5406,13.394 C25.9146,13.672 25.2406,13.86 24.5336,13.944 C25.2566,13.512 25.8106,12.827 26.0696,12.011 C25.3946,12.412 24.6476,12.702 23.8506,12.858 C23.2146,12.179 22.3046,11.755 21.2996,11.755 C19.3696,11.755 17.8046,13.32 17.8046,15.25 C17.8046,15.524 17.8346,15.79 17.8946,16.046 C14.9896,15.9 12.4156,14.51 10.6896,12.394 C10.3896,12.912 10.2166,13.512 10.2166,14.152 C10.2166,15.364 10.8336,16.434 11.7716,17.061 C11.1986,17.044 10.6596,16.885 10.1876,16.625 L10.1876,16.668 C10.1876,18.362 11.3926,19.775 12.9926,20.095 C12.6986,20.177 12.3916,20.218 12.0706,20.218 C11.8466,20.218 11.6266,20.197 11.4146,20.156 C11.8576,21.544 13.1486,22.556 14.6786,22.582 C13.4826,23.52 11.9756,24.079 10.3376,24.079 C10.0566,24.079 9.7766,24.063 9.5036,24.031 C11.0506,25.021 12.8886,25.601 14.8616,25.601 C21.2916,25.601 24.8076,20.275 24.8076,15.656 C24.8076,15.504 24.8036,15.352 24.7976,15.204 C25.4806,14.71 26.0736,14.095 26.5406,13.394" id="Fill-4" fill="#3C465A"></path>
            </g>
        </g>
    </g>
</svg>