<svg xmlns="http://www.w3.org/2000/svg" width="79.319" height="79.197" viewBox="0 0 79.319 79.197"><defs><style>.a,.c{fill:none;}.b{fill:#fff;}.c{stroke:#19b8e9;stroke-linecap:round;stroke-linejoin:round;stroke-width:2.83px;}</style></defs><g transform="translate(0.048 -0.002)"><rect class="a" width="4.97" height="29.88" transform="translate(26.364 31.679) rotate(-45)"/><path class="b" d="M32.94,25.11a7.32,7.32,0,0,0,0-10.34L21.73,3.56a7.32,7.32,0,0,0-10.35,0l-3,3-.1.1,21.6,21.51Z"/><path class="b" d="M51,49.3l-3.51,3.51L26.36,31.68l3.52-3.51L8.33,6.62a23.94,23.94,0,0,0,.1,33.75L38.82,70.76a23.93,23.93,0,0,0,33.74.09Z"/><path class="b" d="M72.67,70.76l3-3a7.3,7.3,0,0,0,0-10.34L64.41,46.24a7.32,7.32,0,0,0-10.35,0L51,49.3,72.56,70.85Z"/><line class="c" x2="3.99" y2="3.99" transform="translate(25.89 24.18)"/><line class="c" x2="13.42" y2="13.43" transform="translate(8.33 6.62)"/><line class="c" x2="21.56" y2="21.55" transform="translate(51 49.3)"/><path class="c" d="M26.86,58.8l12,12a24,24,0,0,0,33.85,0l3-3a7.3,7.3,0,0,0,0-10.34L64.41,46.24a7.32,7.32,0,0,0-10.35,0l-6.57,6.57L26.36,31.68l6.58-6.57a7.32,7.32,0,0,0,0-10.34L21.73,3.56a7.32,7.32,0,0,0-10.35,0l-3,3a23.93,23.93,0,0,0,0,33.85l14,14"/><path class="c" d="M64.61,32.94A13.72,13.72,0,0,0,45.75,14.08"/><path class="c" d="M68.72,37.05A19.69,19.69,0,0,0,41.64,10"/><path class="c" d="M72.69,41a25.47,25.47,0,0,0-35-35"/></g></svg>