<?xml version="1.0" encoding="utf-8"?>
<!-- Generator: Adobe Illustrator 23.0.1, SVG Export Plug-In . SVG Version: 6.00 Build 0)  -->
<svg version="1.1" id="Layer_1" xmlns="http://www.w3.org/2000/svg" xmlns:xlink="http://www.w3.org/1999/xlink" x="0px" y="0px"
	 viewBox="0 0 786.9 485.9" style="enable-background:new 0 0 786.9 485.9;" xml:space="preserve">
<style type="text/css">
	.st0{fill:#FFFFFF;}
	.st1{fill:#00E1B4;}
	.st2{enable-background:new    ;}
</style>
<g>
	<g>
		<path class="st0" d="M228.7,85.6c-8.6,0-16.8,3.3-22,8.8c0.1-0.8,0.1-1.7,0.2-2.7c0.1-1.1-0.3-2.2-1-3c-0.8-0.9-1.9-1.4-3.1-1.4
			h-15.2c-1,0-1.8,0.7-2,1.6l-23.3,109.6c-0.2,0.8,0.2,1.7,0.9,2.2c0.3,0.2,0.7,0.3,1.1,0.3h8.4c6.9,0,13-4.9,14.4-11.7l5.9-28.5
			c3.9,5.4,12.2,10.8,24.6,10.8c24.8,0,42.8-21.7,42.8-51.6C260.6,98.7,248.4,85.6,228.7,85.6z M237.3,123.4
			c0,17.8-11.2,27.5-21.7,27.5c-9.9,0-16.1-6.9-16.1-18.1c0-15.1,9.5-27,21.5-27C231.3,105.9,237.3,112.4,237.3,123.4z"/>
		<path class="st0" d="M343.4,133.3c1.3-4.5,2-9.7,2-13.8c0-21.1-14.2-34.8-36.2-34.8c-21.7,0-44.2,18.4-44.2,49.3
			c0,22.1,15.9,38.1,37.9,38.1c22.8,0,32.8-13.6,36.1-19.4c0.3-0.5,0.3-1.1,0.2-1.6c-0.2-0.5-0.5-1-1-1.2l-14.2-7.1
			c-1-0.5-2.1-0.2-2.7,0.7c-1.7,2.7-6.8,9.1-17,9.1c-10.5,0-17.3-6.9-17.6-17.6l54.7-0.2C342.3,134.8,343.1,134.1,343.4,133.3z
			 M308.8,103.7c11.7,0,14.8,8.4,14.8,13.4c0,0.3,0,0.6-0.1,1.4h-34.3C292.2,109.3,299.5,103.7,308.8,103.7z"/>
		<path class="st0" d="M402.2,85.1c-9.1,0-17,3.2-21.9,9c0.1-0.7,0.1-1.5,0.2-2.3c0.1-1.1-0.3-2.2-1-3.1c-0.8-0.9-1.9-1.4-3.1-1.4
			h-15.2c-1,0-1.8,0.7-2,1.6l-16.5,78.3c-0.2,0.8,0.2,1.7,0.9,2.2c0.3,0.2,0.7,0.3,1.1,0.3h18.7c1,0,1.8-0.7,2-1.6l10-45.9
			c2.2-10.3,8.4-16.4,16.6-16.4c7.5,0,11.8,4.2,11.8,11.5c0,1.5-0.2,3.1-0.5,4.7l-8.2,38.5c-0.5,2.4,0.2,5,1.9,6.8
			c1.5,1.6,3.6,2.4,5.8,2.4h12c0.8,0,1.6-0.6,1.7-1.4l10.4-48.2c0.7-3,1-5.9,1-8.7C427.9,95.3,417.8,85.1,402.2,85.1z"/>
		<path class="st0" d="M484.8,85.6c-8.6,0-16.8,3.3-22,8.8c0.1-0.9,0.1-1.8,0.2-2.8c0-1.1-0.4-2.2-1.1-3c-0.8-0.8-1.8-1.3-3-1.3
			h-15.2c-1,0-1.8,0.7-2,1.6l-23.3,109.6c-0.1,0.6,0,1.2,0.4,1.7s1,0.8,1.6,0.8h8.5c6.9,0,13-4.9,14.4-11.7l5.9-28.5
			c3.9,5.4,12.2,10.8,24.6,10.8c24.8,0,42.8-21.7,42.8-51.6C516.8,98.7,504.5,85.6,484.8,85.6z M493.5,123.4
			c0,17.8-11.2,27.5-21.7,27.5c-9.9,0-16.1-6.9-16.1-18.1c0-15.1,9.5-27,21.5-27C487.4,105.9,493.5,112.4,493.5,123.4z"/>
		<path class="st0" d="M594.9,168.5c0.2-0.3,0.3-0.8,0.3-1.2c0-0.6,0-1.1,0-1.5c0-4.8,0.5-10,1.5-14.6l13-61.6
			c0.1-0.4,0.1-0.8-0.1-1.2c-0.3-0.8-1.1-1.4-1.9-1.4H591c-1.9,0-3.6,1.4-4,3.3l-1.1,4.9c-2.3-3.5-8.6-10.2-23.3-10.2
			c-24,0-42,21.1-42,49.1c0,21.6,13.3,36.7,32.3,36.7c11,0,17.6-5.6,21-10c-0.1,1.4-0.2,2.9-0.2,4.1v0.3c0,2.3,1.8,4.1,4.1,4.1h15.3
			C593.8,169.6,594.5,169.2,594.9,168.5z M579.3,122.8c0,16.3-8.6,28.1-20.5,28.1c-9.6,0-15.3-6.5-15.3-17.4
			c0-17.8,10.8-27.5,20.9-27.5C573.7,106,579.3,112.3,579.3,122.8z"/>
		<path class="st0" d="M693.8,87.7c-0.4-0.3-0.8-0.5-1.3-0.5h-19.8c-0.8,0-1.5,0.4-1.8,1.1L643,140.2L636.3,89c-0.1-1-1-1.8-2-1.8
			h-19.6c-0.3,0-0.5,0-0.8,0.2c-0.9,0.4-1.4,1.4-1.2,2.3l13.6,77c0.1,0.4,0,0.9-0.2,1.2l-3,4.8c-3.4,5.9-7.6,8.8-12.9,9
			c-1.9,0-3.6-0.3-5-0.9c-0.9-0.4-2-0.1-2.6,0.8l-9.2,15c-0.2,0.4-0.4,0.8-0.3,1.3c0.1,0.6,0.4,1,0.9,1.3c2.6,1.4,7.9,3,14.2,3
			c14.4,0,27.9-8.7,37.2-23.9l48.9-88C694.7,89.4,694.6,88.4,693.8,87.7z"/>
		<path class="st0" d="M148.1,123.9c0,13.1-7.5,27-21.4,27c-9.8,0-16.1-7.2-16.1-18.2c0-15.3,9.2-26.8,21.4-26.8
			c1.3,0,2.4,0.1,3.6,0.3c1.1,0.2,2.1-0.5,2.3-1.5c0.9-4,2.8-13.1,3.6-17.1c0.2-1.1-0.5-2.2-1.6-2.4c-2-0.3-4.1-0.4-6.2-0.4
			c-26.3,0-46.2,21.1-46.2,49c0,22.3,15.9,38.4,37.8,38.4c25.8,0,46-21.5,46-49c0-3.1-0.3-6-0.8-8.8c-0.2-1.2-1.4-1.9-2.6-1.5
			l-18.5,6c-0.9,0.3-1.5,1.2-1.4,2.1C148.1,121.9,148.1,122.9,148.1,123.9z"/>
	</g>
	<path class="st1" d="M162.9,91.5c-3.6-3.5-8.3-5.9-13.9-6.9c-1.2-0.2-2.4,0.6-2.6,1.7c-1.3,5.9-4.9,23.1-6.1,28.9
		c-0.2,0.8,0.6,1.6,1.5,1.3l27.3-8.9c1.1-0.4,1.8-1.5,1.5-2.6C169.2,99.7,166.6,95.1,162.9,91.5z"/>
</g>
<g class="st2">
	<path class="st0" d="M236.6,272.8c2.9,2.3,4.8,5.3,5.8,9.2H235c-0.8-1.9-2-3.4-3.6-4.5c-1.6-1.1-3.6-1.7-5.8-1.7
		c-1.9,0-3.5,0.5-5,1.4c-1.5,0.9-2.7,2.3-3.5,4c-0.8,1.7-1.2,3.8-1.2,6.1c0,2.3,0.4,4.3,1.2,6.1c0.8,1.7,2,3.1,3.5,4s3.2,1.4,5,1.4
		c2.3,0,4.2-0.5,5.8-1.6c1.6-1.1,2.8-2.6,3.6-4.5h7.4c-0.9,3.9-2.9,7-5.8,9.2s-6.6,3.4-11,3.4c-3.4,0-6.3-0.8-8.9-2.3
		c-2.6-1.5-4.6-3.6-6-6.4c-1.4-2.7-2.1-5.8-2.1-9.3c0-3.5,0.7-6.6,2.1-9.3c1.4-2.7,3.4-4.9,6-6.4c2.6-1.5,5.5-2.3,8.9-2.3
		C230.1,269.4,233.7,270.5,236.6,272.8z"/>
	<path class="st0" d="M267.8,278.7c2.1,1.1,3.8,2.8,5.1,4.9c1.2,2.1,1.9,4.7,1.9,7.6c0,2.9-0.6,5.4-1.9,7.5
		c-1.2,2.1-2.9,3.8-5.1,4.9s-4.6,1.7-7.3,1.7s-5.1-0.6-7.3-1.7s-3.8-2.8-5.1-4.9c-1.2-2.1-1.9-4.7-1.9-7.5c0-2.9,0.6-5.4,1.9-7.6
		c1.2-2.2,2.9-3.8,5.1-4.9s4.6-1.7,7.3-1.7S265.6,277.5,267.8,278.7z M255.5,285.1c-1.4,1.4-2,3.4-2,6s0.7,4.6,2,6
		c1.4,1.4,3,2.1,5,2.1c2,0,3.6-0.7,5-2.1c1.4-1.4,2-3.4,2-6s-0.7-4.6-2-6c-1.4-1.4-3-2.1-5-2.1C258.5,283.1,256.8,283.8,255.5,285.1
		z"/>
	<path class="st0" d="M322.9,280c2,2.1,2.9,5,2.9,8.9V305h-7v-15.3c0-2.1-0.5-3.8-1.6-4.9c-1.1-1.2-2.6-1.7-4.5-1.7
		c-2,0-3.5,0.6-4.7,1.9c-1.2,1.2-1.8,3-1.8,5.4V305h-7v-15.3c0-2.1-0.5-3.8-1.6-4.9c-1.1-1.2-2.6-1.7-4.5-1.7c-2,0-3.5,0.6-4.7,1.9
		c-1.2,1.2-1.8,3-1.8,5.4V305h-7v-27.7h7v5.2c0.7-1.8,1.9-3.2,3.5-4.2c1.6-1,3.4-1.5,5.5-1.5c2.2,0,4.2,0.5,5.8,1.6
		c1.6,1.1,2.9,2.6,3.7,4.6c0.9-1.9,2.2-3.4,3.9-4.5c1.7-1.1,3.6-1.7,5.8-1.7C318.3,276.9,321,278,322.9,280z"/>
	<path class="st0" d="M332.4,266.6c0.8-0.7,1.9-1.1,3.1-1.1s2.4,0.4,3.1,1.1c0.8,0.7,1.2,1.6,1.2,2.8c0,1.1-0.4,2-1.2,2.7
		c-0.8,0.7-1.9,1.1-3.1,1.1s-2.4-0.4-3.1-1.1c-0.8-0.7-1.2-1.6-1.2-2.7C331.2,268.2,331.6,267.3,332.4,266.6z M339.1,277.3V305h-7
		v-27.7H339.1z"/>
	<path class="st0" d="M369.6,280.1c1.9,2.1,2.9,5,2.9,8.9V305h-7v-15.3c0-2.2-0.6-3.9-1.7-5.1c-1.1-1.2-2.7-1.8-4.6-1.8
		c-2,0-3.6,0.7-4.8,2c-1.2,1.3-1.8,3.2-1.8,5.6V305h-7v-27.7h7v5.5c0.7-1.9,1.9-3.3,3.6-4.4c1.7-1,3.6-1.6,5.8-1.6
		C365.2,276.9,367.7,278,369.6,280.1z"/>
	<path class="st0" d="M395.5,278.6c1.7,1.1,2.8,2.6,3.5,4.5v-5.8h7v27.8c0,2.6-0.5,4.9-1.5,6.9c-1,2-2.5,3.7-4.6,4.8
		s-4.5,1.8-7.3,1.8c-4,0-7.2-0.9-9.7-2.8c-2.5-1.9-4-4.5-4.5-7.8h7c0.4,1.4,1.2,2.5,2.3,3.3c1.1,0.8,2.6,1.2,4.4,1.2
		c2.1,0,3.7-0.6,5-1.8c1.3-1.2,1.9-3.1,1.9-5.5v-5.9c-0.7,1.9-1.9,3.4-3.5,4.5c-1.7,1.1-3.7,1.7-6,1.7c-2.3,0-4.4-0.6-6.3-1.7
		c-1.9-1.1-3.3-2.8-4.4-4.9c-1-2.1-1.6-4.7-1.6-7.6c0-2.9,0.5-5.4,1.6-7.6c1-2.2,2.5-3.8,4.4-4.9c1.9-1.1,4-1.7,6.3-1.7
		C391.9,277,393.9,277.5,395.5,278.6z M386.4,285.3c-1.3,1.4-2,3.4-2,5.9s0.7,4.5,2,5.9c1.3,1.4,3.1,2.1,5.3,2.1
		c2.1,0,3.9-0.7,5.3-2.2c1.4-1.4,2.1-3.4,2.1-5.8c0-2.5-0.7-4.4-2.1-5.9c-1.4-1.5-3.1-2.2-5.3-2.2
		C389.5,283.1,387.8,283.8,386.4,285.3z"/>
	<path class="st0" d="M441,279.5c2,1.7,3.3,4,3.8,6.8h-6.6c-0.3-1.3-0.9-2.4-1.8-3.2c-0.9-0.8-2.2-1.2-3.7-1.2
		c-1.2,0-2.1,0.3-2.8,0.8c-0.7,0.6-1,1.3-1,2.3c0,0.8,0.3,1.4,0.8,1.9s1.2,0.8,2,1.1c0.8,0.3,2,0.6,3.5,1c2.1,0.5,3.8,1,5.1,1.5
		c1.3,0.5,2.5,1.3,3.4,2.5c0.9,1.1,1.4,2.6,1.4,4.5c0,2.4-0.9,4.3-2.8,5.8c-1.8,1.5-4.3,2.2-7.5,2.2c-3.6,0-6.5-0.8-8.7-2.4
		c-2.2-1.6-3.5-3.9-4-6.9h6.8c0.2,1.4,0.8,2.4,1.8,3.2c1,0.8,2.4,1.2,4,1.2c1.2,0,2.1-0.3,2.8-0.9c0.6-0.6,1-1.3,1-2.3
		c0-0.8-0.3-1.5-0.8-2s-1.2-0.9-2-1.1c-0.8-0.3-2-0.6-3.5-1c-2.1-0.5-3.7-0.9-5-1.4c-1.3-0.5-2.4-1.3-3.3-2.3
		c-0.9-1.1-1.4-2.5-1.4-4.4c0-2.4,0.9-4.3,2.8-5.8s4.4-2.2,7.6-2.2C436.3,277,439,277.8,441,279.5z"/>
	<path class="st0" d="M470.5,278.7c2.1,1.1,3.8,2.8,5.1,4.9c1.2,2.1,1.8,4.7,1.8,7.6c0,2.9-0.6,5.4-1.8,7.5
		c-1.2,2.1-2.9,3.8-5.1,4.9c-2.2,1.2-4.6,1.7-7.3,1.7s-5.1-0.6-7.3-1.7c-2.2-1.2-3.8-2.8-5.1-4.9c-1.2-2.1-1.9-4.7-1.9-7.5
		c0-2.9,0.6-5.4,1.9-7.6c1.2-2.2,2.9-3.8,5.1-4.9c2.1-1.1,4.6-1.7,7.3-1.7S468.3,277.5,470.5,278.7z M458.2,285.1
		c-1.4,1.4-2,3.4-2,6s0.7,4.6,2,6c1.4,1.4,3,2.1,5,2.1s3.6-0.7,5-2.1c1.4-1.4,2-3.4,2-6s-0.7-4.6-2-6c-1.4-1.4-3-2.1-5-2.1
		S459.6,283.8,458.2,285.1z"/>
	<path class="st0" d="M502.5,278.7c2.1,1.1,3.8,2.8,5.1,4.9c1.2,2.1,1.8,4.7,1.8,7.6c0,2.9-0.6,5.4-1.8,7.5
		c-1.2,2.1-2.9,3.8-5.1,4.9c-2.2,1.2-4.6,1.7-7.3,1.7s-5.1-0.6-7.3-1.7c-2.2-1.2-3.8-2.8-5.1-4.9c-1.2-2.1-1.9-4.7-1.9-7.5
		c0-2.9,0.6-5.4,1.9-7.6c1.2-2.2,2.9-3.8,5.1-4.9c2.1-1.1,4.6-1.7,7.3-1.7S500.3,277.5,502.5,278.7z M490.2,285.1
		c-1.4,1.4-2,3.4-2,6s0.7,4.6,2,6c1.4,1.4,3,2.1,5,2.1s3.6-0.7,5-2.1c1.4-1.4,2-3.4,2-6s-0.7-4.6-2-6c-1.4-1.4-3-2.1-5-2.1
		S491.6,283.8,490.2,285.1z"/>
	<path class="st0" d="M538.6,280.1c1.9,2.1,2.8,5,2.8,8.9V305h-7v-15.3c0-2.2-0.6-3.9-1.7-5.1c-1.1-1.2-2.7-1.8-4.7-1.8
		c-2,0-3.6,0.7-4.8,2c-1.2,1.3-1.8,3.2-1.8,5.6V305h-7.1v-27.7h7.1v5.5c0.7-1.9,1.9-3.3,3.6-4.4c1.7-1,3.6-1.6,5.8-1.6
		C534.1,276.9,536.7,278,538.6,280.1z"/>
	<path class="st0" d="M553.5,297.7v7.3h-7.6v-7.3H553.5z"/>
</g>
</svg>
