<svg xmlns="http://www.w3.org/2000/svg" viewBox="0 0 476.18 497.96"><defs><style>.cls-1{opacity:0.1;}.cls-2{fill:#5ecbf4;}</style></defs><title>Asset 1</title><g id="Layer_2" data-name="Layer 2"><g id="Layer_1-2" data-name="Layer 1"><g id="Group_1427" data-name="Group 1427" class="cls-1"><path id="Path_4494" data-name="Path 4494" class="cls-2" d="M344.36,223.49c0,74.44-42.63,153.42-121.61,153.42-55.7,0-91.5-40.9-91.5-103.41,0-86.94,52.29-152.29,121.62-152.29a118.75,118.75,0,0,1,20.45,1.7,11.14,11.14,0,0,0,13.07-8.52C291.5,91.67,302.3,40,306.84,17.21a11.64,11.64,0,0,0-9.09-13.63,239.89,239.89,0,0,0-35.23-2.27C113.07,1.31,0,121.21,0,279.75,0,406.47,90.35,498,214.79,498c146.6,0,261.39-122.17,261.39-278.45a281.36,281.36,0,0,0-4.54-50c-1.13-6.82-8-10.79-14.78-8.52L351.74,195.08a11.61,11.61,0,0,0-8,11.93,151.1,151.1,0,0,1,.58,16.48"/><path id="Path_4495" data-name="Path 4495" class="cls-2" d="M428.45,39.39C408,19.5,381.29,5.85,349.47.18c-6.82-1.15-13.64,3.4-14.78,9.65C327.31,43.35,306.85,141.09,300,174.06a6.45,6.45,0,0,0,8.53,7.38l155.14-50.58c6.24-2.27,10.22-8.51,8.51-14.76C464.26,86,449.48,59.84,428.45,39.38"/></g></g></g></svg>