<?xml version="1.0" encoding="UTF-8" standalone="no"?>
<svg
   xmlns:dc="http://purl.org/dc/elements/1.1/"
   xmlns:cc="http://creativecommons.org/ns#"
   xmlns:rdf="http://www.w3.org/1999/02/22-rdf-syntax-ns#"
   xmlns:svg="http://www.w3.org/2000/svg"
   xmlns="http://www.w3.org/2000/svg"
   xmlns:sodipodi="http://sodipodi.sourceforge.net/DTD/sodipodi-0.dtd"
   xmlns:inkscape="http://www.inkscape.org/namespaces/inkscape"
   width="85"
   height="80"
   viewBox="0 0 84.999999 80.000001"
   version="1.1"
   id="svg18"
   sodipodi:docname="basket-blue.svg"
   inkscape:version="0.92.1 r15371">
  <metadata
     id="metadata22">
    <rdf:RDF>
      <cc:Work
         rdf:about="">
        <dc:format>image/svg+xml</dc:format>
        <dc:type
           rdf:resource="http://purl.org/dc/dcmitype/StillImage" />
        <dc:title />
      </cc:Work>
    </rdf:RDF>
  </metadata>
  <sodipodi:namedview
     pagecolor="#ffffff"
     bordercolor="#666666"
     borderopacity="1"
     objecttolerance="10"
     gridtolerance="10"
     guidetolerance="10"
     inkscape:pageopacity="0"
     inkscape:pageshadow="2"
     inkscape:window-width="1366"
     inkscape:window-height="705"
     id="namedview20"
     showgrid="false"
     inkscape:zoom="3.9159034"
     inkscape:cx="14.671579"
     inkscape:cy="46.130081"
     inkscape:window-x="-8"
     inkscape:window-y="-8"
     inkscape:window-maximized="1"
     inkscape:current-layer="svg18" />
  <defs
     id="defs4">
    <style
       id="style2">.a{opacity:0.107;}.b{fill:#41bbe7;}</style>
  </defs>
  <g
     class="a"
     transform="matrix(0.11700741,0,0,0.11693372,-137.05125,-117.37332)"
     id="g16"
     style="opacity:1;fill:#1cb0e6;fill-opacity:1">
    <path
       class="b"
       d="m 1898.374,1169.587 a 10.292,10.292 0 0 0 -1.132,-4.708 L 1817.551,1009.8 a 10.3,10.3 0 0 0 -9.157,-5.6 h -538.483 a 10.283,10.283 0 0 0 -8.947,5.2 l -88.315,155.082 a 10.247,10.247 0 0 0 -1.345,5.094 98.7,98.7 0 0 0 86.151,97.734 v 408.435 a 10.3,10.3 0 0 0 20.594,0 v -407.967 a 98.706,98.706 0 0 0 80.186,-54.57 98.388,98.388 0 0 0 176.605,-0.022 98.4,98.4 0 0 0 176.626,0 98.655,98.655 0 0 0 80.164,54.593 v 255.527 h -286.7 V 1309.59 a 10.3,10.3 0 0 0 -20.594,0 v 366.166 a 10.3,10.3 0 0 0 20.594,0 v -131.865 h 286.7 v 131.865 a 10.3,10.3 0 0 0 20.594,0 v -408.435 a 98.687,98.687 0 0 0 86.15,-97.734 z m -628.463,78.013 a 78.1,78.1 0 0 1 -77.963,-75.368 l 83.95,-147.43 h 74.03 l -2.005,144.785 a 78.1,78.1 0 0 1 -78.012,78.013 z m 176.625,0 a 78.1,78.1 0 0 1 -78.013,-77.982 l 2.006,-144.816 h 154.014 v 144.785 a 78.1,78.1 0 0 1 -78.006,78.013 z m 176.612,0 a 78.1,78.1 0 0 1 -78.012,-78.013 V 1024.8 h 158.032 l -2,144.785 a 78.107,78.107 0 0 1 -78.019,78.015 z m 176.628,0 a 78.072,78.072 0 0 1 -78.014,-77.874 l 2.005,-144.924 h 78.333 l 75.637,147.206 a 78.091,78.091 0 0 1 -77.961,75.592 z"
       id="path6"
       inkscape:connector-curvature="0"
       style="fill:#1cb0e6;fill-opacity:1" />
    <path
       class="b"
       d="m 1323.89,1054.659 -99.079,99.079 a 10.294415,10.294415 0 0 0 14.563,14.554 l 99.079,-99.071 a 10.3,10.3 0 0 0 -14.562,-14.562 z"
       transform="translate(316.393,297.194)"
       id="path8"
       inkscape:connector-curvature="0"
       style="fill:#1cb0e6;fill-opacity:1" />
    <path
       class="b"
       d="m 1237.709,1072.487 -6.09,6.1 a 10.3,10.3 0 1 0 14.576,14.554 l 6.09,-6.089 a 10.30184,10.30184 0 0 0 -14.576,-14.562 z"
       transform="translate(359.115,408.971)"
       id="path10"
       inkscape:connector-curvature="0"
       style="fill:#1cb0e6;fill-opacity:1" />
    <path
       class="b"
       d="m 1237.055,1165.495 a 10.3,10.3 0 0 0 14.562,0 l 96.274,-96.273 a 10.3,10.3 0 0 0 -14.562,-14.562 l -96.274,96.274 a 10.288,10.288 0 0 0 0,14.561 z"
       transform="translate(393.107,297.194)"
       id="path12"
       inkscape:connector-curvature="0"
       style="fill:#1cb0e6;fill-opacity:1" />
    <path
       class="b"
       d="m 1250.412,1067.346 h -38.774 a 10.3,10.3 0 1 0 0,20.593 h 38.774 a 10.3,10.3 0 0 0 0,-20.593 z"
       transform="translate(188.227,395.647)"
       id="path14"
       inkscape:connector-curvature="0"
       style="fill:#1cb0e6;fill-opacity:1" />
  </g>
</svg>
