<?xml version="1.0" encoding="UTF-8" standalone="no"?>
<svg
   xmlns:dc="http://purl.org/dc/elements/1.1/"
   xmlns:cc="http://creativecommons.org/ns#"
   xmlns:rdf="http://www.w3.org/1999/02/22-rdf-syntax-ns#"
   xmlns:svg="http://www.w3.org/2000/svg"
   xmlns="http://www.w3.org/2000/svg"
   xmlns:sodipodi="http://sodipodi.sourceforge.net/DTD/sodipodi-0.dtd"
   xmlns:inkscape="http://www.inkscape.org/namespaces/inkscape"
   width="592"
   height="697"
   viewBox="0 0 592 697"
   version="1.1"
   id="svg32"
   sodipodi:docname="big-o.svg"
   inkscape:version="0.92.1 r15371">
  <metadata
     id="metadata36">
    <rdf:RDF>
      <cc:Work
         rdf:about="">
        <dc:format>image/svg+xml</dc:format>
        <dc:type
           rdf:resource="http://purl.org/dc/dcmitype/StillImage" />
        <dc:title></dc:title>
      </cc:Work>
    </rdf:RDF>
  </metadata>
  <sodipodi:namedview
     pagecolor="#ffffff"
     bordercolor="#666666"
     borderopacity="1"
     objecttolerance="10"
     gridtolerance="10"
     guidetolerance="10"
     inkscape:pageopacity="0"
     inkscape:pageshadow="2"
     inkscape:window-width="1366"
     inkscape:window-height="705"
     id="namedview34"
     showgrid="false"
     inkscape:zoom="0.59469493"
     inkscape:cx="242.10224"
     inkscape:cy="344.62224"
     inkscape:window-x="-8"
     inkscape:window-y="-8"
     inkscape:window-maximized="1"
     inkscape:current-layer="g28" />
  <defs
     id="defs4">
    <style
       id="style2">.a,.b{fill:#fff;}.a{font-size:65px;font-family:Poppins-Medium, Poppins;font-weight:500;letter-spacing:0.05em;}</style>
  </defs>
  <g
     style="fill:#221f1f;fill-opacity:1"
     id="g28"
     transform="translate(-27.33189,464.16745)">
    <g
       id="g4503"
       transform="matrix(10.781728,0,0,12.266116,-361.00076,-2381.8532)"
       style="fill:#5ecbf4;fill-opacity:1;opacity:0.139">
      <path
         class="b"
         d="m 75.749,181.948 c 0,8.546 -4.893,17.613 -13.961,17.613 -6.394,0 -10.5,-4.7 -10.5,-11.872 0,-9.981 6,-17.483 13.962,-17.483 a 13.611,13.611 0 0 1 2.348,0.2 1.278,1.278 0 0 0 1.5,-0.979 c 0.587,-2.609 1.826,-8.546 2.348,-11.154 A 1.336,1.336 0 0 0 70.4,156.7 27.438,27.438 0 0 0 66.356,156.438 c -17.158,0 -30.138,13.765 -30.138,31.966 0,14.547 10.372,25.05 24.658,25.05 16.83,0 30.008,-14.026 30.008,-31.966 a 32.407,32.407 0 0 0 -0.522,-5.739 1.269,1.269 0 0 0 -1.7,-0.979 L 76.6,178.686 a 1.333,1.333 0 0 0 -0.914,1.371 17.382,17.382 0 0 1 0.066,1.891"
         transform="translate(0,0.053)"
         id="path24"
         inkscape:connector-curvature="0"
         style="fill:#5ecbf4;fill-opacity:1" />
      <path
         class="b"
         d="m 73.279,160.865 a 17.093,17.093 0 0 0 -9.067,-4.5 1.482,1.482 0 0 0 -1.7,1.108 c -0.847,3.85 -3.2,15.069 -3.98,18.854 a 0.742,0.742 0 0 0 0.979,0.847 l 17.811,-5.806 a 1.445,1.445 0 0 0 0.977,-1.7 18.818,18.818 0 0 0 -5.023,-8.807"
         transform="translate(12.123)"
         id="path26"
         inkscape:connector-curvature="0"
         style="fill:#5ecbf4;fill-opacity:1" />
    </g>
  </g>
</svg>
