<svg xmlns="http://www.w3.org/2000/svg" width="89.621" height="80.928" viewBox="0 0 89.621 80.928">
  <g id="Group_1433" data-name="Group 1433" transform="translate(3287 -1897)">
    <g id="Group_1405" data-name="Group 1405" transform="translate(-3261.92 1938.807)">
      <path id="Path_4408" data-name="Path 4408" d="M1519.313,907.2a4.18,4.18,0,0,1-4.175-4.175V880.169a4.174,4.174,0,1,1,8.349,0v22.858A4.179,4.179,0,0,1,1519.313,907.2Zm0-28.784a1.753,1.753,0,0,0-1.751,1.75v22.858a1.75,1.75,0,1,0,3.5,0V880.169A1.752,1.752,0,0,0,1519.313,878.418Z" transform="translate(-1499.476 -875.994)" fill="#1cb0e6"/>
      <path id="Path_4409" data-name="Path 4409" d="M1501,907.2a4.181,4.181,0,0,1-4.175-4.175V880.169a4.175,4.175,0,0,1,8.351,0v22.858A4.18,4.18,0,0,1,1501,907.2Zm0-28.784a1.753,1.753,0,0,0-1.751,1.75v22.858a1.751,1.751,0,0,0,3.5,0V880.169A1.753,1.753,0,0,0,1501,878.418Z" transform="translate(-1496.829 -875.994)" fill="#1cb0e6"/>
      <path id="Path_4410" data-name="Path 4410" d="M1537.62,907.2a4.181,4.181,0,0,1-4.175-4.175V880.169a4.175,4.175,0,0,1,8.351,0V886a1.212,1.212,0,0,1-2.424,0v-5.832a1.751,1.751,0,0,0-3.5,0v22.858a1.751,1.751,0,1,0,3.5,0V890.138a1.212,1.212,0,0,1,2.424,0v12.888A4.18,4.18,0,0,1,1537.62,907.2Z" transform="translate(-1502.122 -875.994)" fill="#1cb0e6"/>
    </g>
    <path id="Path_4411" data-name="Path 4411" d="M1554.953,853.691h-7.032l-25.47-25.471a3.752,3.752,0,1,0-5.306,5.305l20.164,20.166h-49.917l20.164-20.166a3.752,3.752,0,1,0-5.306-5.305l-25.469,25.471h-7.09a2.18,2.18,0,0,0-2.179,2.178v4.84a2.181,2.181,0,0,0,2.179,2.179h.45c.011,0,.022,0,.033,0a5.143,5.143,0,0,1,5.137,5.137v20.239l-.044,7.5a12.3,12.3,0,0,0,12.283,12.283h49.631a12.3,12.3,0,0,0,12.283-12.283v0l-.036-27.735a5.143,5.143,0,0,1,5.137-5.137c.012,0,.022,0,.033,0h.355a2.181,2.181,0,0,0,2.179-2.179v-4.84A2.18,2.18,0,0,0,1554.953,853.691Zm-36.095-21.879a1.328,1.328,0,0,1,1.878-1.878l23.755,23.757h-3.754Zm-14.895-1.878a1.328,1.328,0,0,1,1.877,1.878l-21.878,21.879h-3.755Zm43.076,65.833a9.87,9.87,0,0,1-9.859,9.859H1487.55a9.869,9.869,0,0,1-9.859-9.852l.044-7.5V868.028a7.537,7.537,0,0,0-2.017-5.137h73.3a7.535,7.535,0,0,0-2.018,5.137v16.234Zm7.668-35.3h-84.772v-4.348h84.772Z" transform="translate(-4754.511 1069.879)" fill="#1cb0e6"/>
  </g>
</svg>
