<?xml version="1.0" encoding="utf-8"?>
<!-- Generator: Adobe Illustrator 23.0.2, SVG Export Plug-In . SVG Version: 6.00 Build 0)  -->
<svg version="1.1" id="Layer_1" xmlns="http://www.w3.org/2000/svg" xmlns:xlink="http://www.w3.org/1999/xlink" x="0px" y="0px"
	 viewBox="0 0 97 61.4" style="enable-background:new 0 0 97 61.4;" xml:space="preserve">
<style type="text/css">
	.st0{fill:#3C465A;}
</style>
<path class="st0" d="M89.8,38.7h-9.7c-0.3,0-0.6-0.3-0.6-0.6V11.4c0-0.3,0.3-0.6,0.6-0.6h9.7c0.7,0,1.2-0.6,1.2-1.2
	c0-0.7-0.6-1.2-1.2-1.2h-9.7c-1.7,0-3.1,1.4-3.1,3.1v1.4h-6.1c-0.7,0-1.2,0.6-1.2,1.2c0,0.7,0.6,1.2,1.2,1.2H77v18.9h-5.8
	c-0.3,0-0.6,0.1-0.8,0.3L60,44.1c-0.5,0.5-0.5,1.3-0.1,1.8c0.2,0.3,0.6,0.4,0.9,0.4c0.3,0,0.6-0.1,0.8-0.3l10-9.3H77v1.4
	c0,1.7,1.4,3.1,3.1,3.1h9.7c0.7,0,1.2-0.6,1.2-1.2S90.5,38.7,89.8,38.7z"/>
<path class="st0" d="M56.2,47.6l-7.4,6.8c-1.6,1.5-4.1,0.3-4.1-1.9c0-0.6,0.3-1.2,0.8-1.7l0,0c0.5-0.5,0.5-1.3,0.1-1.8
	c-0.5-0.5-1.3-0.5-1.8-0.1c0,0,0,0,0,0l-1.6,1.5c-1.6,1.5-4.1,0.3-4.1-1.9c0-0.6,0.3-1.2,0.8-1.7l0,0c0.5-0.5,0.5-1.3,0.1-1.8
	c-0.5-0.5-1.3-0.5-1.8-0.1c0,0,0,0,0,0L35.4,47c-1.6,1.5-4.1,0.3-4.1-1.8c0-0.6,0.3-1.2,0.8-1.7l0.7-0.6c0,0,0,0,0,0l0,0
	c0.5-0.5,0.5-1.3,0.1-1.8c-0.5-0.5-1.3-0.5-1.8-0.1c-0.4,0.3-0.8,0.6-1.3,0.6c-0.8,0.1-1.6-0.2-2.1-0.7c-0.9-1-0.9-2.5,0.1-3.4
	l21.9-19.9l6.4,4.2c1.8,1.2,4,1.7,6.1,1.3c2.1-0.4,4-1.6,5.3-3.4l0.8-1.1c0.7-1,0.5-2.4-0.5-3L51.2,4c-0.2-0.1-0.5-0.2-0.7-0.2H38
	c-1,0-1.9,0.3-2.6,0.8l-2.2,1.6c-0.6,0.4-0.7,1.2-0.3,1.7c0.4,0.6,1.2,0.7,1.7,0.3l2.2-1.6c0.4-0.2,0.8-0.4,1.2-0.4h12.2l16,11.1
	l-0.6,0.9c-1.8,2.6-5.4,3.2-8,1.5l-7.2-4.8c0,0,0,0,0,0c0,0,0,0,0,0c-0.5-0.3-1.1-0.2-1.5,0.1l-16,14.6c0,0,0,0,0,0l-6.6,6
	c-0.3,0.3-0.6,0.7-0.9,1c-0.1-1.4-1.3-2.5-2.7-2.5H20V15.3h3.8c0,0.1-0.1,0.3-0.1,0.4c-0.1,0.7,0.3,1.3,1,1.5c0.1,0,0.2,0,0.2,0
	c0.6,0,1.1-0.4,1.2-1c0.1-0.5,0.3-1,0.5-1.5c0,0,0-0.1,0.1-0.1c0.4-0.9,1.1-1.6,1.9-2.2l1.7-1.2c0.6-0.4,0.7-1.2,0.3-1.7
	c-0.4-0.6-1.2-0.7-1.7-0.3l-1.7,1.2c-1,0.7-1.7,1.5-2.3,2.5H20v-1.4c0-1.7-1.4-3.1-3.1-3.1H7.2c-0.7,0-1.2,0.6-1.2,1.2
	c0,0.7,0.6,1.2,1.2,1.2h9.7c0.3,0,0.6,0.3,0.6,0.6v2.6c0,0,0,0,0,0v21.4c0,0,0,0,0,0v2.6c0,0.3-0.3,0.6-0.6,0.6H7.2
	c-0.7,0-1.2,0.6-1.2,1.2c0,0.7,0.6,1.2,1.2,1.2h9.7c1.7,0,3.1-1.4,3.1-3.1v-1.4h2.6c0.1,0,0.2,0.1,0.2,0.2c0.1,1.1,0.2,4.4,2.4,4.7
	c0.2,0.3,0.4,0.7,0.7,1c0.8,0.9,1.9,1.4,3.1,1.5c-0.1,0.3-0.1,0.6-0.1,0.9c0,1.3,0.4,2.6,1.3,3.5c0.9,1,2.1,1.5,3.4,1.6
	c0.8,0,1.5-0.1,2.2-0.4c0.2,0.9,0.6,1.8,1.2,2.5c0.9,1,2.1,1.5,3.4,1.6c0.7,0,1.3-0.1,1.9-0.3c0.1,1,0.6,1.9,1.3,2.6
	c0.9,1,2.1,1.5,3.4,1.6c0.1,0,0.1,0,0.2,0c1.2,0,2.4-0.5,3.3-1.3l7.4-6.8c0.5-0.5,0.5-1.3,0.1-1.8C57.5,47.2,56.7,47.2,56.2,47.6z"
	/>
</svg>
