<svg xmlns="http://www.w3.org/2000/svg" width="96.978" height="61.369" viewBox="0 0 96.978 61.369">
  <g id="Group_1437" data-name="Group 1437" transform="translate(-1492 -1016)">
    <g id="Group_1394" data-name="Group 1394" transform="translate(1492 1016)">
      <path id="Path_4369" data-name="Path 4369" d="M1264.2,515.875h-11.089a.7.7,0,0,1-.7-.7V484.8a.7.7,0,0,1,.7-.7H1264.2a1.42,1.42,0,1,0,0-2.841h-11.089a3.546,3.546,0,0,0-3.542,3.543V486.4h-6.983a1.421,1.421,0,0,0,0,2.842h6.982v21.48h-6.554a1.417,1.417,0,0,0-.966.38l-11.819,10.969a1.42,1.42,0,1,0,1.933,2.082l11.41-10.589h6v1.605a3.547,3.547,0,0,0,3.544,3.543H1264.2a1.421,1.421,0,1,0,0-2.842Z" transform="translate(-1168.641 -476.053)" fill="#3c465a"/>
      <path id="Path_4370" data-name="Path 4370" d="M1225.323,525.99l-8.4,7.8a2.749,2.749,0,0,1-3.75-4.021l0,0a1.421,1.421,0,0,0-1.936-2.08h0l-1.8,1.679a2.75,2.75,0,0,1-3.748-4.024h0a1.421,1.421,0,0,0-1.936-2.081l-.006.007-2.1,1.951a2.749,2.749,0,1,1-3.745-4.024l.744-.7,0,0h0a1.421,1.421,0,0,0-1.939-2.077,2.717,2.717,0,0,1-1.489.708,2.748,2.748,0,0,1-2.271-4.721l24.93-22.656,7.259,4.827a9.472,9.472,0,0,0,13.019-2.431l.917-1.307a2.493,2.493,0,0,0-.613-3.467l-18.832-13.116a1.419,1.419,0,0,0-.812-.255h-14.306a5.173,5.173,0,0,0-3,.954L1199,478.729a1.42,1.42,0,0,0,1.639,2.32l2.513-1.776a2.342,2.342,0,0,1,1.362-.433h13.86l18.171,12.657-.712,1.016a6.666,6.666,0,0,1-9.116,1.7l-8.23-5.473-.018-.009-.021-.012a1.418,1.418,0,0,0-1.705.154l-18.182,16.595-.006.006-7.527,6.841a5.55,5.55,0,0,0-.971,1.194,3.051,3.051,0,0,0-3.052-2.836h-2.935V489.191h4.319c-.038.159-.072.319-.1.48a1.421,1.421,0,1,0,2.792.526,6.931,6.931,0,0,1,.569-1.731,1.316,1.316,0,0,0,.077-.158,6.89,6.89,0,0,1,2.16-2.483l1.943-1.373a1.42,1.42,0,1,0-1.639-2.32l-1.944,1.373a9.74,9.74,0,0,0-2.673,2.846h-5.5v-1.6a3.547,3.547,0,0,0-3.542-3.543h-11.089a1.42,1.42,0,1,0,0,2.841h11.089a.7.7,0,0,1,.7.7v30.374a.7.7,0,0,1-.7.7h-11.089a1.421,1.421,0,1,0,0,2.842h11.089a3.547,3.547,0,0,0,3.542-3.544v-1.6H1187a.22.22,0,0,1,.222.2c.057,1.273.227,5.007,2.721,5.4a5.58,5.58,0,0,0,4.37,2.854,5.732,5.732,0,0,0-.134,1.042,12.531,12.531,0,0,1,9.286,8.15,5.6,5.6,0,0,1,7.488,4.426,5.55,5.55,0,0,0,3.893,1.776c.067,0,.135,0,.2,0a5.545,5.545,0,0,0,3.8-1.5l8.4-7.8a1.421,1.421,0,0,0-1.933-2.083Z" transform="translate(-1168.013 -476)" fill="#3c465a"/>
    </g>
  </g>
</svg>
