<svg xmlns="http://www.w3.org/2000/svg" xmlns:xlink="http://www.w3.org/1999/xlink" width="20" height="22" viewBox="0 0 20 22">
  <defs>
    <path id="shield_icon-a" d="M19.0908395,2.94558 C18.9537761,2.50008 18.5725996,2.19978 18.1434009,2.19978 C18.1043828,2.19978 14.1565548,2.17558 10.450839,0.11748 C10.1677079,-0.03872 9.83255269,-0.03872 9.5494216,0.11748 C5.86171408,2.16568 1.89487732,2.19978 1.85585926,2.19978 C1.42766099,2.20088 1.04648449,2.50008 0.909421028,2.94558 C-0.458212226,7.37968 -0.280129768,11.55308 1.42365913,15.01368 C3.0714221,18.35878 6.18386325,20.95698 9.75151517,21.96458 C9.83355316,21.98768 9.91659161,21.99978 10.0006305,21.99978 C10.083669,21.99978 10.1677079,21.98768 10.2487454,21.96458 C13.8163973,20.95698 16.9288385,18.35878 18.5766014,15.01368 C20.2803903,11.55308 20.4584728,7.37968 19.0908395,2.94558 M12.2941925,8.02175 L8.99966704,11.64405 L7.70606807,10.22175 C7.31488694,9.79165 6.68259417,9.79165 6.29141304,10.22175 C5.90023192,10.65185 5.90023192,11.34705 6.29141304,11.77715 L8.29233953,13.97715 C8.48742986,14.19165 8.74354845,14.29945 8.99966704,14.29945 C9.25578563,14.29945 9.51190422,14.19165 9.70699456,13.97715 L13.7088475,9.57715 C14.1000287,9.14705 14.1000287,8.45185 13.7088475,8.02175 C13.3176664,7.59165 12.6853736,7.59165 12.2941925,8.02175 M16.8167866,13.96648 C15.4681621,16.70548 12.9329883,18.85488 10.0006305,19.76128 C7.06727229,18.85488 4.53209843,16.70548 3.18347398,13.96648 C1.83985184,11.23958 1.64176012,7.93298 2.59820298,4.36678 C3.95883299,4.26998 6.98123245,3.87838 10.0006305,2.32298 C13.0190281,3.87838 16.0414276,4.26998 17.4020576,4.36678 C18.3595009,7.93298 18.1604087,11.23958 16.8167866,13.96648"/>
  </defs>
  <use fill="#31373D" fill-rule="evenodd" xlink:href="#shield_icon-a"/>
</svg>
