<svg width="220" height="123" viewBox="0 0 220 123" fill="none" xmlns="http://www.w3.org/2000/svg">
<g clip-path="url(#clip0)">
<path d="M143.995 42.355L176.539 116.655C174.216 114.332 171.065 113.027 167.779 113.027C164.494 113.027 161.343 114.332 159.02 116.655C156.697 118.978 153.546 120.283 150.26 120.283C146.975 120.283 143.824 118.978 141.501 116.655C140.351 115.505 138.985 114.592 137.483 113.97C135.98 113.347 134.369 113.027 132.742 113.027C131.116 113.027 129.505 113.347 128.002 113.97C126.5 114.592 125.134 115.505 123.984 116.655C121.661 118.978 118.51 120.283 115.224 120.283C111.939 120.283 108.788 118.978 106.465 116.655C104.142 114.332 100.991 113.027 97.706 113.027C94.4208 113.027 91.2701 114.332 88.947 116.655L121.491 42.355H143.995Z" fill="#FF5D5D"/>
<path d="M132.719 23.508L140.835 18.417C146.542 14.8357 151.02 9.59814 153.671 3.40405C153.856 2.97172 154.163 2.60313 154.556 2.34411C154.948 2.08509 155.408 1.94701 155.878 1.94701C156.224 1.94706 156.567 2.0221 156.882 2.16698C157.196 2.31187 157.476 2.52318 157.701 2.78637C157.926 3.04956 158.092 3.35837 158.186 3.69164C158.281 4.02491 158.302 4.37474 158.249 4.71703L154.949 25.808C154.419 29.1908 153.167 32.4199 151.277 35.2751C149.387 38.1304 146.904 40.5448 143.997 42.354H121.497C118.59 40.5447 116.107 38.1303 114.218 35.275C112.328 32.4198 111.076 29.1908 110.546 25.808L107.246 4.71703C107.193 4.37482 107.214 4.02508 107.309 3.69189C107.403 3.35869 107.569 3.04991 107.794 2.78674C108.019 2.52357 108.298 2.31218 108.613 2.16723C108.928 2.02228 109.27 1.9472 109.616 1.94701C110.086 1.94701 110.546 2.08509 110.938 2.34411C111.331 2.60313 111.638 2.97172 111.823 3.40405C114.474 9.59865 118.952 14.8364 124.66 18.417L132.776 23.508" fill="#FE8F8D"/>
<path d="M143.994 44.302H121.494C121.13 44.3022 120.774 44.2003 120.465 44.008C117.319 42.0518 114.633 39.4401 112.589 36.351C110.544 33.2618 109.191 29.7681 108.62 26.1081L105.32 5.01797C105.223 4.39755 105.261 3.7635 105.433 3.15933C105.604 2.55515 105.904 1.99518 106.312 1.51797C106.72 1.04135 107.226 0.658777 107.796 0.396387C108.365 0.133997 108.985 -0.00199959 109.612 -0.00205035C110.464 -0.00285822 111.297 0.246651 112.008 0.715479C112.719 1.18431 113.277 1.85187 113.612 2.63503C116.098 8.47056 120.316 13.4026 125.694 16.765L132.751 21.193L139.809 16.767C145.186 13.4034 149.403 8.47172 151.89 2.63699C152.225 1.85356 152.782 1.18585 153.494 0.716822C154.205 0.247792 155.038 -0.0018055 155.89 -0.000951719C156.517 -0.000777428 157.137 0.135165 157.707 0.39773C158.276 0.660295 158.782 1.04325 159.19 1.52004C159.598 1.9971 159.899 2.55704 160.07 3.16128C160.241 3.76552 160.279 4.39969 160.181 5.02004L156.881 26.111C156.31 29.7711 154.956 33.265 152.911 36.3542C150.867 39.4433 148.18 42.0549 145.034 44.011C144.722 44.2039 144.361 44.3048 143.994 44.302ZM122.059 40.408H143.425C145.977 38.7325 148.15 36.541 149.803 33.9748C151.457 31.4085 152.554 28.5242 153.025 25.508L156.325 4.41702C156.337 4.35288 156.334 4.28698 156.316 4.22415C156.299 4.16132 156.268 4.10313 156.225 4.05398C156.17 4.00557 156.105 3.96988 156.035 3.94937C155.964 3.92885 155.89 3.92407 155.818 3.93533C155.746 3.94659 155.677 3.97365 155.616 4.01455C155.555 4.05546 155.504 4.10919 155.466 4.17202C152.667 10.7354 147.924 16.2827 141.874 20.0659L134.058 24.966C133.702 25.279 133.243 25.4518 132.769 25.4521H132.725C132.25 25.4516 131.792 25.2788 131.435 24.966L123.621 20.0659C117.569 16.2823 112.824 10.7325 110.027 4.16604C109.989 4.10321 109.938 4.04935 109.877 4.00845C109.817 3.96754 109.748 3.9406 109.675 3.92935C109.603 3.91809 109.529 3.92287 109.458 3.94338C109.388 3.9639 109.323 3.99958 109.268 4.048C109.225 4.09749 109.194 4.15583 109.177 4.21877C109.16 4.28172 109.157 4.34772 109.168 4.41201L112.468 25.502C112.938 28.5184 114.034 31.403 115.686 33.9702C117.338 36.5375 119.509 38.7304 122.06 40.408H122.059Z" fill="#3C465A"/>
<path d="M150.26 122.232C148.377 122.237 146.511 121.869 144.771 121.148C143.031 120.427 141.452 119.368 140.124 118.032C138.165 116.078 135.51 114.98 132.743 114.98C129.975 114.98 127.321 116.078 125.361 118.032C122.671 120.717 119.026 122.226 115.225 122.226C111.424 122.226 107.779 120.717 105.089 118.032C103.129 116.077 100.474 114.98 97.7065 114.98C94.9387 114.98 92.2837 116.077 90.324 118.032C90.0029 118.353 89.5798 118.553 89.1274 118.595C88.6751 118.637 88.2222 118.52 87.847 118.264C87.4726 118.008 87.1993 117.629 87.0745 117.192C86.9496 116.756 86.981 116.29 87.1631 115.874L119.707 41.5739C119.859 41.227 120.108 40.932 120.425 40.7247C120.742 40.5174 121.112 40.4069 121.491 40.407H143.991C144.37 40.4071 144.74 40.5176 145.057 40.7248C145.374 40.9321 145.623 41.2271 145.775 41.5739L155.269 63.249C155.372 63.483 155.428 63.7349 155.433 63.9904C155.438 64.246 155.393 64.5001 155.3 64.7383C155.208 64.9764 155.069 65.1939 154.892 65.3783C154.715 65.5627 154.503 65.7104 154.269 65.813C154.035 65.9158 153.783 65.9715 153.527 65.9769C153.272 65.9823 153.018 65.9373 152.78 65.8445C152.542 65.7516 152.324 65.6126 152.14 65.4356C151.955 65.2587 151.808 65.0471 151.705 64.813L142.721 44.3029H122.765L93.196 111.811C95.7191 110.977 98.424 110.86 101.01 111.472C103.596 112.085 105.961 113.402 107.842 115.279C109.802 117.233 112.457 118.331 115.224 118.331C117.992 118.331 120.647 117.233 122.607 115.279C125.297 112.594 128.942 111.087 132.743 111.087C136.543 111.087 140.188 112.594 142.878 115.279C143.845 116.251 144.996 117.022 146.263 117.547C147.53 118.072 148.888 118.341 150.26 118.337C151.632 118.341 152.99 118.073 154.257 117.548C155.525 117.023 156.675 116.252 157.642 115.279C159.524 113.402 161.889 112.085 164.475 111.472C167.061 110.86 169.767 110.977 172.29 111.811L157.512 78.0689C157.409 77.835 157.353 77.5831 157.348 77.3275C157.342 77.0719 157.387 76.8177 157.48 76.5796C157.573 76.3414 157.712 76.1239 157.889 75.9395C158.066 75.7552 158.278 75.6075 158.512 75.505C158.985 75.2978 159.52 75.2868 160.001 75.4743C160.482 75.6618 160.868 76.0325 161.076 76.505L178.32 115.874C178.503 116.29 178.534 116.756 178.409 117.192C178.285 117.629 178.011 118.008 177.636 118.264C177.261 118.52 176.809 118.637 176.357 118.595C175.905 118.552 175.482 118.353 175.161 118.032C173.201 116.077 170.546 114.98 167.778 114.98C165.01 114.98 162.355 116.077 160.395 118.032C159.068 119.368 157.488 120.427 155.749 121.148C154.009 121.869 152.143 122.237 150.26 122.232Z" fill="#3C465A"/>
<path d="M121.569 75.191C121.313 75.1912 121.06 75.1408 120.824 75.043C120.587 74.9451 120.372 74.8016 120.192 74.6207C120.011 74.4398 119.867 74.2249 119.77 73.9885C119.672 73.7521 119.622 73.4988 119.622 73.243V68.887C119.622 68.6312 119.672 68.378 119.77 68.1417C119.868 67.9054 120.011 67.6908 120.192 67.51C120.373 67.3292 120.588 67.1857 120.824 67.0879C121.06 66.9901 121.313 66.9399 121.569 66.9401C121.825 66.9398 122.078 66.9899 122.314 67.0876C122.551 67.1854 122.766 67.3288 122.946 67.5096C123.127 67.6905 123.271 67.9053 123.368 68.1416C123.466 68.3779 123.516 68.6312 123.516 68.887V73.243C123.516 73.4989 123.466 73.7522 123.369 73.9886C123.271 74.2251 123.128 74.44 122.947 74.621C122.766 74.8019 122.551 74.9454 122.315 75.0432C122.078 75.141 121.825 75.1913 121.569 75.191Z" fill="#3C465A"/>
<path d="M121.569 61.408C121.313 61.4081 121.06 61.3578 120.824 61.2599C120.587 61.1621 120.372 61.0186 120.192 60.8377C120.011 60.6568 119.867 60.442 119.77 60.2056C119.672 59.9692 119.622 59.7158 119.622 59.46V42.324C119.622 42.0683 119.672 41.815 119.77 41.5788C119.868 41.3425 120.011 41.1278 120.192 40.9469C120.373 40.7661 120.588 40.6227 120.824 40.5249C121.06 40.4271 121.313 40.3769 121.569 40.377C121.825 40.3767 122.078 40.4269 122.314 40.5247C122.551 40.6224 122.766 40.7658 122.946 40.9467C123.127 41.1275 123.271 41.3423 123.368 41.5786C123.466 41.815 123.516 42.0682 123.516 42.324V59.46C123.516 59.7158 123.466 59.9692 123.368 60.2056C123.271 60.442 123.127 60.6568 122.946 60.8377C122.766 61.0186 122.551 61.1621 122.315 61.2599C122.078 61.3578 121.825 61.4081 121.569 61.408Z" fill="#3C465A"/>
</g>
<g clip-path="url(#clip1)">
<path d="M30.932 33.662L20.873 73.206L12.521 77.352L6.29099 70.415C6.29099 70.415 8.46901 14.07 25.368 13.75L30.932 33.662Z" fill="#C58D6F"/>
<path d="M16.414 20.56C16.3356 22.1579 16.4779 23.759 16.837 25.318C18.9264 34.1638 22.2155 42.6823 26.613 50.637L30.931 33.662L25.366 13.752C21.748 13.821 18.807 16.457 16.414 20.56Z" fill="#B1785D"/>
<path d="M85.222 33.662L95.282 73.206L103.634 77.352L109.866 70.415C109.866 70.415 107.686 14.07 90.789 13.75L85.222 33.662Z" fill="#DFAE96"/>
<path d="M99.738 20.56C99.8165 22.1579 99.6742 23.759 99.315 25.318C97.2256 34.1638 93.9365 42.6824 89.539 50.637L85.222 33.662L90.7869 13.752C94.4049 13.821 97.345 16.457 99.738 20.56Z" fill="#C58D6F"/>
<path d="M60.025 10.398H30.976C28.093 11.1281 25.6103 12.9576 24.0591 15.495C22.5079 18.0324 22.0115 21.0762 22.676 23.975C25.056 34.319 29.699 45.375 37.776 57.537L46.0699 62.962L51.353 57.537L74.234 28.319L60.025 10.398Z" fill="#C58D6F"/>
<path d="M85.185 10.398H60.024L58.076 17.735V33.662L51.347 42.371V57.536L58.0779 62.052L78.3859 57.536C86.4599 45.377 91.099 34.32 93.486 23.975C94.1505 21.0761 93.6539 18.0322 92.1025 15.4947C90.5511 12.9573 88.0682 11.1279 85.185 10.398Z" fill="#DFAE96"/>
<path d="M43.6619 1.80601H72.497L71.6509 17.729L58.0789 33.662L44.5049 17.725L43.6619 1.80601Z" fill="#B1785D"/>
<path d="M84.7711 8.72199C81.7931 1.24999 72.4951 1.80695 72.4951 1.80695L58.0781 33.663C58.0781 33.663 64.847 25.484 74.228 28.32C75.1541 28.6089 76.1539 28.5506 77.0401 28.1558C77.9263 27.761 78.6384 27.0568 79.043 26.175L84.629 13.831C84.9943 13.0325 85.1951 12.1686 85.2195 11.2909C85.2439 10.4132 85.0915 9.53952 84.7711 8.72199Z" fill="#FEDAAD"/>
<path d="M31.384 8.72199C34.36 1.24999 43.66 1.80695 43.66 1.80695L58.077 33.663C58.077 33.663 51.308 25.484 41.926 28.32C40.9998 28.6087 40.0002 28.5503 39.114 28.1555C38.2278 27.7607 37.5157 27.0567 37.1109 26.175L31.5249 13.831C31.1595 13.0325 30.9587 12.1686 30.9345 11.2908C30.9103 10.4131 31.0631 9.53939 31.384 8.72199Z" fill="#FEDAAD"/>
<path d="M51.3451 63.068L37.769 66.568C37.769 66.568 25.523 79.938 20.175 110.632C20.175 110.632 30.5051 119.05 51.3451 120.614L59.245 93.502L51.3451 63.068Z" fill="#C58D6F"/>
<path d="M95.98 110.631C95.98 110.631 83.422 120.861 58.08 120.861C55.727 120.861 53.48 120.773 51.348 120.613V63.068L58.08 61.334L78.387 66.566C78.387 66.566 90.631 79.936 95.98 110.631Z" fill="#DFAE96"/>
<path d="M68.1919 46.684C68.1919 47.396 67.9808 48.092 67.5852 48.684C67.1897 49.2761 66.6274 49.7375 65.9696 50.01C65.3118 50.2824 64.588 50.3538 63.8897 50.2149C63.1913 50.076 62.5499 49.733 62.0464 49.2296C61.5429 48.7261 61.2001 48.0846 61.0612 47.3863C60.9223 46.688 60.9935 45.9642 61.266 45.3064C61.5385 44.6485 61.9999 44.0863 62.5919 43.6907C63.184 43.2951 63.8799 43.084 64.5919 43.084C65.5463 43.0853 66.4613 43.4651 67.1361 44.1399C67.811 44.8148 68.1906 45.7296 68.1919 46.684Z" fill="#B1785D"/>
<path d="M68.1919 79.168C68.1919 79.88 67.9808 80.5761 67.5852 81.1681C67.1897 81.7601 66.6274 82.2215 65.9696 82.4939C65.3118 82.7664 64.588 82.8377 63.8897 82.6988C63.1913 82.5599 62.5499 82.2171 62.0464 81.7136C61.5429 81.2101 61.2001 80.5687 61.0612 79.8703C60.9223 79.172 60.9935 78.4481 61.266 77.7903C61.5385 77.1325 61.9999 76.5703 62.5919 76.1747C63.184 75.7792 63.8799 75.568 64.5919 75.568C65.5467 75.568 66.4623 75.9473 67.1375 76.6224C67.8126 77.2976 68.1919 78.2132 68.1919 79.168Z" fill="#B1785D"/>
<path d="M68.1919 97.469C68.1919 98.181 67.9808 98.877 67.5852 99.469C67.1897 100.061 66.6274 100.522 65.9696 100.795C65.3118 101.067 64.588 101.139 63.8897 101C63.1913 100.861 62.5499 100.518 62.0464 100.015C61.5429 99.5111 61.2001 98.8696 61.0612 98.1713C60.9223 97.473 60.9935 96.7492 61.266 96.0913C61.5385 95.4335 61.9999 94.8713 62.5919 94.4757C63.184 94.0801 63.8799 93.869 64.5919 93.869C65.5467 93.869 66.4623 94.2483 67.1375 94.9234C67.8126 95.5986 68.1919 96.5143 68.1919 97.469Z" fill="#B1785D"/>
<path d="M114.307 78.083L113.28 72.737C113.208 72.3602 113.063 72.0012 112.852 71.6806C112.642 71.36 112.37 71.0841 112.052 70.8686C111.735 70.653 111.379 70.5021 111.003 70.4245C110.627 70.3468 110.24 70.344 109.863 70.416L95.2801 73.207C94.5196 73.3528 93.8481 73.7947 93.4133 74.4354C92.9784 75.0762 92.8158 75.8634 92.9611 76.624L93.9841 81.97C94.056 82.3468 94.2015 82.7058 94.4123 83.0265C94.623 83.3471 94.8949 83.623 95.2123 83.8386C95.5297 84.0541 95.8864 84.205 96.2621 84.2826C96.6379 84.3602 97.0252 84.3631 97.402 84.291L111.985 81.501C112.746 81.3556 113.418 80.9139 113.854 80.2729C114.289 79.6319 114.452 78.8442 114.307 78.083Z" fill="#FEDAAD"/>
<path d="M1.848 78.083L2.86997 72.737C2.94194 72.36 3.08752 72.001 3.29832 71.6803C3.50912 71.3596 3.78104 71.0836 4.09855 70.868C4.41607 70.6525 4.77294 70.5016 5.14878 70.4241C5.52463 70.3465 5.91208 70.3438 6.28898 70.416L20.871 73.206C21.6318 73.3516 22.3036 73.7933 22.7388 74.4341C23.174 75.0748 23.337 75.8621 23.192 76.623L22.168 81.969C22.0959 82.3459 21.9503 82.7049 21.7394 83.0255C21.5286 83.3461 21.2567 83.622 20.9392 83.8376C20.6217 84.0531 20.2649 84.204 19.8891 84.2816C19.5133 84.3592 19.1259 84.3621 18.749 84.29L4.166 81.5C3.40553 81.3542 2.73411 80.9123 2.29942 80.2715C1.86472 79.6307 1.70236 78.8435 1.848 78.083Z" fill="#FEDAAD"/>
<path d="M37.769 57.536H78.385V66.566H37.769V57.536Z" fill="#B1785D"/>
<path d="M64.5891 41.283C63.521 41.283 62.477 41.5997 61.5889 42.193C60.7009 42.7864 60.0088 43.6298 59.6 44.6165C59.1913 45.6032 59.0844 46.689 59.2928 47.7365C59.5012 48.784 60.0155 49.7462 60.7707 50.5014C61.5259 51.2566 62.4881 51.7709 63.5356 51.9792C64.5831 52.1876 65.6687 52.0806 66.6555 51.6719C67.6422 51.2632 68.4856 50.5711 69.0789 49.6831C69.6723 48.7951 69.989 47.751 69.989 46.683C69.9868 45.2515 69.4173 43.8792 68.4051 42.867C67.3929 41.8548 66.0206 41.2851 64.5891 41.283ZM64.5891 48.492C64.2317 48.4918 63.8824 48.3857 63.5854 48.187C63.2884 47.9883 63.0569 47.706 62.9202 47.3758C62.7836 47.0456 62.748 46.6823 62.8178 46.3318C62.8877 45.9814 63.0599 45.6595 63.3127 45.4069C63.5654 45.1543 63.8874 44.9823 64.2379 44.9126C64.5884 44.843 64.9517 44.8789 65.2818 45.0157C65.6119 45.1525 65.8941 45.3841 66.0926 45.6812C66.2911 45.9783 66.397 46.3276 66.397 46.685C66.3965 47.1642 66.2058 47.6237 65.8668 47.9625C65.5278 48.3013 65.0683 48.4917 64.5891 48.492Z" fill="#3C465A"/>
<path d="M64.5891 73.769C63.521 73.769 62.477 74.0857 61.5889 74.6791C60.7009 75.2725 60.0088 76.1158 59.6 77.1025C59.1913 78.0892 59.0844 79.175 59.2928 80.2225C59.5012 81.27 60.0155 82.2322 60.7707 82.9874C61.5259 83.7426 62.4881 84.2569 63.5356 84.4652C64.5831 84.6736 65.6687 84.5667 66.6555 84.158C67.6422 83.7493 68.4856 83.0571 69.0789 82.1691C69.6723 81.2811 69.989 80.237 69.989 79.169C69.9871 77.7374 69.4176 76.365 68.4053 75.3527C67.3931 74.3404 66.0207 73.7708 64.5891 73.769ZM64.5891 80.976C64.2317 80.9758 63.8824 80.8697 63.5854 80.671C63.2884 80.4723 63.0569 80.19 62.9202 79.8598C62.7836 79.5296 62.748 79.1663 62.8178 78.8159C62.8877 78.4654 63.0599 78.1435 63.3127 77.8909C63.5654 77.6383 63.8874 77.4663 64.2379 77.3966C64.5884 77.327 64.9517 77.3629 65.2818 77.4996C65.6119 77.6364 65.8941 77.868 66.0926 78.1652C66.2911 78.4623 66.397 78.8117 66.397 79.169C66.3965 79.6483 66.2058 80.1077 65.8668 80.4465C65.5278 80.7853 65.0683 80.9758 64.5891 80.976Z" fill="#3C465A"/>
<path d="M64.5891 92.066C63.521 92.066 62.477 92.3827 61.5889 92.9761C60.7009 93.5694 60.0088 94.4128 59.6 95.3995C59.1913 96.3862 59.0844 97.472 59.2928 98.5195C59.5012 99.567 60.0155 100.529 60.7707 101.284C61.5259 102.04 62.4881 102.554 63.5356 102.762C64.5831 102.971 65.6687 102.864 66.6555 102.455C67.6422 102.046 68.4856 101.354 69.0789 100.466C69.6723 99.578 69.989 98.534 69.989 97.466C69.9871 96.0344 69.4176 94.662 68.4053 93.6497C67.3931 92.6374 66.0207 92.0678 64.5891 92.066ZM64.5891 99.273C64.2317 99.2728 63.8824 99.1666 63.5854 98.968C63.2884 98.7693 63.0569 98.487 62.9202 98.1568C62.7836 97.8266 62.748 97.4633 62.8178 97.1129C62.8877 96.7624 63.0599 96.4405 63.3127 96.1879C63.5654 95.9353 63.8874 95.7633 64.2379 95.6937C64.5884 95.624 64.9517 95.6598 65.2818 95.7966C65.6119 95.9334 65.8941 96.165 66.0926 96.4622C66.2911 96.7593 66.397 97.1087 66.397 97.466C66.3972 97.7036 66.3505 97.9388 66.2597 98.1583C66.1689 98.3779 66.0358 98.5774 65.8679 98.7454C65.7 98.9135 65.5006 99.0469 65.2812 99.1379C65.0618 99.2289 64.8266 99.2759 64.5891 99.276V99.273Z" fill="#3C465A"/>
<path d="M115.327 81.271C115.677 80.7611 115.923 80.1872 116.05 79.5822C116.178 78.9771 116.185 78.3528 116.071 77.745L115.049 72.4C114.88 71.5197 114.464 70.7057 113.849 70.053C113.235 69.4003 112.448 68.9359 111.579 68.714C111.072 59.7109 110.02 50.7468 108.429 41.871C104.845 22.815 99.186 12.771 91.6 12.003C90.2231 10.6556 88.5657 9.62878 86.746 8.99597C86.6638 8.67655 86.5616 8.36266 86.44 8.05603C84.074 2.11603 77.91 0 72.93 0H43.2301C38.2501 0 32.086 2.11603 29.72 8.05603C29.5988 8.36276 29.4965 8.67663 29.414 8.99597C27.5945 9.62819 25.9368 10.6539 24.559 12C16.659 12.8 10.859 23.629 7.305 44.207C7.25295 44.6636 7.37754 45.1229 7.65327 45.4907C7.929 45.8584 8.33496 46.1067 8.78791 46.1848C9.24087 46.2628 9.70651 46.1645 10.0894 45.9102C10.4722 45.6559 10.7433 45.2648 10.847 44.817C13.327 30.455 16.938 20.994 21.253 17.298C20.7409 18.8397 20.5214 20.4636 20.606 22.086C20.6454 22.8571 20.7519 23.6233 20.924 24.376C22.3353 30.4298 24.3601 36.3239 26.967 41.967L19.548 71.122L8.162 68.942C8.311 66.28 8.69901 60.442 9.55201 53.593C9.58213 53.1349 9.43604 52.6826 9.14369 52.3287C8.85133 51.9747 8.43479 51.7458 7.97926 51.6888C7.52372 51.6319 7.06365 51.7511 6.69313 52.0222C6.3226 52.2932 6.06961 52.6956 5.98597 53.147C5.12397 60.064 4.73 65.974 4.576 68.712C3.7078 68.9338 2.92056 69.3979 2.30616 70.0502C1.69176 70.7025 1.2755 71.5161 1.10597 72.396L0.083995 77.742C-0.150167 78.9708 0.112899 80.2423 0.81544 81.2772C1.51798 82.3122 2.60257 83.0261 3.831 83.262L18.414 86.054C20.582 86.467 23.935 84.888 23.935 82.305L24.957 76.96C25.124 76.0579 25.0269 75.1267 24.6772 74.2786C24.3275 73.4304 23.7402 72.7013 22.986 72.179L29.404 46.952C31.4036 50.7673 33.5964 54.4781 35.9739 58.07V65.9C33.6069 68.746 23.254 82.5 18.406 110.322C18.3517 110.636 18.3817 110.959 18.4931 111.258C18.6045 111.556 18.7932 111.82 19.04 112.022C19.48 112.382 30.0529 120.817 51.2139 122.403C53.4539 122.572 55.7621 122.657 58.0791 122.657C83.7681 122.657 96.579 112.457 97.116 112.022C97.3636 111.821 97.5529 111.557 97.6644 111.258C97.7758 110.959 97.8053 110.636 97.7499 110.322C97.0589 106.35 96.209 102.438 95.225 98.695C95.0809 98.2608 94.7768 97.8977 94.3746 97.6796C93.9724 97.4615 93.5022 97.4048 93.0596 97.5209C92.6171 97.6371 92.2354 97.9174 91.9921 98.3049C91.7489 98.6924 91.6622 99.1579 91.7499 99.607C92.6169 102.907 93.3789 106.343 94.0159 109.837C91.4016 111.566 88.6102 113.011 85.689 114.148C76.8824 117.529 67.5114 119.197 58.0791 119.064C56.4221 119.064 54.768 119.019 53.144 118.929V68.362H77.544C79.244 70.475 85.036 78.355 89.762 92.85C89.8236 93.0879 89.9332 93.3108 90.0842 93.5048C90.2351 93.6987 90.4242 93.8597 90.6397 93.9778C90.8553 94.0959 91.0927 94.1686 91.3375 94.1915C91.5822 94.2143 91.829 94.1867 92.0627 94.1105C92.2964 94.0343 92.512 93.9111 92.6962 93.7484C92.8805 93.5856 93.0294 93.387 93.1339 93.1645C93.2383 92.942 93.2962 92.7004 93.3038 92.4548C93.3114 92.2091 93.2686 91.9645 93.178 91.736C90.9785 84.7878 87.9973 78.1117 84.2919 71.836C83.0639 69.762 81.6895 67.7783 80.179 65.9V58.069C82.5552 54.4764 84.7476 50.7656 86.748 46.951L93.166 72.178C92.4082 72.6968 91.8182 73.4253 91.4681 74.2743C91.118 75.1233 91.0232 76.0559 91.195 76.958L92.217 82.303C92.4687 83.5233 93.1862 84.5975 94.217 85.2975C95.2478 85.9975 96.5108 86.2681 97.738 86.052L112.32 83.262C112.928 83.1442 113.506 82.9076 114.022 82.566C114.538 82.2243 114.981 81.7843 115.327 81.271ZM21.427 76.287L20.405 81.633C20.3471 81.9251 20.1764 82.1826 19.9298 82.3496C19.6833 82.5166 19.3807 82.5797 19.088 82.525L4.50599 79.735C4.36078 79.7073 4.22248 79.6513 4.09895 79.5701C3.97541 79.4889 3.86905 79.3841 3.78602 79.2618C3.70299 79.1395 3.64493 79.002 3.61506 78.8572C3.5852 78.7125 3.58416 78.5632 3.61201 78.418L4.636 73.073C4.68439 72.8165 4.82071 72.5849 5.02149 72.418C5.22228 72.2512 5.47493 72.1596 5.73597 72.159C5.80697 72.159 20.519 74.968 20.536 74.97C20.8276 75.029 21.0844 75.2001 21.2513 75.4463C21.4182 75.6925 21.482 75.9943 21.429 76.287H21.427ZM73.648 3.61298C76.035 3.73598 81.185 4.57899 83.101 9.38599C83.3283 9.97936 83.4355 10.612 83.4165 11.2471C83.3974 11.8823 83.2524 12.5073 82.9899 13.086L77.406 25.43C76.646 27.091 75.012 26.613 73.613 26.297C69.9073 25.4763 66.0301 26.0177 62.691 27.822L73.648 3.61298ZM69.7089 3.60199L58.076 29.302L46.446 3.60199H69.7089ZM32.742 10.809C33.014 6.10102 38.442 3.82301 42.505 3.60901L53.471 27.842C53.382 27.795 53.2921 27.75 53.2041 27.707C50.0859 26.1106 46.5315 25.5768 43.082 26.187C41.572 26.47 39.6 27.312 38.748 25.43L33.161 13.082C32.8423 12.3688 32.699 11.5898 32.743 10.81L32.742 10.809ZM30.5159 41.088C30.5079 41.068 30.5029 41.048 30.4949 41.029C28.0465 35.8037 26.1089 30.354 24.709 24.756C23.564 20.113 24.867 15.284 29.342 12.934C29.374 13.083 29.412 13.234 29.456 13.384C29.5703 13.7904 29.7154 14.1876 29.89 14.572L35.476 26.914C36.91 30.086 40.208 30.514 43.307 29.814C47.396 28.889 51.642 30.453 54.816 33.03C55.088 33.251 55.69 33.79 55.701 33.801L49.926 41.273C49.6832 41.5883 49.5514 41.975 49.551 42.373V55.74H38.737C35.6494 51.0593 32.9024 46.1627 30.517 41.088H30.5159ZM49.549 118.653C40.102 117.72 30.081 115.265 22.141 109.838C26.795 84.297 36.3489 71.181 38.6099 68.362H49.549V118.653ZM76.588 64.769H39.569V59.334H76.591L76.588 64.769ZM85.659 41.029C85.652 41.049 85.646 41.069 85.639 41.088C83.253 46.1622 80.5056 51.0585 77.418 55.739H53.143V42.984L59.421 34.86C60.9324 32.9861 62.8957 31.5274 65.1262 30.6213C67.3566 29.7151 69.7809 29.3912 72.171 29.68C75.477 30.23 79.038 30.539 80.68 26.914L86.269 14.573C86.5071 14.0464 86.6907 13.4969 86.817 12.933C88.3692 13.7552 89.6689 14.9838 90.5769 16.4875C91.4848 17.9912 91.9671 19.7134 91.972 21.47C91.962 27.865 88.315 35.363 85.66 41.029H85.659ZM89.19 41.969C91.921 35.997 95.209 28.744 95.55 22.095C95.6355 20.4765 95.4191 18.8563 94.9119 17.317C98.9789 20.828 102.439 29.474 104.892 42.502C106.461 51.245 107.496 60.0753 107.992 68.944L98.508 70.76L96.608 71.122L89.19 41.969ZM111.648 79.735L97.066 82.525C96.7733 82.5782 96.4715 82.5143 96.2255 82.3471C95.9796 82.1799 95.8092 81.9227 95.751 81.631L94.729 76.286C94.6757 75.9937 94.7394 75.6921 94.9062 75.4462C95.073 75.2002 95.3297 75.0296 95.621 74.971L110.203 72.179C110.722 72.079 111.52 72.455 111.52 73.073C111.52 73.073 112.541 78.411 112.542 78.418C112.596 78.711 112.533 79.0136 112.366 79.2603C112.199 79.5069 111.941 79.6779 111.649 79.736L111.648 79.735Z" fill="#3C465A"/>
</g>
<g clip-path="url(#clip2)">
<path d="M178.875 49.221L177.452 64.891L170.452 64.158L172.07 46.413V46.396L178.875 49.221Z" fill="#BFA885"/>
<path d="M196.381 49.221L197.803 64.891L204.803 64.158L203.186 46.413V46.396L196.381 49.221Z" fill="#795548"/>
<path d="M177.083 81.161L165.383 117.945C165.176 118.604 164.724 119.159 164.119 119.494C163.515 119.829 162.805 119.919 162.136 119.745C161.467 119.571 160.891 119.146 160.526 118.558C160.162 117.97 160.038 117.265 160.18 116.588L168.28 77.747L177.083 81.161Z" fill="#795548"/>
<path d="M206.978 77.75L215.078 116.591C215.22 117.268 215.096 117.973 214.732 118.561C214.367 119.149 213.791 119.574 213.122 119.748C212.453 119.922 211.743 119.832 211.139 119.497C210.534 119.162 210.082 118.607 209.875 117.948L198.175 81.164L206.978 77.75Z" fill="#4E342E"/>
<path d="M174.289 89.9479H200.968L203.2 96.977H172.057L174.289 89.9479Z" fill="#BFA885"/>
<path d="M215.713 24.639C214.694 34.674 209.562 50.404 187.628 50.404C186.713 50.404 185.835 50.369 184.991 50.316C165.272 49.116 160.527 34.252 159.543 24.639C159.453 23.4822 159.747 22.3282 160.38 21.3557C161.013 20.3832 161.949 19.6466 163.043 19.2601C164.397 18.7212 165.887 18.629 167.297 18.997C173.095 20.4832 179.022 21.4131 184.997 21.774C186.667 21.863 187.634 21.863 187.634 21.863C194.147 21.698 200.624 20.8263 206.949 19.263L207.968 19.0001C212.089 17.9251 216.117 20.842 215.713 24.639Z" fill="#F3A656"/>
<path d="M216.908 70.229C214.87 74.095 210.054 78.419 199.351 81.429C191.683 83.5749 183.573 83.5749 175.905 81.429C165.205 78.429 160.386 74.099 158.348 70.229C158.022 69.6028 157.829 68.916 157.781 68.2117C157.733 67.5074 157.83 66.8008 158.068 66.136C158.305 65.4712 158.677 64.8626 159.161 64.3482C159.644 63.8337 160.228 63.4244 160.877 63.146C161.853 62.7333 162.927 62.611 163.97 62.794C170.877 63.9324 177.852 64.6136 184.849 64.833H185.131C186.713 64.885 187.631 64.885 187.631 64.885C194.821 64.791 201.996 64.2096 209.107 63.145C209.828 63.045 210.548 62.917 211.287 62.793C212.241 62.6053 213.228 62.6895 214.136 63.0359C215.044 63.3823 215.837 63.9769 216.423 64.752C217.009 65.5276 217.366 66.4525 217.451 67.4209C217.537 68.3894 217.349 69.3624 216.908 70.229Z" fill="#F3A656"/>
<path d="M210.44 24.639C209.456 34.253 204.711 49.12 184.991 50.316C165.272 49.116 160.527 34.253 159.543 24.639C159.453 23.4823 159.747 22.3282 160.38 21.3557C161.013 20.3832 161.949 19.6465 163.043 19.26C169.369 20.823 175.845 21.6949 182.359 21.8601C182.359 21.8601 183.326 21.8601 184.995 21.7711C190.97 21.4103 196.897 20.4803 202.695 18.994C204.105 18.626 205.595 18.7182 206.949 19.2571C208.042 19.6454 208.976 20.3831 209.607 21.3561C210.238 22.329 210.531 23.4829 210.44 24.639Z" fill="#F9C861"/>
<path d="M211.636 70.228C209.597 74.093 204.781 78.4181 194.079 81.4281C191.113 82.2599 188.066 82.7724 184.991 82.957C181.916 82.7723 178.871 82.2598 175.905 81.4281C165.205 78.4231 160.386 74.098 158.348 70.228C158.022 69.6018 157.829 68.9151 157.781 68.2108C157.733 67.5065 157.83 66.7999 158.068 66.1351C158.305 65.4703 158.677 64.8616 159.161 64.3471C159.644 63.8327 160.228 63.4234 160.877 63.145C167.989 64.2095 175.164 64.7909 182.354 64.8851C182.354 64.8851 183.268 64.8851 184.849 64.8331H185.131C192.128 64.6134 199.103 63.9319 206.01 62.7931C207.054 62.6099 208.128 62.7321 209.104 63.145C209.753 63.4231 210.338 63.8323 210.821 64.3468C211.305 64.8613 211.677 65.4702 211.914 66.1351C212.152 66.7997 212.25 67.5063 212.202 68.2105C212.154 68.9148 211.961 69.6016 211.636 70.228Z" fill="#F9C861"/>
<path d="M210.978 61.058C209.429 61.328 207.887 61.5581 206.378 61.7581L205.031 47.6901C214.07 41.9111 216.752 31.767 217.469 24.819C217.579 23.7172 217.416 22.6055 216.996 21.5811C216.576 20.5566 215.911 19.6508 215.06 18.943C214.031 18.0804 212.809 17.4796 211.497 17.1918C210.186 16.904 208.824 16.9377 207.528 17.2901C201.022 18.9749 194.346 19.9189 187.628 20.104C180.91 19.9189 174.234 18.975 167.728 17.2901C166.432 16.9377 165.069 16.9047 163.757 17.1937C162.446 17.4828 161.223 18.0854 160.195 18.95C159.344 19.6563 158.678 20.5608 158.258 21.584C157.837 22.6072 157.674 23.718 157.782 24.819C158.5 31.764 161.182 41.9081 170.215 47.6861L168.878 61.76C167.366 61.56 165.825 61.3251 164.278 61.0601C162.97 60.8231 161.621 60.9615 160.389 61.4591C159.156 61.9568 158.089 62.7934 157.312 63.8721C156.558 64.9004 156.109 66.1207 156.018 67.3927C155.927 68.6647 156.196 69.9366 156.796 71.062C159.008 74.8213 162.32 77.811 166.286 79.627L158.454 117.127C158.223 118.245 158.43 119.409 159.033 120.379C159.636 121.348 160.589 122.049 161.694 122.335C162.799 122.622 163.972 122.473 164.971 121.918C165.969 121.364 166.716 120.448 167.057 119.358L173.337 99.615H201.924L208.203 119.35C208.541 120.444 209.288 121.366 210.288 121.923C211.288 122.48 212.465 122.63 213.573 122.342C214.681 122.054 215.636 121.349 216.237 120.375C216.839 119.401 217.042 118.232 216.804 117.112L208.98 79.6181C212.946 77.8021 216.258 74.8123 218.47 71.053C219.069 69.9273 219.338 68.6554 219.247 67.3836C219.155 66.1117 218.707 64.8915 217.953 63.8631C217.174 62.7848 216.105 61.9492 214.871 61.4528C213.637 60.9564 212.287 60.8195 210.978 61.058ZM202.894 62.188C201.685 62.3213 200.519 62.4387 199.394 62.5401L198.274 50.74C199.436 50.3992 200.575 49.9837 201.683 49.496L202.894 62.188ZM187.629 52.162C190.039 52.1707 192.445 51.9649 194.819 51.547L195.886 62.803C191.009 63.127 187.686 63.137 187.626 63.137C187.566 63.137 184.247 63.127 179.366 62.803L180.432 51.547C182.808 51.9645 185.217 52.17 187.629 52.161V52.162ZM161.284 24.4621C161.238 23.9252 161.324 23.3851 161.536 22.8895C161.747 22.3939 162.077 21.958 162.497 21.62C163.348 20.9049 164.426 20.5172 165.537 20.527C165.979 20.5303 166.42 20.5895 166.847 20.703C173.639 22.4743 180.613 23.4539 187.63 23.6221C194.647 23.4538 201.621 22.4742 208.413 20.703C209.16 20.4956 209.947 20.4716 210.706 20.633C211.464 20.7943 212.173 21.1364 212.771 21.63C213.189 21.9685 213.516 22.4046 213.726 22.8997C213.935 23.3948 214.019 23.9337 213.971 24.469C212.832 35.496 207.335 48.647 187.626 48.647C182.486 48.824 177.393 47.6233 172.873 45.1691C172.847 45.1571 172.829 45.138 172.804 45.125C164.87 40.468 162.06 31.9771 161.284 24.4611V24.4621ZM173.578 49.49C174.686 49.978 175.825 50.3936 176.987 50.734L175.867 62.5341C174.743 62.4354 173.576 62.318 172.367 62.182L173.578 49.49ZM163.703 118.301C163.643 118.49 163.524 118.655 163.364 118.771C163.204 118.888 163.01 118.95 162.812 118.948C162.675 118.949 162.539 118.919 162.416 118.861C162.292 118.802 162.183 118.716 162.097 118.609C162.008 118.502 161.944 118.377 161.909 118.243C161.874 118.108 161.87 117.967 161.897 117.831L169.557 81.11C171.319 81.8237 173.118 82.4445 174.945 82.97L163.703 118.301ZM196.903 83.838L198.567 89.0711H176.69L178.354 83.838C184.469 85.1323 190.787 85.1316 196.902 83.8361L196.903 83.838ZM174.449 96.101L175.567 92.5861H199.686L200.804 96.101H174.449ZM213.36 117.817C213.389 117.956 213.386 118.099 213.351 118.236C213.316 118.373 213.251 118.501 213.16 118.609C213.074 118.716 212.965 118.802 212.841 118.861C212.718 118.919 212.582 118.949 212.445 118.948C212.246 118.949 212.051 118.886 211.891 118.768C211.73 118.65 211.612 118.484 211.553 118.293L200.314 82.9671C202.141 82.4411 203.939 81.8195 205.7 81.105L213.36 117.817ZM215.36 69.408C213.042 73.787 207.339 77.36 198.873 79.741C191.523 81.8088 183.745 81.8088 176.395 79.741C167.929 77.36 162.226 73.787 159.907 69.408C159.613 68.8642 159.481 68.2476 159.526 67.6311C159.572 67.0146 159.793 66.4239 160.163 65.929C160.554 65.3837 161.092 64.9617 161.715 64.7125C162.338 64.4634 163.019 64.3977 163.678 64.5231C171.597 65.8445 179.606 66.5564 187.634 66.653C195.66 66.5558 203.668 65.8438 211.585 64.5231C212.244 64.398 212.925 64.4638 213.548 64.7129C214.171 64.962 214.709 65.3839 215.1 65.929C215.47 66.4238 215.691 67.0145 215.736 67.6309C215.781 68.2473 215.648 68.8636 215.354 69.407L215.36 69.408Z" fill="#3C465A"/>
</g>
<defs>
<clipPath id="clip0">
<rect width="91.486" height="122.232" fill="white" transform="translate(87)"/>
</clipPath>
<clipPath id="clip1">
<rect width="116.154" height="122.657" fill="white"/>
</clipPath>
<clipPath id="clip2">
<rect width="63.263" height="105.486" fill="white" transform="translate(156 17)"/>
</clipPath>
</defs>
</svg>
