<svg xmlns="http://www.w3.org/2000/svg" width="70.276" height="83.232"><defs><style>.a{fill:#1cb0e6}</style></defs><path class="a" d="M70.272 60.251v-.044l-.153-58.958v-.102a1.086 1.086 0 0 0-.012-.122c0-.016 0-.032-.008-.048l-.005-.016c0-.016-.01-.031-.013-.047a1.123 1.123 0 0 0-.034-.118c-.006-.015-.01-.029-.017-.043l-.012-.024-.01-.02-.016-.03c-.014-.026-.022-.054-.037-.08 0-.007-.01-.012-.014-.019l-.025-.039-.027-.034-.024-.03c-.024-.031-.048-.064-.074-.093l-.024-.026-.009-.008-.007-.009c-.006-.006-.014-.007-.02-.013l-.012-.01a1.138 1.138 0 0 0-.111-.093l-.017-.014h-.005c-.019-.012-.041-.021-.06-.032a1.365 1.365 0 0 0-.128-.07l-.042-.017-.046-.015h-.009c-.042-.014-.083-.029-.126-.039-.01 0-.019-.006-.029-.009h-.007c-.022 0-.047 0-.07-.007a1.13 1.13 0 0 0-.133-.013h-.114a1 1 0 0 0-.125.013h-.025a.993.993 0 0 0-.1.027c-.034.01-.068.019-.1.032a1.2 1.2 0 0 0-.134.062c-.019.01-.039.016-.058.027L40.071 16.926a1.226 1.226 0 1 0 1.252 2.108l20.4-12.115-37.112 38.53-18.375-5.572 24.937-14.813a1.226 1.226 0 0 0-1.252-2.108L2.593 39.188c-.028.016-.051.039-.077.057s-.063.044-.094.069a1.08 1.08 0 0 0-.086.085 1.153 1.153 0 0 0-.081.09.91.91 0 0 0-.066.1 1.012 1.012 0 0 0-.062.1 1.188 1.188 0 0 0-.049.117c-.01.027-.025.051-.034.08 0 .009 0 .018-.005.028a1.288 1.288 0 0 0-.025.128c-.006.036-.014.074-.016.11a.982.982 0 0 0 0 .123 1.052 1.052 0 0 0 0 .114 1.134 1.134 0 0 0 .024.118 1.085 1.085 0 0 0 .027.114c.012.035.029.07.044.105s.033.079.053.116c.005.008.007.017.012.026s.023.026.033.041a1.2 1.2 0 0 0 .136.174l.064.065a1.266 1.266 0 0 0 .192.142c.013.009.025.019.038.026a1.207 1.207 0 0 0 .235.1l21.243 6.443 9.427 17.8.01.015a1.225 1.225 0 0 0 .15.217l.016.016a1.3 1.3 0 0 0 .177.161c.022.016.045.029.068.043a1.238 1.238 0 0 0 .158.088l.088.035a1.177 1.177 0 0 0 .164.046c.019 0 .037.013.056.016s.043 0 .065.005l.044.008h.085a1.219 1.219 0 0 0 .837-.335l.008-.005 11.652-11.137 21.592 6.547c.012 0 .024 0 .037.006a1.225 1.225 0 0 0 .305.045h.025a1.237 1.237 0 0 0 .327-.053l.077-.024a1.245 1.245 0 0 0 .29-.149c.018-.013.032-.028.049-.041a1.221 1.221 0 0 0 .208-.211c.013-.016.029-.031.041-.049a1.2 1.2 0 0 0 .15-.3c.005-.014.015-.025.019-.039s.008-.042.013-.064.015-.068.02-.1a1.214 1.214 0 0 0 .015-.149zM37.658 49.41L67.682 5.198l.138 53.357zm-2.822-.209a1.2 1.2 0 0 0-.336.533 1.222 1.222 0 0 0-.048.318v.012l-.762 10.67-7.238-13.67L59.81 12.432zm1.219 12.807l.736-10.3 7.621 2.31z"/><path class="a" d="M50.81 61.63l-9.755 9.755a1.226 1.226 0 0 0 1.733 1.733l9.754-9.755a1.226 1.226 0 0 0-1.733-1.733zM11.259 75.727l-5.413 5.414a1.226 1.226 0 1 0 1.733 1.733l5.413-5.414a1.226 1.226 0 1 0-1.733-1.733zm13.488-13.483l-9.683 9.683a1.226 1.226 0 1 0 1.733 1.733l9.683-9.683a1.225 1.225 0 0 0-1.733-1.732zm-6.346-10.978a1.223 1.223 0 0 0-1.733 0L.36 67.576a1.225 1.225 0 0 0 1.733 1.733L18.401 53a1.224 1.224 0 0 0 0-1.734z"/></svg>