<svg xmlns="http://www.w3.org/2000/svg" width="84.011" height="84.011" viewBox="0 0 84.011 84.011">
  <g id="Group_1403" data-name="Group 1403" transform="translate(-712.355 -907.899)">
    <circle id="Ellipse_546" data-name="Ellipse 546" cx="40.723" cy="40.723" r="40.723" transform="translate(713.637 909.182)" fill="none"/>
    <g id="Group_1402" data-name="Group 1402" transform="translate(727.728 923.528)">
      <path id="Path_4400" data-name="Path 4400" d="M781.974,957.07a13.615,13.615,0,0,0-4.035-7.7,9.77,9.77,0,0,0-7.042-2.888c-1.148.02-2.3,0-3.449-.011-.8-.01-1.575-.02-2.383-.02l-.565,0a19.074,19.074,0,0,0-2.65.109,9.66,9.66,0,0,0-5.326,2.576,15.921,15.921,0,0,0-3.627,5.479c-.043.1-.074.194-.111.292-.186-.006-.367-.023-.554-.02-1.428.021-2.886,0-4.3-.014-.966-.012-1.933-.024-2.9-.024h-.042l-.711,0a22.685,22.685,0,0,0-3.232.132,11.686,11.686,0,0,0-6.44,3.116,19.459,19.459,0,0,0-4.423,6.69,12.045,12.045,0,0,0-.763,6.014,4.435,4.435,0,0,0,.346,1.28,8.167,8.167,0,0,0,3.391,4.1,2.925,2.925,0,0,0,1.437.421l2.545.006h0a1.282,1.282,0,0,0,0-2.565l-2.522-.005a.512.512,0,0,1-.154-.063,5.709,5.709,0,0,1-2.331-2.878,2.194,2.194,0,0,1-.159-.525,9.277,9.277,0,0,1,.558-4.758,16.85,16.85,0,0,1,3.811-5.832,9.172,9.172,0,0,1,5.042-2.46,20.461,20.461,0,0,1,2.872-.109l.732,0c.956.007,1.938.012,2.907.025,1.43.018,2.907.036,4.372.014a9.174,9.174,0,0,1,6.7,2.779,14.073,14.073,0,0,1,4.164,7.963,5.663,5.663,0,0,1-1.871,5.237,1.93,1.93,0,0,1-1.6.641c-2.938-.049-5.919-.04-8.8-.033l-6.4.005a1.282,1.282,0,0,0,0,2.565l6.4,0c2.875-.009,5.842-.016,8.756.032h.1a4.446,4.446,0,0,0,3.335-1.379,8.165,8.165,0,0,0,2.6-7.495,16.6,16.6,0,0,0-4.915-9.381,12.227,12.227,0,0,0-5.342-3.093,12.765,12.765,0,0,1,2.855-4.267,7.159,7.159,0,0,1,3.929-1.919,16.357,16.357,0,0,1,2.289-.085l.586,0c.8-.007,1.567.009,2.349.021,1.174.014,2.348.029,3.522.01a7.068,7.068,0,0,1,5.224,2.172,11.1,11.1,0,0,1,3.284,6.28,4.283,4.283,0,0,1-1.437,4,1.339,1.339,0,0,1-1.108.445c-2.35-.038-4.734-.033-7.042-.026v2.565c2.3,0,4.672-.011,7,.026h.087a3.862,3.862,0,0,0,2.864-1.184A6.822,6.822,0,0,0,781.974,957.07Z" transform="translate(-729.343 -927.191)" fill="#3c465a"/>
      <path id="Path_4401" data-name="Path 4401" d="M769.9,941.92c.079,0,.156,0,.234,0a8.643,8.643,0,0,0,8.464-8.107,8.491,8.491,0,0,0-2.558-6.245,8.1,8.1,0,0,0-5.993-2.4,7.843,7.843,0,0,0-5.467,2.213,8.322,8.322,0,0,0-2.743,6.029A8.6,8.6,0,0,0,769.9,941.92Zm-3.578-12.649a5.463,5.463,0,0,1,3.445-1.538c.063,0,.125,0,.186.005a1.335,1.335,0,0,0,.137,0,5.55,5.55,0,0,1,4.148,1.657,5.909,5.909,0,0,1,1.8,4.346,6,6,0,0,1-5.9,5.614l-.164,0a6.033,6.033,0,0,1-5.569-5.9A5.787,5.787,0,0,1,766.321,929.271Z" transform="translate(-732.431 -925.169)" fill="#3c465a"/>
      <path id="Path_4402" data-name="Path 4402" d="M748.022,949.488c.095,0,.188,0,.282,0a10.405,10.405,0,0,0,10.19-9.755,10.221,10.221,0,0,0-3.083-7.518,9.646,9.646,0,0,0-7.216-2.881A9.31,9.31,0,0,0,741.626,932a10.015,10.015,0,0,0-3.3,7.257A10.346,10.346,0,0,0,748.022,949.488Zm-4.654-15.606a6.99,6.99,0,0,1,4.472-1.989c.088,0,.173,0,.258.008a1.2,1.2,0,0,0,.138,0,7.155,7.155,0,0,1,5.375,2.143,7.65,7.65,0,0,1,2.319,5.618,7.524,7.524,0,0,1-15.043-.375A7.476,7.476,0,0,1,743.368,933.882Z" transform="translate(-730.196 -925.565)" fill="#3c465a"/>
    </g>
    <path id="Path_4403" data-name="Path 4403" d="M754.361,991.91A42.009,42.009,0,0,1,720.7,924.767a1.282,1.282,0,0,1,2.054,1.536,39.378,39.378,0,1,0,14.256-11.83,1.283,1.283,0,1,1-1.129-2.3,41.605,41.605,0,0,1,18.477-4.271,42.006,42.006,0,1,1,0,84.011Z" transform="translate(0 0)" fill="#3c465a"/>
  </g>
</svg>
