<svg xmlns="http://www.w3.org/2000/svg" width="476.185" height="497.956" viewBox="0 0 476.185 497.956"><defs><style>.a{opacity:0.1;}.b{fill:#5ecbf4;}</style></defs><g class="a" transform="translate(-36.216 191.821)"><path class="b" d="M380.574,30.462c0,74.438-42.625,153.422-121.608,153.422-55.694,0-91.5-40.9-91.5-103.415,0-86.943,52.292-152.292,121.621-152.292a118.565,118.565,0,0,1,20.452,1.708,11.147,11.147,0,0,0,13.07-8.525c5.11-22.724,15.907-74.439,20.452-97.176a11.651,11.651,0,0,0-9.09-13.635,240.826,240.826,0,0,0-35.229-2.272c-149.455,0-262.524,119.9-262.524,278.445,0,126.718,90.345,218.206,214.79,218.206,146.6,0,261.395-122.172,261.395-278.445a282.572,282.572,0,0,0-4.545-50.007c-1.13-6.817-7.96-10.784-14.777-8.512L387.956,2.05A11.609,11.609,0,0,0,380,13.977a151.784,151.784,0,0,1,.578,16.485" transform="translate(0 1.209)"/><path class="b" d="M187.115-152.435c-20.452-19.887-47.156-33.535-78.983-39.209-6.817-1.143-13.634,3.4-14.777,9.654C85.973-148.469,65.521-50.728,58.69-17.758a6.459,6.459,0,0,0,8.525,7.382L222.358-60.961c6.239-2.272,10.219-8.511,8.511-14.764-7.947-30.12-22.724-56.259-43.754-76.711" transform="translate(277.552 0)"/></g></svg>