<?xml version="1.0" encoding="UTF-8" standalone="no"?>
<svg
   xmlns:dc="http://purl.org/dc/elements/1.1/"
   xmlns:cc="http://creativecommons.org/ns#"
   xmlns:rdf="http://www.w3.org/1999/02/22-rdf-syntax-ns#"
   xmlns:svg="http://www.w3.org/2000/svg"
   xmlns="http://www.w3.org/2000/svg"
   xmlns:sodipodi="http://sodipodi.sourceforge.net/DTD/sodipodi-0.dtd"
   xmlns:inkscape="http://www.inkscape.org/namespaces/inkscape"
   width="410"
   height="80.026001"
   viewBox="0 0 410 80.026001"
   version="1.1"
   id="svg32"
   sodipodi:docname="logoNew1.svg"
   inkscape:version="0.92.1 r15371">
  <metadata
     id="metadata36">
    <rdf:RDF>
      <cc:Work
         rdf:about="">
        <dc:format>image/svg+xml</dc:format>
        <dc:type
           rdf:resource="http://purl.org/dc/dcmitype/StillImage" />
        <dc:title></dc:title>
      </cc:Work>
    </rdf:RDF>
  </metadata>
  <sodipodi:namedview
     pagecolor="#ffffff"
     bordercolor="#666666"
     borderopacity="1"
     objecttolerance="10"
     gridtolerance="10"
     guidetolerance="10"
     inkscape:pageopacity="0"
     inkscape:pageshadow="2"
     inkscape:window-width="1366"
     inkscape:window-height="705"
     id="namedview34"
     showgrid="false"
     inkscape:zoom="0.42051282"
     inkscape:cx="333.04658"
     inkscape:cy="44.362898"
     inkscape:window-x="-8"
     inkscape:window-y="-8"
     inkscape:window-maximized="1"
     inkscape:current-layer="svg32" />
  <defs
     id="defs4">
    <style
       id="style2">.a,.b{fill:#fff;}.a{font-size:65px;font-family:Poppins-Medium, Poppins;font-weight:500;letter-spacing:0.05em;}</style>
  </defs>
  <g
     transform="translate(-724.57931,-291.26582)"
     id="g30">
    <g
       transform="translate(694.86937,136.08122)"
       id="g28">
      <path
         class="b"
         d="M 111.155,156.779 A 19.929,19.929 0 0 0 96.8,162.52 c 0.066,-0.522 0.066,-1.108 0.131,-1.761 a 2.67,2.67 0 0 0 -2.675,-2.87 h -9.912 a 1.332,1.332 0 0 0 -1.3,1.043 l -15.2,71.5 a 1.411,1.411 0 0 0 0.587,1.436 1.324,1.324 0 0 0 0.718,0.2 h 5.48 a 9.63,9.63 0 0 0 9.395,-7.633 l 3.848,-18.593 c 2.544,3.523 7.957,7.047 16.048,7.047 16.179,0 27.921,-14.157 27.921,-33.662 0.13,-13.894 -7.829,-22.442 -20.68,-22.442 m 5.61,24.66 c 0,11.613 -7.306,17.94 -14.155,17.94 -6.459,0 -10.5,-4.5 -10.5,-11.809 0,-9.85 6.2,-17.613 14.026,-17.613 6.719,0.065 10.633,4.305 10.633,11.482"
         transform="translate(17.173,0.237)"
         id="path12"
         inkscape:connector-curvature="0"
         style="fill:#ffffff" />
      <path
         class="b"
         d="m 162.373,188.1 a 34.539,34.539 0 0 0 1.3,-9 c 0,-13.765 -9.263,-22.7 -23.615,-22.7 -14.157,0 -28.834,12 -28.834,32.16 0,14.418 10.372,24.856 24.723,24.856 14.875,0 21.4,-8.871 23.551,-12.655 a 1.468,1.468 0 0 0 0.13,-1.045 1.3,1.3 0 0 0 -0.651,-0.783 l -9.263,-4.631 a 1.338,1.338 0 0 0 -1.761,0.457 12.787,12.787 0 0 1 -11.091,5.935 c -6.849,0 -11.286,-4.5 -11.482,-11.482 l 35.684,-0.131 a 1.481,1.481 0 0 0 1.3,-0.977 M 139.8,168.793 c 7.632,0 9.656,5.482 9.656,8.743 a 6.094,6.094 0 0 1 -0.066,0.912 h -22.374 c 1.957,-6 6.719,-9.656 12.786,-9.656"
         transform="translate(40.78,0.03)"
         id="path14"
         inkscape:connector-curvature="0"
         style="fill:#ffffff" />
      <path
         class="b"
         d="m 182.893,156.568 c -5.937,0 -11.091,2.089 -14.288,5.87 0.065,-0.455 0.065,-0.977 0.131,-1.5 a 2.909,2.909 0 0 0 -0.653,-2.022 2.676,2.676 0 0 0 -2.022,-0.912 h -9.915 a 1.332,1.332 0 0 0 -1.3,1.043 l -10.765,51.079 a 1.416,1.416 0 0 0 0.588,1.436 1.311,1.311 0 0 0 0.718,0.2 h 12.2 a 1.332,1.332 0 0 0 1.3,-1.045 l 6.525,-29.942 c 1.434,-6.719 5.48,-10.7 10.829,-10.7 4.893,0 7.7,2.74 7.7,7.5 a 17.008,17.008 0 0 1 -0.326,3.066 l -5.35,25.117 a 5.029,5.029 0 0 0 1.24,4.435 5.124,5.124 0 0 0 3.783,1.567 h 7.829 a 1.122,1.122 0 0 0 1.108,-0.914 l 6.784,-31.444 a 24.836,24.836 0 0 0 0.653,-5.674 c 0,-10.5 -6.59,-17.158 -16.766,-17.158"
         transform="translate(58.62,0.122)"
         id="path16"
         inkscape:connector-curvature="0"
         style="fill:#ffffff" />
      <path
         class="b"
         d="m 219.381,156.779 a 19.925,19.925 0 0 0 -14.351,5.741 c 0.065,-0.587 0.065,-1.175 0.131,-1.826 a 3,3 0 0 0 -0.719,-1.957 2.712,2.712 0 0 0 -1.956,-0.847 h -9.916 a 1.332,1.332 0 0 0 -1.3,1.043 l -15.2,71.5 a 1.359,1.359 0 0 0 1.3,1.632 h 5.545 a 9.629,9.629 0 0 0 9.395,-7.633 l 3.85,-18.593 c 2.544,3.523 7.957,7.047 16.046,7.047 16.179,0 27.921,-14.157 27.921,-33.662 0.13,-13.894 -7.893,-22.442 -20.745,-22.442 m 5.676,24.66 c 0,11.613 -7.306,17.94 -14.157,17.94 -6.459,0 -10.5,-4.5 -10.5,-11.809 0,-9.85 6.2,-17.613 14.026,-17.613 6.655,0.065 10.634,4.305 10.634,11.482"
         transform="translate(76.016,0.237)"
         id="path18"
         inkscape:connector-curvature="0"
         style="fill:#ffffff" />
      <path
         class="b"
         d="m 267.718,211 a 1.553,1.553 0 0 0 0.195,-0.783 v -0.979 a 46.332,46.332 0 0 1 0.979,-9.524 l 8.481,-40.184 a 1.1,1.1 0 0 0 -0.065,-0.783 1.4,1.4 0 0 0 -1.24,-0.914 h -10.9 a 2.713,2.713 0 0 0 -2.609,2.153 l -0.718,3.2 c -1.5,-2.283 -5.611,-6.653 -15.2,-6.653 -15.657,0 -27.4,13.765 -27.4,32.031 0,14.09 8.675,23.94 21.071,23.94 a 16.763,16.763 0 0 0 13.7,-6.522 c -0.065,0.912 -0.13,1.891 -0.13,2.674 v 0.2 a 2.644,2.644 0 0 0 2.674,2.674 h 9.981 a 0.94,0.94 0 0 0 1.175,-0.522 m -10.177,-29.812 c 0,10.634 -5.611,18.332 -13.374,18.332 -6.263,0 -9.981,-4.24 -9.981,-11.352 0,-11.611 7.045,-17.939 13.635,-17.939 6.068,0 9.72,4.109 9.72,10.958"
         transform="translate(99.505,0.099)"
         id="path20"
         inkscape:connector-curvature="0"
         style="fill:#ffffff" />
      <path
         class="b"
         d="m 315.586,157.782 a 1.373,1.373 0 0 0 -0.849,-0.327 h -12.915 a 1.23,1.23 0 0 0 -1.175,0.719 l -18.2,33.857 -4.372,-33.4 a 1.335,1.335 0 0 0 -1.3,-1.175 h -12.791 a 0.781,0.781 0 0 0 -0.522,0.131 1.362,1.362 0 0 0 -0.783,1.5 l 8.873,50.232 a 1.066,1.066 0 0 1 -0.131,0.783 l -1.957,3.132 c -2.218,3.848 -4.958,5.739 -8.414,5.87 a 8.341,8.341 0 0 1 -3.263,-0.587 1.369,1.369 0 0 0 -1.695,0.522 l -6,9.785 a 1.264,1.264 0 0 0 -0.195,0.847 1.15,1.15 0 0 0 0.587,0.849 21.117,21.117 0 0 0 9.263,1.957 c 9.395,0 18.2,-5.676 24.268,-15.592 l 31.9,-57.407 a 1.4,1.4 0 0 0 -0.326,-1.7"
         transform="translate(116.155,0.604)"
         id="path22"
         inkscape:connector-curvature="0"
         style="fill:#ffffff" />
      <path
         class="b"
         d="m 75.749,181.948 c 0,8.546 -4.893,17.613 -13.961,17.613 -6.394,0 -10.5,-4.7 -10.5,-11.872 0,-9.981 6,-17.483 13.962,-17.483 a 13.611,13.611 0 0 1 2.348,0.2 1.278,1.278 0 0 0 1.5,-0.979 c 0.587,-2.609 1.826,-8.546 2.348,-11.154 A 1.336,1.336 0 0 0 70.4,156.7 27.438,27.438 0 0 0 66.356,156.438 c -17.158,0 -30.138,13.765 -30.138,31.966 0,14.547 10.372,25.05 24.658,25.05 16.83,0 30.008,-14.026 30.008,-31.966 a 32.407,32.407 0 0 0 -0.522,-5.739 1.269,1.269 0 0 0 -1.7,-0.979 L 76.6,178.686 a 1.333,1.333 0 0 0 -0.914,1.371 17.382,17.382 0 0 1 0.066,1.891"
         transform="translate(0,0.053)"
         id="path24"
         inkscape:connector-curvature="0"
         style="fill:#ffffff" />
      <path
         class="b"
         d="m 73.279,160.865 a 17.093,17.093 0 0 0 -9.067,-4.5 1.482,1.482 0 0 0 -1.7,1.108 c -0.847,3.85 -3.2,15.069 -3.98,18.854 a 0.742,0.742 0 0 0 0.979,0.847 l 17.811,-5.806 a 1.445,1.445 0 0 0 0.977,-1.7 18.818,18.818 0 0 0 -5.023,-8.807"
         transform="translate(12.123)"
         id="path26"
         inkscape:connector-curvature="0"
         style="fill:#ffffff" />
    </g>
  </g>
</svg>
