<?xml version="1.0" encoding="UTF-8"?>
<svg width="87px" height="60px" viewBox="0 0 87 60" version="1.1" xmlns="http://www.w3.org/2000/svg" xmlns:xlink="http://www.w3.org/1999/xlink">
    <!-- Generator: Sketch 52.4 (67378) - http://www.bohemiancoding.com/sketch -->
    <title>Asset 20</title>
    <desc>Created with Sketch.</desc>
    <g id="Mobile" stroke="none" stroke-width="1" fill="none" fill-rule="evenodd">
        <g id="Mobile---Help" transform="translate(-15.000000, -2881.000000)">
            <g id="Group" transform="translate(16.000000, 2883.000000)">
                <g id="Asset-20">
                    <polyline id="Path" fill="#DCD6CD" points="0.790344828 24.08 0.790344828 0.405517241 83.9213793 0.405517241 83.9213793 55.9227586 0.790344828 55.9227586 0.790344828 35.7531034"></polyline>
                    <polyline id="Path" fill="#EFEBDE" points="0.790344828 0.405517241 41.5158621 35.7531034 43.1958621 35.7531034 83.9213793 0.405517241"></polyline>
                    <polygon id="Path" fill="#EFEBDE" points="0.790344828 55.9227586 31.6772414 27.217931 53.0344828 27.217931 83.9213793 55.9227586"></polygon>
                    <polyline id="Path" stroke="#3C465A" stroke-width="2.83" stroke-linecap="round" stroke-linejoin="round" points="0.790344828 24.08 0.790344828 0.405517241 83.9213793 0.405517241 83.9213793 55.9227586 0.790344828 55.9227586 0.790344828 35.7531034"></polyline>
                    <path d="M83.9213793,55.9227586 L53.0344828,27.217931" id="Path" stroke="#3C465A" stroke-width="2.83" stroke-linecap="round" stroke-linejoin="round"></path>
                    <path d="M0.790344828,55.9227586 L31.6772414,27.217931" id="Path" stroke="#3C465A" stroke-width="2.83" stroke-linecap="round" stroke-linejoin="round"></path>
                    <polyline id="Path" stroke="#3C465A" stroke-width="2.83" stroke-linecap="round" stroke-linejoin="round" points="0.790344828 0.405517241 41.5158621 35.7531034 43.1958621 35.7531034 83.9213793 0.405517241"></polyline>
                </g>
            </g>
        </g>
    </g>
</svg>