<?xml version="1.0" encoding="UTF-8"?>
<svg width="75px" height="75px" viewBox="0 0 75 75" version="1.1" xmlns="http://www.w3.org/2000/svg" xmlns:xlink="http://www.w3.org/1999/xlink">
    <!-- Generator: Sketch 52.4 (67378) - http://www.bohemiancoding.com/sketch -->
    <title>icons customers</title>
    <desc>Created with Sketch.</desc>
    <g id="ICONOGRAPHY" stroke="none" stroke-width="1" fill="none" fill-rule="evenodd">
        <g id="Feature-Icons" transform="translate(-733.000000, -1369.000000)">
            <g id="icons-customers" transform="translate(735.000000, 1371.000000)">
                <circle id="Oval" fill="#F8F8F8" fill-rule="nonzero" cx="35.6043956" cy="35.6043956" r="35.6043956"></circle>
                <g id="Group-57" transform="translate(34.000000, 14.000000)">
                    <path d="M4.25211804,28 L2.6000304,28 C2.41926865,27.993853 2.24316529,27.943347 2.08852996,27.8533027 C1.2342688,27.3456292 0.580570213,26.5793278 0.230666281,25.6754128 C0.147270343,25.4961 0.0918034243,25.3059931 0.0660454486,25.1111925 C-0.0998505356,23.966133 0.0480738275,22.7993503 0.495235476,21.7258713 C1.09158565,20.2586904 2.00303696,18.928389 3.170324,17.8214675 C4.19333437,16.8830017 5.49675296,16.2753325 6.89780999,16.0836693 C7.71252023,16.0083374 8.53146678,15.9838364 9.34948453,16.0103206 C10.9251411,16.0103206 12.4949183,16.0611005 14.0529369,16.0103206 C15.9108587,15.9801264 17.6995656,16.6863483 18.9974412,17.9625225 C20.5638471,19.4094747 21.5958957,21.3071308 21.9370989,23.3677521 C22.1956209,24.836544 21.6466979,26.3294567 20.484908,27.3172936 C20.0620432,27.7492786 19.4611006,27.9787209 18.844579,27.943578 C16.2341629,27.9040826 13.6178675,27.943578 11.0074515,27.943578 L9.02024287,27.943578" id="Shape" fill="#E2A4FF" fill-rule="nonzero"></path>
                    <path d="M4.66273396,29 L3.24191622,29 C3.08288384,28.9904756 2.92953813,28.9376611 2.79862108,28.8473227 C2.04274203,28.3122547 1.48064568,27.5487095 1.19593867,26.6702574 C1.12338291,26.4889347 1.07559635,26.2987489 1.05385689,26.1047859 C0.916444499,24.9699184 1.04283083,23.8188104 1.42326951,22.7402305 C1.92310746,21.2961316 2.70756179,19.9657995 3.73067752,18.8271678 C4.57551355,17.9031503 5.70880065,17.2895486 6.9474089,17.0855156 C7.65110628,17.0071976 8.359799,16.9826219 9.06726897,17.0120043 C10.4198875,17.0120043 11.7781892,17.057242 13.1308077,17.0120043 C14.7755384,17.0041075 16.3389761,17.7228651 17.3989442,18.9741904 C18.7821358,20.4792662 19.6687215,22.3698287 19.9393664,24.3914073 C20.1759448,25.8333853 19.7121617,27.3016442 18.6890467,28.3497078 C18.3480087,28.7728739 17.8241566,29.0082636 17.2795955,28.9830359 C15.0062871,28.9434529 12.7670784,28.9830359 10.5108198,28.9830359 L8.77173888,28.9830359" id="Shape" fill="#F2DCFF" fill-rule="nonzero"></path>
                    <g id="Group-16">
                        <path d="M11.2546183,0.598628317 C12.8202091,0.57059481 14.3302238,1.16006508 15.4374532,2.23149778 C16.5446826,3.30293048 17.1538472,4.76412638 17.124877,6.27910169 C16.9843477,9.28316409 14.3876774,11.6272927 11.2809766,11.5546478 C8.17427594,11.4820029 5.69764257,9.01924384 5.70722374,6.01211944 C5.70722374,2.68336204 8.93586606,0.450936009 11.2546183,0.598628317 Z" id="Shape" fill="#E0C7D1" fill-rule="nonzero"></path>
                        <path d="M4.66515671,27.9836542 L3.01561399,27.9836542 C2.8348269,27.9745202 2.65926749,27.9217977 2.50490148,27.8302814 C1.65385299,27.3196289 1.00155453,26.5505918 0.649899705,25.6432992 C0.566632232,25.4627701 0.511250757,25.2713737 0.485532459,25.0752518 C0.327454252,23.9317005 0.474994242,22.768027 0.91406135,21.6953702 C1.50886494,20.2179236 2.41899358,18.8784789 3.58502909,17.7644826 C4.60646359,16.8196512 5.90787435,16.2078601 7.30677315,16.0148968 C8.12200212,15.9362154 8.94183519,15.9115425 9.76054132,15.9410507 C11.3279004,15.9410507 12.8952595,15.9864945 14.4567483,15.9410507 C16.3102532,15.9157311 18.0931056,16.6284083 19.3877657,17.9121749 C20.9556033,19.3661528 21.9867803,21.2780126 22.3228951,23.3540684 C22.5833402,24.8330159 22.0348737,26.3371221 20.8729412,27.3303998 C20.4531487,27.7658353 19.8555029,27.9988291 19.2410092,27.9666128 C16.6287441,27.9268495 14.0223492,27.9666128 11.410084,27.9666128 L9.39071502,27.9666128" id="Shape" stroke="#3C465A" stroke-width="2.83" stroke-linecap="round" stroke-linejoin="round"></path>
                    </g>
                    <g id="Group-16">
                        <path d="M11.2546183,0.598628317 C12.8202091,0.57059481 14.3302238,1.16006508 15.4374532,2.23149778 C16.5446826,3.30293048 17.1538472,4.76412638 17.124877,6.27910169 C16.9843477,9.28316409 14.3876774,11.6272927 11.2809766,11.5546478 C8.17427594,11.4820029 5.69764257,9.01924384 5.70722374,6.01211944 C5.70722374,2.68336204 8.93586606,0.450936009 11.2546183,0.598628317 Z" id="Shape" fill="#E0C7D1" fill-rule="nonzero"></path>
                        <path d="M4.66515671,27.9836542 L3.01561399,27.9836542 C2.8348269,27.9745202 2.65926749,27.9217977 2.50490148,27.8302814 C1.65385299,27.3196289 1.00155453,26.5505918 0.649899705,25.6432992 C0.566632232,25.4627701 0.511250757,25.2713737 0.485532459,25.0752518 C0.327454252,23.9317005 0.474994242,22.768027 0.91406135,21.6953702 C1.50886494,20.2179236 2.41899358,18.8784789 3.58502909,17.7644826 C4.60646359,16.8196512 5.90787435,16.2078601 7.30677315,16.0148968 C8.12200212,15.9362154 8.94183519,15.9115425 9.76054132,15.9410507 C11.3279004,15.9410507 12.8952595,15.9864945 14.4567483,15.9410507 C16.3102532,15.9157311 18.0931056,16.6284083 19.3877657,17.9121749 C20.9556033,19.3661528 21.9867803,21.2780126 22.3228951,23.3540684 C22.5833402,24.8330159 22.0348737,26.3371221 20.8729412,27.3303998 C20.4531487,27.7658353 19.8555029,27.9988291 19.2410092,27.9666128 C16.6287441,27.9268495 14.0223492,27.9666128 11.410084,27.9666128 L9.39071502,27.9666128" id="Shape" stroke="#3C465A" stroke-width="2.83" stroke-linecap="round" stroke-linejoin="round"></path>
                    </g>
                    <path d="M11.3440106,1.00642577 C12.8522022,0.978298892 14.3068552,1.56973245 15.3734903,2.64473368 C16.4401254,3.71973491 17.0269562,5.18579747 16.9990482,6.70581857 C16.8635171,9.71632606 14.3672953,12.0667112 11.3779086,11.9985545 C8.38852195,11.9303979 6.00031357,9.46864997 6,6.45504529 C6,3.10380232 9.1102707,0.863940946 11.3440106,1.00642577 Z" id="Shape" stroke="#3C465A" stroke-width="2.83" stroke-linecap="round" stroke-linejoin="round"></path>
                </g>
                <g id="Group-57" transform="translate(14.000000, 17.000000)">
                    <path d="M6.29371582,39.0144727 L4.07041911,39.0144727 C3.82715901,39.0058527 3.59016795,38.9350278 3.38206747,38.8087584 C2.23244564,38.0968452 1.35273085,37.0222569 0.881847686,35.7546925 C0.769617614,35.5032413 0.694973017,35.2366534 0.660309224,34.9634837 C0.437054727,33.357761 0.636123918,31.7215759 1.23789164,30.2162309 C2.04042981,28.1587959 3.26701527,26.2933077 4.83789164,24.7410661 C6.2146077,23.4250508 7.96868308,22.5729133 9.85415538,22.304143 C10.9505516,22.1985048 12.0526488,22.1641468 13.153496,22.2012859 C15.2739356,22.2012859 17.3864631,22.2724947 19.4831664,22.2012859 C21.9834644,22.1589444 24.3906164,23.1492828 26.1372323,24.9388683 C28.2452229,26.9679365 29.6341021,29.6290289 30.0932763,32.5186485 C30.4411822,34.5783427 29.7024691,36.6718615 28.1389905,38.05711 C27.5699203,38.6628848 26.7612019,38.984633 25.931518,38.9353518 C22.418551,38.8799672 18.8976719,38.9353518 15.3847048,38.9353518 L12.7104191,38.9353518" id="Shape" fill="#E2A4FF" fill-rule="nonzero"></path>
                    <path d="M5.67058243,39.7684448 L3.69256045,39.7684448 C3.47116011,39.7551182 3.25767657,39.6812201 3.07541759,39.5548184 C2.02310432,38.8061503 1.24056979,37.7377964 0.8442088,36.5086646 C0.74319875,36.2549575 0.676671661,35.9888491 0.646406602,35.7174558 C0.455104983,34.1295469 0.631056432,32.5189144 1.16069232,31.0097635 C1.85655247,28.9891775 2.94864744,27.1277743 4.37300001,25.5345986 C5.54915665,24.2417116 7.12688666,23.3831589 8.85124177,23.0976756 C9.83090922,22.9880928 10.817531,22.9537065 11.8024506,22.9948184 C13.6855275,22.9948184 15.5765165,23.0581151 17.4595934,22.9948184 C19.7493406,22.9837692 21.925914,23.9894563 23.4015714,25.7403129 C25.3272114,27.8462179 26.5614907,30.4914965 26.9382747,33.3200931 C27.2676325,35.3377115 26.6219669,37.3921021 25.1976154,38.8585547 C24.722832,39.4506495 23.99354,39.7800072 23.2354176,39.7447085 C20.0705824,39.6893239 16.9532198,39.7447085 13.8121209,39.7447085 L11.391022,39.7447085" id="Shape" fill="#F2DCFF" fill-rule="nonzero"></path>
                    <g id="Group-16">
                        <path d="M15.1692681,0.833803727 C17.2794123,0.794757057 19.3146494,1.61580493 20.8070021,3.10815762 C22.2993548,4.60051032 23.1204027,6.63574745 23.081356,8.74589164 C22.8919469,12.9301214 19.3920869,16.1951577 15.2047946,16.0939737 C11.0175024,15.9927898 7.67943129,12.5625182 7.69234503,8.37402351 C7.69234503,3.73753999 12.0439934,0.628089441 15.1692681,0.833803727 Z" id="Shape" fill="#E0C7D1" fill-rule="nonzero"></path>
                        <path d="M6.28781991,38.9772327 L4.0645232,38.9772327 C3.82085364,38.9645102 3.58423009,38.8910753 3.37617156,38.7636063 C2.22910621,38.0523403 1.34992133,36.9811815 0.875951776,35.7174524 C0.763721704,35.4660012 0.689077107,35.1994134 0.654413315,34.9262436 C0.441351383,33.3334399 0.640209631,31.712609 1.23199573,30.2185513 C2.03368752,28.1606792 3.26038265,26.2950242 4.83199573,24.7433865 C6.20871179,23.4273713 7.96278717,22.5752337 9.84825947,22.3064634 C10.9470463,22.1968714 12.0520387,22.1625056 13.1555122,22.2036063 C15.2680397,22.2036063 17.3805672,22.266903 19.4851825,22.2036063 C21.9833847,22.1683398 24.3863597,23.1609973 26.1313364,24.9491008 C28.2445088,26.9742843 29.6343561,29.6372319 30.0873803,32.528881 C30.438415,34.5888436 29.6991775,36.6838486 28.1330946,38.0673425 C27.5672874,38.673842 26.7617647,38.9983692 25.9335342,38.9534964 C22.4126551,38.8981118 18.899688,38.9534964 15.3788089,38.9534964 L12.6570507,38.9534964" id="Shape" stroke="#3C465A" stroke-width="2.83" stroke-linecap="round" stroke-linejoin="round"></path>
                    </g>
                    <g id="Group-16">
                        <path d="M15.1692681,0.833803727 C17.2794123,0.794757057 19.3146494,1.61580493 20.8070021,3.10815762 C22.2993548,4.60051032 23.1204027,6.63574745 23.081356,8.74589164 C22.8919469,12.9301214 19.3920869,16.1951577 15.2047946,16.0939737 C11.0175024,15.9927898 7.67943129,12.5625182 7.69234503,8.37402351 C7.69234503,3.73753999 12.0439934,0.628089441 15.1692681,0.833803727 Z" id="Shape" fill="#E0C7D1" fill-rule="nonzero"></path>
                        <path d="M6.28781991,38.9772327 L4.0645232,38.9772327 C3.82085364,38.9645102 3.58423009,38.8910753 3.37617156,38.7636063 C2.22910621,38.0523403 1.34992133,36.9811815 0.875951776,35.7174524 C0.763721704,35.4660012 0.689077107,35.1994134 0.654413315,34.9262436 C0.441351383,33.3334399 0.640209631,31.712609 1.23199573,30.2185513 C2.03368752,28.1606792 3.26038265,26.2950242 4.83199573,24.7433865 C6.20871179,23.4273713 7.96278717,22.5752337 9.84825947,22.3064634 C10.9470463,22.1968714 12.0520387,22.1625056 13.1555122,22.2036063 C15.2680397,22.2036063 17.3805672,22.266903 19.4851825,22.2036063 C21.9833847,22.1683398 24.3863597,23.1609973 26.1313364,24.9491008 C28.2445088,26.9742843 29.6343561,29.6372319 30.0873803,32.528881 C30.438415,34.5888436 29.6991775,36.6838486 28.1330946,38.0673425 C27.5672874,38.673842 26.7617647,38.9983692 25.9335342,38.9534964 C22.4126551,38.8981118 18.899688,38.9534964 15.3788089,38.9534964 L12.6570507,38.9534964" id="Shape" stroke="#3C465A" stroke-width="2.83" stroke-linecap="round" stroke-linejoin="round"></path>
                    </g>
                    <path d="M15.1692308,1.62430508 C17.279375,1.58525841 19.3146121,2.40630628 20.8069648,3.89865898 C22.2993175,5.39101167 23.1203654,7.4262488 23.0813187,9.53639299 C22.8916941,13.7156803 19.3991752,16.9785636 15.2166583,16.8839462 C11.0341414,16.7893289 7.69274642,13.371848 7.69230769,9.18826112 C7.69230769,4.53595343 12.043956,1.42650288 15.1692308,1.62430508 Z" id="Shape" stroke="#3C465A" stroke-width="2.83" stroke-linecap="round" stroke-linejoin="round"></path>
                </g>
                <path d="M19.9515783,3.62990156 C36.1503246,-4.29925848 55.719473,1.13626031 65.5084552,16.2837614 C75.2974374,31.4312624 72.2140439,51.5058513 58.3303309,63.0173011 C44.446618,74.5287508 24.1482662,73.8407474 11.0758723,61.4156325 C-1.99652158,48.9905177 -3.7135619,28.7532202 7.07861126,14.3033082" id="Shape" stroke="#3C465A" stroke-width="2.83" stroke-linecap="round" stroke-linejoin="round"></path>
            </g>
        </g>
    </g>
</svg>