<?xml version="1.0" encoding="UTF-8"?>
<svg width="75px" height="75px" viewBox="0 0 75 75" version="1.1" xmlns="http://www.w3.org/2000/svg" xmlns:xlink="http://www.w3.org/1999/xlink">
    <!-- Generator: Sketch 52.4 (67378) - http://www.bohemiancoding.com/sketch -->
    <title>iconRisk</title>
    <desc>Created with Sketch.</desc>
    <g id="Page-1" stroke="none" stroke-width="1" fill="none" fill-rule="evenodd">
        <g id="iconRisk">
            <g id="Mask-2">
                <path d="M71.5901597,10.040876 C71.0761717,8.52208806 69.6467599,7.49831246 68.0372646,7.49831246 C67.8909469,7.49831246 53.0865921,7.41581039 39.1901576,0.399384985 C38.128416,-0.133128328 36.871584,-0.133128328 35.8098424,0.399384985 C21.9809392,7.38205956 7.10530139,7.49831246 6.95898364,7.49831246 C5.35324012,7.50206256 3.92382826,8.52208806 3.40984028,10.040876 C-1.71878442,25.1575039 -1.05097521,39.3853596 5.33823318,51.1831546 C11.5173443,62.5871897 23.1889986,71.4449111 36.5676933,74.8799969 C36.8753357,74.958749 37.18673,75 37.5018758,75 C37.81327,75 38.128416,74.958749 38.4323067,74.8799969 C51.8110014,71.4449111 63.4826557,62.5871897 69.6617668,51.1831546 C76.0509751,39.3853596 76.7187844,25.1575039 71.5901597,10.040876" id="Fill-3" fill="#F8F8F8"></path>
                <g id="Mask" fill="#3C465A" fill-rule="nonzero">
                    <path d="M71.5901597,10.040876 C71.0761717,8.52208806 69.6467599,7.49831246 68.0372646,7.49831246 C67.8909469,7.49831246 53.0865921,7.41581039 39.1901576,0.399384985 C38.128416,-0.133128328 36.871584,-0.133128328 35.8098424,0.399384985 C21.9809392,7.38205956 7.10530139,7.49831246 6.95898364,7.49831246 C5.35324012,7.50206256 3.92382826,8.52208806 3.40984028,10.040876 C-1.71878442,25.1575039 -1.05097521,39.3853596 5.33823318,51.1831546 C11.5173443,62.5871897 23.1889986,71.4449111 36.5676933,74.8799969 C36.8753357,74.958749 37.18673,75 37.5018758,75 C37.81327,75 38.128416,74.958749 38.4323067,74.8799969 C51.8110014,71.4449111 63.4826557,62.5871897 69.6617668,51.1831546 C76.0509751,39.3853596 76.7187844,25.1575039 71.5901597,10.040876 Z M37.5025862,72.9241147 C24.4554921,69.2565093 13.1794565,60.559299 7.18099717,49.476365 C1.20478729,38.4423915 1.37180314,24.512216 5.62590339,10.0821467 C11.6777615,9.69046067 24.0728011,8.65644968 37.5025862,2.3627674 C50.9279214,8.65644968 63.2764937,9.69046067 69.3283518,10.0821467 C73.5869019,24.512216 73.7959351,38.4423915 67.8197253,49.476365 C61.821266,60.559299 50.5452304,69.2565093 37.5025862,72.9241147 Z" id="path-1"></path>
                </g>
            </g>
            <path d="M35.2143743,38.7522911 L32.6080294,36.2977646 C31.8198772,35.5555218 30.5459331,35.5555218 29.7577808,36.2977646 C28.9696286,37.0400074 28.9696286,38.239745 29.7577808,38.9819878 L33.7892499,42.7786258 C34.1823182,43.1487981 34.6983462,43.3348333 35.2143743,43.3348333 C35.7304024,43.3348333 36.2464303,43.1487981 36.6394986,42.7786258 L44.7024368,35.1853497 C45.490589,34.4431069 45.490589,33.2433693 44.7024368,32.5011265 C43.9142846,31.7588837 42.6403403,31.7588837 41.8521882,32.5011265 L35.2143743,38.7522911 Z" id="Fill-1" fill="#9FC49F"></path>
            <path d="M29.2847849,21.2304396 C31.6169224,20.0866225 34.2391131,19.4444454 37.0116004,19.4444454 C46.713745,19.4444454 54.5787556,27.309456 54.5787556,37.0116004 C54.5787556,46.7133547 46.713745,54.5787556 37.0116004,54.5787556 C27.309456,54.5787556 19.4444454,46.7133547 19.4444454,37.0116004 C19.4444454,33.0691406 20.7428533,29.4303971 22.9356247,26.4990244" id="Stroke-23" stroke="#3C465A" stroke-width="2" stroke-linecap="round" stroke-linejoin="round" transform="translate(37.011600, 37.011600) rotate(-180.000000) translate(-37.011600, -37.011600) "></path>
        </g>
    </g>
</svg>