<svg xmlns="http://www.w3.org/2000/svg" width="410" height="80.026" version="1.1" id="svg32"><defs id="defs4"><style id="style2">.b{fill:#fff}</style></defs><g transform="translate(-724.58 -291.266)" id="g30"><g transform="translate(694.87 136.081)" id="g28"><path class="b" d="M111.155 156.779A19.929 19.929 0 0 0 96.8 162.52c.066-.522.066-1.108.131-1.761a2.67 2.67 0 0 0-2.675-2.87h-9.912a1.332 1.332 0 0 0-1.3 1.043l-15.2 71.5a1.411 1.411 0 0 0 .587 1.436 1.324 1.324 0 0 0 .718.2h5.48a9.63 9.63 0 0 0 9.395-7.633l3.848-18.593c2.544 3.523 7.957 7.047 16.048 7.047 16.179 0 27.921-14.157 27.921-33.662.13-13.894-7.829-22.442-20.68-22.442m5.61 24.66c0 11.613-7.306 17.94-14.155 17.94-6.459 0-10.5-4.5-10.5-11.809 0-9.85 6.2-17.613 14.026-17.613 6.719.065 10.633 4.305 10.633 11.482" transform="translate(17.173 .237)" id="path12" fill="#fff"/><path class="b" d="M162.373 188.1a34.539 34.539 0 0 0 1.3-9c0-13.765-9.263-22.7-23.615-22.7-14.157 0-28.834 12-28.834 32.16 0 14.418 10.372 24.856 24.723 24.856 14.875 0 21.4-8.871 23.551-12.655a1.468 1.468 0 0 0 .13-1.045 1.3 1.3 0 0 0-.651-.783l-9.263-4.631a1.338 1.338 0 0 0-1.761.457 12.787 12.787 0 0 1-11.091 5.935c-6.849 0-11.286-4.5-11.482-11.482l35.684-.131a1.481 1.481 0 0 0 1.3-.977M139.8 168.793c7.632 0 9.656 5.482 9.656 8.743a6.094 6.094 0 0 1-.066.912h-22.374c1.957-6 6.719-9.656 12.786-9.656" transform="translate(40.78 .03)" id="path14" fill="#fff"/><path class="b" d="M182.893 156.568c-5.937 0-11.091 2.089-14.288 5.87.065-.455.065-.977.131-1.5a2.909 2.909 0 0 0-.653-2.022 2.676 2.676 0 0 0-2.022-.912h-9.915a1.332 1.332 0 0 0-1.3 1.043l-10.765 51.079a1.416 1.416 0 0 0 .588 1.436 1.311 1.311 0 0 0 .718.2h12.2a1.332 1.332 0 0 0 1.3-1.045l6.525-29.942c1.434-6.719 5.48-10.7 10.829-10.7 4.893 0 7.7 2.74 7.7 7.5a17.008 17.008 0 0 1-.326 3.066l-5.35 25.117a5.029 5.029 0 0 0 1.24 4.435 5.124 5.124 0 0 0 3.783 1.567h7.829a1.122 1.122 0 0 0 1.108-.914l6.784-31.444a24.836 24.836 0 0 0 .653-5.674c0-10.5-6.59-17.158-16.766-17.158" transform="translate(58.62 .122)" id="path16" fill="#fff"/><path class="b" d="M219.381 156.779a19.925 19.925 0 0 0-14.351 5.741c.065-.587.065-1.175.131-1.826a3 3 0 0 0-.719-1.957 2.712 2.712 0 0 0-1.956-.847h-9.916a1.332 1.332 0 0 0-1.3 1.043l-15.2 71.5a1.359 1.359 0 0 0 1.3 1.632h5.545a9.629 9.629 0 0 0 9.395-7.633l3.85-18.593c2.544 3.523 7.957 7.047 16.046 7.047 16.179 0 27.921-14.157 27.921-33.662.13-13.894-7.893-22.442-20.745-22.442m5.676 24.66c0 11.613-7.306 17.94-14.157 17.94-6.459 0-10.5-4.5-10.5-11.809 0-9.85 6.2-17.613 14.026-17.613 6.655.065 10.634 4.305 10.634 11.482" transform="translate(76.016 .237)" id="path18" fill="#fff"/><path class="b" d="M267.718 211a1.553 1.553 0 0 0 .195-.783v-.979a46.332 46.332 0 0 1 .979-9.524l8.481-40.184a1.1 1.1 0 0 0-.065-.783 1.4 1.4 0 0 0-1.24-.914h-10.9a2.713 2.713 0 0 0-2.609 2.153l-.718 3.2c-1.5-2.283-5.611-6.653-15.2-6.653-15.657 0-27.4 13.765-27.4 32.031 0 14.09 8.675 23.94 21.071 23.94a16.763 16.763 0 0 0 13.7-6.522c-.065.912-.13 1.891-.13 2.674v.2a2.644 2.644 0 0 0 2.674 2.674h9.981a.94.94 0 0 0 1.175-.522m-10.177-29.812c0 10.634-5.611 18.332-13.374 18.332-6.263 0-9.981-4.24-9.981-11.352 0-11.611 7.045-17.939 13.635-17.939 6.068 0 9.72 4.109 9.72 10.958" transform="translate(99.505 .099)" id="path20" fill="#fff"/><path class="b" d="M315.586 157.782a1.373 1.373 0 0 0-.849-.327h-12.915a1.23 1.23 0 0 0-1.175.719l-18.2 33.857-4.372-33.4a1.335 1.335 0 0 0-1.3-1.175h-12.791a.781.781 0 0 0-.522.131 1.362 1.362 0 0 0-.783 1.5l8.873 50.232a1.066 1.066 0 0 1-.131.783l-1.957 3.132c-2.218 3.848-4.958 5.739-8.414 5.87a8.341 8.341 0 0 1-3.263-.587 1.369 1.369 0 0 0-1.695.522l-6 9.785a1.264 1.264 0 0 0-.195.847 1.15 1.15 0 0 0 .587.849 21.117 21.117 0 0 0 9.263 1.957c9.395 0 18.2-5.676 24.268-15.592l31.9-57.407a1.4 1.4 0 0 0-.326-1.7" transform="translate(116.155 .604)" id="path22" fill="#fff"/><path class="b" d="M75.749 181.948c0 8.546-4.893 17.613-13.961 17.613-6.394 0-10.5-4.7-10.5-11.872 0-9.981 6-17.483 13.962-17.483a13.611 13.611 0 0 1 2.348.2 1.278 1.278 0 0 0 1.5-.979c.587-2.609 1.826-8.546 2.348-11.154A1.336 1.336 0 0 0 70.4 156.7a27.438 27.438 0 0 0-4.044-.262c-17.158 0-30.138 13.765-30.138 31.966 0 14.547 10.372 25.05 24.658 25.05 16.83 0 30.008-14.026 30.008-31.966a32.407 32.407 0 0 0-.522-5.739 1.269 1.269 0 0 0-1.7-.979L76.6 178.686a1.333 1.333 0 0 0-.914 1.371 17.382 17.382 0 0 1 .066 1.891" transform="translate(0 .053)" id="path24" fill="#fff"/><path class="b" d="M73.279 160.865a17.093 17.093 0 0 0-9.067-4.5 1.482 1.482 0 0 0-1.7 1.108c-.847 3.85-3.2 15.069-3.98 18.854a.742.742 0 0 0 .979.847l17.811-5.806a1.445 1.445 0 0 0 .977-1.7 18.818 18.818 0 0 0-5.023-8.807" transform="translate(12.123)" id="path26" fill="#fff"/></g></g></svg>