<svg xmlns="http://www.w3.org/2000/svg" width="72.465" height="109.417" viewBox="0 0 72.465 109.417">
  <g id="Group_1404" data-name="Group 1404" transform="translate(-411.658 -1015.134)">
    <path id="Path_4405" data-name="Path 4405" d="M476.863,1059.456h-9.058v-12.994a1.492,1.492,0,0,0-2.985,0v12.887H459.91v-24.3a12.02,12.02,0,0,0-24.039,0v24.3H430.96v-24.3a16.931,16.931,0,1,1,33.861,0v2.455a1.492,1.492,0,0,0,2.985,0v-2.455a19.915,19.915,0,0,0-39.83,0v24.408h-9.057a7.268,7.268,0,0,0-7.261,7.26v50.575a7.268,7.268,0,0,0,7.261,7.26h57.945a7.268,7.268,0,0,0,7.26-7.26v-50.575A7.268,7.268,0,0,0,476.863,1059.456Zm-38.008-24.408a9.035,9.035,0,1,1,18.07,0v24.408h-18.07Zm42.283,82.243a4.281,4.281,0,0,1-4.275,4.276H418.919a4.281,4.281,0,0,1-4.276-4.276v-50.575a4.281,4.281,0,0,1,4.276-4.276h57.945a4.281,4.281,0,0,1,4.275,4.276Z" transform="translate(0 0)" fill="#1cb0e6"/>
    <path id="Path_4406" data-name="Path 4406" d="M448.859,1088.826l10.9-10.9a1.492,1.492,0,0,0-2.111-2.11l-10.9,10.9-10.9-10.9a1.492,1.492,0,0,0-2.111,2.11l10.9,10.9-10.9,10.9a1.492,1.492,0,0,0,2.111,2.11l10.9-10.9,10.9,10.9a1.492,1.492,0,0,0,2.111-2.11Z" transform="translate(1.141 3.177)" fill="#1cb0e6"/>
  </g>
</svg>
