<?xml version="1.0" encoding="UTF-8"?>
<svg width="137px" height="26px" viewBox="0 0 137 26" version="1.1" xmlns="http://www.w3.org/2000/svg" xmlns:xlink="http://www.w3.org/1999/xlink">
    <!-- Generator: Sketch 52.4 (67378) - http://www.bohemiancoding.com/sketch -->
    <title>logo copy</title>
    <desc>Created with Sketch.</desc>
    <g id="Symbols" stroke="none" stroke-width="1" fill="none" fill-rule="evenodd">
        <g id="Footer---Desktop" transform="translate(-641.000000, -363.000000)" fill-rule="nonzero">
            <g id="Group-2" transform="translate(493.000000, 281.000000)">
                <g id="logo-copy" transform="translate(148.000000, 82.000000)">
                    <path d="M27.1251993,1.98073142 C27.14184,1.79839103 27.1555868,1.59756285 27.1660778,1.38005939 C27.1772923,1.13355548 27.1056644,0.884514032 26.9446824,0.697098561 C26.7659742,0.488295246 26.5131059,0.372293407 26.2399791,0.372293407 L22.8231816,0.372293407 C22.6061273,0.372293407 22.4151194,0.527445869 22.369538,0.740599253 L17.1352719,25.4384786 C17.0954785,25.6262566 17.1725329,25.8209222 17.3450911,25.9318489 C17.4199749,25.9800621 17.5096907,26 17.5990447,26 L19.4932058,26 C21.053465,26 22.4172899,24.8889199 22.7367216,23.3584206 L24.0734148,16.9453314 C24.9521232,18.1684258 26.8075763,19.380645 29.6119188,19.380645 C35.1934719,19.380645 39.2447917,14.4918924 39.2447917,7.75689809 C39.2447917,2.97254716 36.4925423,0 32.0610156,0 C30.1209113,0 28.2741404,0.7500244 27.1251993,1.98073142 Z M25.5139323,10.6576691 C25.5139323,7.24902751 27.6399798,4.57989766 30.3546065,4.57989766 C32.6412743,4.57989766 34.0069081,6.05964614 34.0069081,8.53773543 C34.0069081,12.5571992 31.4941419,14.7267961 29.1293346,14.7267961 C26.899101,14.7267961 25.5139323,13.1672964 25.5139323,10.6576691 Z M39.9583334,11.4101584 C39.9583334,4.26819204 44.9401173,0 49.7562702,0 C54.640603,0 57.7968751,3.15876759 57.7968751,8.04723892 C57.7968751,9.00578463 57.6291022,10.1997756 57.3481719,11.2413978 C57.2939134,11.4436871 57.1132898,11.5852523 56.9091066,11.5856249 L44.7619924,11.6225063 C44.815537,14.1088391 46.3322753,15.7070361 48.6582501,15.7070361 C50.9235411,15.7070361 52.0501182,14.2265617 52.4295705,13.5898907 C52.5530799,13.3816407 52.8065241,13.3086228 53.0189174,13.4188948 L56.17983,15.0685023 C56.2926305,15.1269911 56.3750891,15.228322 56.4114994,15.353868 C56.4489806,15.4797866 56.434345,15.6191166 56.3715195,15.7353491 C55.6475973,17.0843169 53.4169318,20.2222223 48.365183,20.2222223 C43.4940578,20.2222223 39.9583334,16.5161932 39.9583334,11.4101584 Z M49.6830926,4.40044377 C47.6276962,4.40044377 46.0085094,5.67974651 45.3213545,7.83414596 L52.9375297,7.83414596 C52.9578766,7.65830702 52.9578766,7.57225029 52.9578766,7.5118988 C52.9578766,6.35627935 52.2685799,4.40044377 49.6830926,4.40044377 Z M65.6415521,2.12660377 C66.7418334,0.816792455 68.486086,0.0746886791 70.5071928,0.0746886791 C73.9664428,0.0746886791 76.2008985,2.42425472 76.2008985,6.06008491 C76.2008985,6.7050566 76.1284741,7.35628302 75.9782735,8.05166039 L73.6803126,19.085717 C73.6417813,19.2704151 73.4805209,19.4050755 73.2971408,19.4050755 L70.6288517,19.4050755 C70.1432866,19.4050755 69.6680678,19.2141226 69.3373412,18.8473019 C68.9555965,18.4234529 68.8028985,17.8458113 68.9188491,17.2861981 L70.7455157,8.48507549 C70.8154428,8.12414151 70.852547,7.75511321 70.852547,7.41846228 C70.852547,5.75323585 69.8996121,4.79810378 68.2381303,4.79810378 C66.431086,4.79810378 65.0557345,6.19768868 64.5594662,8.54173583 L62.34606,19.0334717 C62.3007501,19.2487076 62.1127319,19.4050755 61.8993829,19.4050755 L57.7444298,19.4050755 C57.6559506,19.4050755 57.5664011,19.3848396 57.4921928,19.3348019 C57.3241537,19.222217 57.2481616,19.0253773 57.2866928,18.8358962 L60.9446642,0.940415091 C60.9892605,0.722971696 61.1776355,0.565499997 61.3924116,0.565499997 L64.7656798,0.565499997 C65.0350418,0.565499997 65.2851381,0.683235849 65.4617396,0.89626415 C65.6212162,1.08795283 65.6897162,1.34218868 65.6779428,1.59458491 C65.6690235,1.78038679 65.6572501,1.95809434 65.6415521,2.12660377 Z M84.208368,1.98073142 C85.3573246,0.7500244 87.2044827,0 89.1446135,0 C93.5490681,0 96.2952051,2.9373841 96.3281251,7.67170918 L96.3281251,7.85912468 C96.2872463,14.5411932 92.2485327,19.380645 86.6954829,19.380645 C83.8907412,19.380645 82.0359863,18.1684258 81.1569038,16.9453314 L79.8198309,23.3584206 C79.5007566,24.8889199 78.1369132,26 76.5766327,26 L74.6719548,26 C74.5315911,26 74.3999097,25.9372865 74.3116397,25.8278098 C74.2230079,25.718333 74.1893641,25.5765933 74.2186668,25.4384786 L79.453004,0.740599253 C79.498586,0.527445869 79.6892347,0.372293407 79.9070156,0.372293407 L83.3231357,0.372293407 C83.5792632,0.372293407 83.8169414,0.474157522 83.9934815,0.658310445 C84.170383,0.843550882 84.2619086,1.08642973 84.2506938,1.34308381 C84.2405646,1.57508749 84.2264561,1.78787837 84.208368,1.98073142 Z M82.597079,10.6576691 C82.597079,13.1672964 83.9826281,14.7267961 86.2132541,14.7267961 C88.5773702,14.7267961 91.0905318,12.5571992 91.0905318,8.53773543 C91.0905318,6.05964614 89.7248798,4.57989766 87.4378194,4.57989766 C84.7231556,4.57989766 82.597079,7.24902751 82.597079,10.6576691 Z M97.7552085,11.1559091 C97.7552085,4.79587878 101.803906,0 107.172838,0 C110.485868,0 111.893013,1.51262229 112.405456,2.3144327 L112.642745,1.19065557 C112.734704,0.758321148 113.111553,0.449510848 113.547544,0.449510848 L117.272403,0.449510848 C117.462451,0.449510848 117.634468,0.565725849 117.707313,0.757224783 C117.739769,0.842376027 117.740851,0.935932754 117.722098,1.0243731 L114.812244,15.0074497 C114.599117,16.0504611 114.481554,17.2257675 114.481554,18.3159226 C114.481554,18.4029011 114.481554,18.5150962 114.489127,18.6605476 C114.493815,18.7526425 114.476505,18.8469302 114.429985,18.9258686 C114.341633,19.0771674 114.191975,19.1626841 114.027892,19.1626841 L110.592251,19.1626841 C110.081251,19.1626841 109.667618,18.7427752 109.667618,18.2252895 L109.667618,18.1664512 C109.667618,17.8967447 109.68601,17.5440796 109.706925,17.2352693 C108.93808,18.2168841 107.460254,19.5 104.990357,19.5 C100.730336,19.5 97.7552085,16.0687338 97.7552085,11.1559091 Z M102.902719,10.9676993 C102.902719,13.4432981 104.180762,14.9208366 106.321772,14.9208366 C108.989289,14.9208366 110.924744,12.2340043 110.924744,8.5315698 C110.924744,6.15025863 109.67447,4.72900034 107.579619,4.72900034 C105.312392,4.72900034 102.902719,6.91515799 102.902719,10.9676993 Z M132.07103,0 L136.53955,0 C136.645314,0 136.750715,0.033472803 136.830401,0.103692926 C137.01114,0.262688739 137.047723,0.503183556 136.9387,0.696016011 L125.937455,20.5945061 C123.846448,24.0316537 120.794148,26 117.561834,26 C116.162275,26 114.97062,25.6310715 114.375518,25.3156267 C114.265771,25.2574132 114.191518,25.1533564 114.171235,25.0274695 C114.154935,24.9266873 114.18355,24.8240859 114.236432,24.7367655 L116.300999,21.3509187 C116.421251,21.154084 116.662841,21.0762234 116.875818,21.1653629 C117.197093,21.2999818 117.579581,21.3680189 118.012054,21.3680189 C119.221094,21.3309077 120.14725,20.687284 120.923818,19.343642 L121.597157,18.2474077 C121.648227,18.1637257 121.667062,18.0640349 121.6504,17.9672549 L118.583613,0.547207567 C118.547755,0.341640897 118.650259,0.130252863 118.859251,0.0345643078 C118.914306,0.00982353993 118.975156,0 119.03492,0 L123.443676,0 C123.675487,0 123.873613,0.174640709 123.903314,0.405311984 L125.410448,11.9854466 L131.662101,0.246316171 C131.743235,0.0938693833 131.899707,0 132.07103,0 Z M0,11.3333619 C0,4.87262733 4.39700835,0 10.2272662,0 C10.7003845,0 11.1596086,0.0346130718 11.6028008,0.101233931 C11.8543231,0.138824469 12.0206983,0.393770219 11.9683275,0.653182167 C11.7773701,1.59108477 11.3527036,3.68201208 11.1631713,4.6128432 C11.1136506,4.85773999 10.8867105,5.01480146 10.6512201,4.96902287 C10.4021917,4.92138338 10.1389127,4.89719144 9.86138315,4.89719144 C7.16197204,4.89719144 5.1266367,7.56537547 5.1266367,11.1044691 C5.1266367,13.6680695 6.52568481,15.3246586 8.69105649,15.3246586 C11.7659697,15.3246586 13.4254467,12.1067594 13.4254467,9.07904603 C13.4254467,8.83973201 13.4140462,8.60935042 13.3919578,8.38827335 C13.3698695,8.17017377 13.493493,7.96472847 13.6937133,7.89661887 L17.7960915,6.50316356 C18.0458325,6.41830571 18.3144553,6.57834464 18.3657574,6.84780555 C18.4875996,7.49540495 18.5520834,8.17687312 18.5520834,8.88811591 C18.5520834,15.2431504 14.0759844,20.2222223 8.36151236,20.2222223 C3.5166804,20.2222223 0,16.4843826 0,11.3333619 Z" id="Combined-Shape" fill="#FFFFFF"></path>
                    <path d="M17.2326011,1.72746306 C16.3975709,0.862267859 15.3151105,0.256510553 14.0208321,0.00873731065 C13.7440962,-0.043954726 13.4773762,0.146701957 13.4187645,0.445156089 C13.1279321,1.93099108 12.2877084,6.22197313 12.0057791,7.66034507 C11.9646025,7.87231991 12.1504534,8.05292086 12.3411266,7.98574857 L18.6396512,5.76504067 C18.8948714,5.67494131 19.0491907,5.38774959 18.9857566,5.10458017 C18.687876,3.77883243 18.0910018,2.61679202 17.2326011,1.72746306" id="Fill-16" fill="#00E1B4"></path>
                </g>
            </g>
        </g>
    </g>
</svg>