<svg xmlns="http://www.w3.org/2000/svg" width="63.471" height="76.079"><path d="M63.214 15.22a1.187 1.187 0 0 0-1.163-.953h-7.584c-.1-2.313-.232-4.049-.289-4.756H56a1.188 1.188 0 0 0 1.188-1.191V1.187A1.188 1.188 0 0 0 56-.001H7.477a1.187 1.187 0 0 0-1.188 1.188V8.32a1.187 1.187 0 0 0 1.188 1.188h1.822c-.058.707-.189 2.443-.289 4.756H1.427a1.188 1.188 0 0 0-1.164.953c-.038.184-3.452 18.379 15.744 30.677 2.756 4.448 5.737 8.833 7.351 11.166h-.214a1.189 1.189 0 0 0-1.189 1.188v5.945a1.189 1.189 0 0 0 1.189 1.188h.414a8.844 8.844 0 0 1-5.72 3.591 1.19 1.19 0 0 0-.954 1.165v4.754a1.187 1.187 0 0 0 1.188 1.188h27.335a1.187 1.187 0 0 0 1.188-1.188v-4.754a1.189 1.189 0 0 0-.955-1.165 8.846 8.846 0 0 1-5.72-3.591h.415a1.188 1.188 0 0 0 1.188-1.188v-5.945a1.188 1.188 0 0 0-1.188-1.188h-.214c1.613-2.333 4.594-6.718 7.35-11.166 19.196-12.298 15.78-30.493 15.743-30.674zM37.961 63.008H24.327V59.44h14.82v3.568zm6.258 8.069v2.629H19.254v-2.629a10.894 10.894 0 0 0 7.045-5.693h10.878a10.894 10.894 0 0 0 7.042 5.69zm16.794-54.433c.33 3.309.51 14.61-10.445 24.01a58.979 58.979 0 0 0 1.633-3.136c2.3-4.82 2.529-14.219 2.351-20.874zM8.661 2.379h46.151v4.757H8.66zm43.134 7.133c.131 1.594 1.572 20.061-1.737 26.983-3.145 6.581-10.962 17.893-12.715 20.4H26.13c-1.754-2.509-9.57-13.821-12.716-20.4-3.307-6.917-1.867-25.389-1.736-26.983zM2.449 16.645h6.474c-.179 6.655.047 16.054 2.35 20.874.466.974 1.025 2.04 1.646 3.159C1.804 31.21 2.077 19.971 2.448 16.641z" fill="#1cb0e6"/></svg>