<svg xmlns="http://www.w3.org/2000/svg" width="105.79" height="68.079"><path d="M2.924 36.644a10.676 10.676 0 0 0 5.205 8.05l14.952 8.758a14.066 14.066 0 0 0 3.362 1.307c4.043 1.132 15.671 4.153 36.261 7.734l.023.003a1.445 1.445 0 0 0 .473-2.85c-19.288-3.358-30.63-6.205-35.218-7.459-1.858-5.73-6.184-10.175-11.192-13.33a22.893 22.893 0 0 0-8.602-3.226l-2.424-.384a11.356 11.356 0 0 1 .229-1.813l.115.008a103.65 103.65 0 0 1 28.102 5.703 1.446 1.446 0 0 0 1.01-2.71c-1.095-.432-2.219-.795-3.336-1.159a88.818 88.818 0 0 0-4.06-1.206c-1.189-5.367-4.103-10.033-9.033-12.711l-7.515-4.076a18.5 18.5 0 0 1 7.084-6.728 1.18 1.18 0 0 1 1.578.52C25.67 21.784 35.55 21.143 40.93 19.813a6.744 6.744 0 0 0 4.301-3.307l.034.068a4.322 4.322 0 0 1-.731 4.656 7.207 7.207 0 0 0 5.927 12.057 14.5 14.5 0 0 1 5.54.531 30.577 30.577 0 0 1 7.739 4.245c3.588 2.433 7.457 5.535 12.077 4.14l.02-.007a11.047 11.047 0 0 0 5.93-4.992l.044-.07c2.426 1.637 7.593 5.113 11 7.316l-1.352.558c-6.847 2.744-16.948 5.709-26.187 4.245-6.155-.974-10.793-3.449-16.154-6.304-2.606-1.39-5.3-2.828-8.439-4.254a1.446 1.446 0 0 0-1.196 2.634c3.056 1.387 5.708 2.801 8.274 4.17 5.596 2.985 10.43 5.562 17.065 6.613 8.513 1.349 17.367-.583 25.354-3.514l-.172 1.087a3.883 3.883 0 0 1-1.747 2.651 24.909 24.909 0 0 1-5.792 2.569c-3.257 1.03-5.68 3.735-7.259 6.667l-.023.042c-2.11-.26-4.207-.666-6.306-.999l-.01-.001a1.446 1.446 0 0 0-.463 2.854c1.743.289 3.521.576 5.283.855.73.116 1.473.208 2.208.274A24.433 24.433 0 0 0 92.2 60.622a24.833 24.833 0 0 0 7.08-7.375 6.983 6.983 0 0 0-2.358-9.612L82.127 33.87a182.604 182.604 0 0 1-10.898-8.436 4.329 4.329 0 0 0-.581-5.231 4.371 4.371 0 0 0-5.77-.447q-.985-.943-1.896-1.862a4.328 4.328 0 0 0-.34-5.588 4.372 4.372 0 0 0-5.344-.736 58.582 58.582 0 0 1-1.558-2.023 6.889 6.889 0 0 0-4.505-2.744 8.668 8.668 0 0 0-4.777.871 5.307 5.307 0 0 0-3.294 5.293 3.883 3.883 0 0 1-2.933 4.05c-5.576 1.381-13.18 1.238-17.746-7.296a4.1 4.1 0 0 0-5.432-1.735 22.022 22.022 0 0 0-9.056 9.144A41.361 41.361 0 0 0 3.44 31.033a21.052 21.052 0 0 0-.516 5.61zm93.884 15.082a21.873 21.873 0 0 1-6.238 6.497 21.085 21.085 0 0 1-12.169 3.593l.135-.21a9.4 9.4 0 0 1 4.792-3.955 27.776 27.776 0 0 0 6.46-2.879 6.734 6.734 0 0 0 3.063-4.641l.436-2.751a131.01 131.01 0 0 0 2.462-1.06 4.075 4.075 0 0 1 1.605 3.928 4.008 4.008 0 0 1-.546 1.48zm-29.07-29.96a1.435 1.435 0 0 1 1.217 1.457 1.879 1.879 0 0 1-.77 1.323l-4.5 4.304a1.468 1.468 0 0 1-2.047-.046 1.449 1.449 0 0 1 .045-2.046l4.826-4.615a1.455 1.455 0 0 1 1.225-.377zm-8.009-7.885a1.416 1.416 0 0 1 .82.414 1.458 1.458 0 0 1-.045 2.046l-4.826 4.614a1.447 1.447 0 1 1-1.998-2.091l4.827-4.614a1.461 1.461 0 0 1 1.218-.37zM47.55 10.339a5.859 5.859 0 0 1 3.23-.692 4.018 4.018 0 0 1 2.626 1.602 64.319 64.319 0 0 0 1.72 2.23l-3.445 3.293a4.338 4.338 0 0 0 5.993 6.271l3.257-3.116q.881.887 1.832 1.8l-3.077 2.94a4.337 4.337 0 1 0 5.993 6.27l3.56-3.403c3.121 2.627 6.538 5.287 10.183 7.94a12.592 12.592 0 0 1-.713 1.074 6.757 6.757 0 0 1-5.136 3.092c-2.281.027-4.31-1.36-6.13-2.573-3.928-2.616-7.956-5.746-12.737-6.522l-.1-.016c-2.265-.358-5.373.492-7.325-.937l-.051-.04a4.391 4.391 0 0 1-.587-6.362 7.158 7.158 0 0 0 .702-8.786l-1.305-1.986a2.424 2.424 0 0 1 1.506-2.079zM7.73 38.484a22.852 22.852 0 0 1 8.644 3.526 20.765 20.765 0 0 1 7.979 8.839l-14.766-8.65a7.775 7.775 0 0 1-3.331-3.948zM20.196 25.88a14.954 14.954 0 0 1 4.472 7.4 106.727 106.727 0 0 0-7.544-1.468A131.89 131.89 0 0 0 6.837 30.6l-.39-.032a39.279 39.279 0 0 1 3.389-10.773l7.564 4.101a14.488 14.488 0 0 1 2.795 1.983z" fill="#1cb0e6"/></svg>