<svg xmlns="http://www.w3.org/2000/svg" width="85.02" height="79.731" viewBox="0 0 85.02 79.731">
  <g id="Group_1399" data-name="Group 1399" transform="translate(-1171.304 -1004.209)">
    <path id="Path_4386" data-name="Path 4386" d="M1256.324,1023.547a1.2,1.2,0,0,0-.133-.55l-9.319-18.134a1.2,1.2,0,0,0-1.071-.654h-62.967a1.2,1.2,0,0,0-1.046.608l-10.327,18.134a1.2,1.2,0,0,0-.157.6,11.542,11.542,0,0,0,10.074,11.429v47.76a1.2,1.2,0,0,0,2.408,0v-47.707a11.542,11.542,0,0,0,9.377-6.381,11.505,11.505,0,0,0,20.651,0,11.506,11.506,0,0,0,20.654,0,11.536,11.536,0,0,0,9.374,6.384v29.88h-33.525v-24.991a1.2,1.2,0,0,0-2.408,0v42.818a1.2,1.2,0,1,0,2.408,0v-15.419h33.525v15.419a1.2,1.2,0,0,0,2.408,0v-47.76A11.54,11.54,0,0,0,1256.324,1023.547Zm-73.489,9.122a9.133,9.133,0,0,1-9.117-8.813l9.817-17.24h8.657l-.234,16.93A9.133,9.133,0,0,1,1182.835,1032.67Zm20.654,0a9.132,9.132,0,0,1-9.122-9.119l.234-16.934h18.01v16.93A9.133,9.133,0,0,1,1203.488,1032.67Zm20.652,0a9.133,9.133,0,0,1-9.122-9.122v-16.93H1233.5l-.234,16.93A9.133,9.133,0,0,1,1224.14,1032.67Zm20.654,0a9.129,9.129,0,0,1-9.123-9.106l.234-16.947h9.16l8.845,17.214A9.132,9.132,0,0,1,1244.794,1032.67Z" transform="translate(0 0)" fill="#3c465a"/>
    <path id="Path_4387" data-name="Path 4387" d="M1233.732,1051.988l-11.586,11.586a1.2,1.2,0,0,0,1.7,1.7l11.586-11.585a1.2,1.2,0,1,0-1.7-1.7Z" transform="translate(-7.588 -7.128)" fill="#3c465a"/>
    <path id="Path_4388" data-name="Path 4388" d="M1229.675,1069.825l-.712.713a1.2,1.2,0,1,0,1.7,1.7l.712-.712a1.2,1.2,0,1,0-1.7-1.7Z" transform="translate(-8.613 -9.809)" fill="#3c465a"/>
    <path id="Path_4389" data-name="Path 4389" d="M1234.389,1064.949a1.2,1.2,0,0,0,1.7,0l11.258-11.258a1.2,1.2,0,1,0-1.7-1.7l-11.258,11.258A1.2,1.2,0,0,0,1234.389,1064.949Z" transform="translate(-9.428 -7.128)" fill="#3c465a"/>
    <path id="Path_4390" data-name="Path 4390" d="M1207.079,1067.346h-4.534a1.2,1.2,0,1,0,0,2.408h4.534a1.2,1.2,0,1,0,0-2.408Z" transform="translate(-4.515 -9.489)" fill="#3c465a"/>
  </g>
</svg>
