<svg xmlns="http://www.w3.org/2000/svg" width="122.696" height="78.959" viewBox="0 0 122.696 78.959"><defs><style>.a{fill:#1cb0e6;}</style></defs><path class="a" d="M810.536,923.542a12.382,12.382,0,0,0,7.419,8.278l18.717,7.32a16.315,16.315,0,0,0,4.089.888c4.837.564,18.706,1.913,42.942,2.28h.026a1.676,1.676,0,0,0,.025-3.351c-22.7-.343-36.212-1.551-41.7-2.155-3.169-6.226-8.927-10.533-15.24-13.24a26.552,26.552,0,0,0-10.442-2.134h-2.847a13.167,13.167,0,0,1-.068-2.117l.134-.011c11.07-.873,22.308-.772,33.227,1.433a1.677,1.677,0,0,0,.664-3.288c-1.332-.3-2.685-.509-4.031-.721-1.6-.252-3.219-.466-4.876-.645-2.335-5.933-6.519-10.749-12.653-12.923l-9.349-3.306a21.453,21.453,0,0,1,6.9-8.992,1.368,1.368,0,0,1,1.9.31c8.508,11.226,19.709,8.7,25.63,6.2a7.822,7.822,0,0,0,4.327-4.568l.051.072a5.012,5.012,0,0,1,.007,5.466,8.359,8.359,0,0,0,8.977,12.736,16.809,16.809,0,0,1,6.443-.4c3.377.5,6.574,2.022,9.635,3.458,4.552,2.137,9.546,4.993,14.586,2.552l.022-.011a12.811,12.811,0,0,0,5.886-6.794l.039-.088c3.077,1.435,9.631,4.479,13.929,6.385l-1.449.884c-7.344,4.386-18.378,9.615-29.222,9.615-7.227,0-12.985-1.992-19.65-4.3-3.237-1.119-6.584-2.277-10.441-3.341a1.677,1.677,0,0,0-.892,3.234c3.752,1.035,7.047,2.174,10.234,3.276,6.952,2.4,12.958,4.479,20.749,4.479,10,0,19.788-3.82,28.406-8.625v1.274a4.5,4.5,0,0,1-1.521,3.354,28.888,28.888,0,0,1-6.169,3.993c-3.544,1.771-5.828,5.31-7.1,8.955-.007.018-.014.035-.019.052-2.465.085-4.939,0-7.4,0h-.012a1.677,1.677,0,0,0-.011,3.354c2.05.014,4.138.021,6.207.021.857,0,1.725-.029,2.578-.087a28.338,28.338,0,0,0,17.959-7.511,28.8,28.8,0,0,0,6.771-9.733,8.1,8.1,0,0,0-4.444-10.583l-18.721-8.5c-5-2.512-9.7-5.094-14.015-7.687a5.021,5.021,0,0,0-1.614-5.887,5.069,5.069,0,0,0-6.691.535q-1.3-.9-2.51-1.788a5.02,5.02,0,0,0-1.4-6.34,5.07,5.07,0,0,0-6.255.127c-.757-.686-1.479-1.369-2.152-2.035a7.99,7.99,0,0,0-5.659-2.327,10.053,10.053,0,0,0-5.314,1.865,6.155,6.155,0,0,0-2.812,6.661,4.5,4.5,0,0,1-2.626,5.172c-6.137,2.593-14.874,3.809-21.653-5.137a4.755,4.755,0,0,0-6.537-1c-2.619,1.893-6.255,5.53-8.715,12.118a47.971,47.971,0,0,0-2.687,16.764A24.411,24.411,0,0,0,810.536,923.542Zm110.284.244a25.368,25.368,0,0,1-5.967,8.574,24.454,24.454,0,0,1-13.288,6.323c.039-.088.077-.177.119-.265a10.9,10.9,0,0,1,4.771-5.4,32.216,32.216,0,0,0,6.877-4.47,7.81,7.81,0,0,0,2.663-5.874v-3.23c.034-.021,1.8-1.114,2.629-1.661a4.726,4.726,0,0,1,2.55,4.208A4.648,4.648,0,0,1,920.821,923.786ZM882.079,894.74a1.665,1.665,0,0,1,1.66,1.447,2.179,2.179,0,0,1-.642,1.656s-4.37,5.741-4.375,5.747a1.7,1.7,0,0,1-2.352.318,1.681,1.681,0,0,1-.32-2.352s4.687-6.155,4.691-6.162A1.688,1.688,0,0,1,882.079,894.74Zm-10.6-7.58a1.642,1.642,0,0,1,1.015.325,1.691,1.691,0,0,1,.318,2.352L868.116,896a1.679,1.679,0,1,1-2.671-2.033l4.692-6.16A1.694,1.694,0,0,1,871.474,887.16Zm-14.594-1.847a6.8,6.8,0,0,1,3.573-1.379,4.66,4.66,0,0,1,3.3,1.359c.743.735,1.537,1.486,2.374,2.243l-3.348,4.4a5.031,5.031,0,0,0,8,6.1l3.166-4.16q1.17.856,2.425,1.729l-2.991,3.929a5.03,5.03,0,1,0,8,6.094l3.46-4.545c4.053,2.444,8.449,4.876,13.105,7.249a14.62,14.62,0,0,1-.622,1.359c-1.11,2.12-2.863,4.051-5.322,4.473-2.608.445-5.184-.775-7.491-1.835-4.974-2.284-10.155-5.139-15.772-5.16h-.113c-2.66,0-6.067,1.538-8.562.255l-.066-.036a5.092,5.092,0,0,1-1.827-7.182,8.3,8.3,0,0,0-.79-10.192l-1.858-2.037A2.811,2.811,0,0,1,856.881,885.312Zm-40.5,39.466a26.5,26.5,0,0,1,10.541,2.47,24.084,24.084,0,0,1,10.744,8.678L819.177,928.7a9.018,9.018,0,0,1-4.532-3.919Zm11.993-16.7a17.344,17.344,0,0,1,6.467,7.666c-2.869-.208-5.854-.313-8.909-.313-4,0-8.012.167-12,.481l-.452.033a45.554,45.554,0,0,1,1.927-12.956l9.41,3.326A16.8,16.8,0,0,1,828.368,908.078Z" transform="translate(-652.693 -996.467) rotate(9)"/></svg>