<svg xmlns="http://www.w3.org/2000/svg" width="727.07" height="681.844"><defs><style>.b{fill:#41bbe7}</style></defs><g opacity=".107"><path class="b" d="M727.07 165.378a10.292 10.292 0 0 0-1.132-4.708L646.247 5.591a10.3 10.3 0 0 0-9.157-5.6H98.607a10.283 10.283 0 0 0-8.947 5.2L1.345 160.273A10.247 10.247 0 0 0 0 165.367a98.7 98.7 0 0 0 86.151 97.734v408.435a10.3 10.3 0 0 0 20.594 0V263.569a98.706 98.706 0 0 0 80.186-54.57 98.388 98.388 0 0 0 176.605-.022 98.4 98.4 0 0 0 176.626 0 98.655 98.655 0 0 0 80.164 54.593v255.527h-286.7V305.381a10.3 10.3 0 0 0-20.594 0v366.166a10.3 10.3 0 0 0 20.594 0V539.682h286.7v131.865a10.3 10.3 0 0 0 20.594 0V263.112a98.687 98.687 0 0 0 86.15-97.734zM98.607 243.391a78.1 78.1 0 0 1-77.963-75.368l83.95-147.43h74.03l-2.005 144.785a78.1 78.1 0 0 1-78.012 78.013zm176.625 0a78.1 78.1 0 0 1-78.013-77.982l2.006-144.816h154.014v144.785a78.1 78.1 0 0 1-78.006 78.013zm176.612 0a78.1 78.1 0 0 1-78.012-78.013V20.591h158.032l-2 144.785a78.107 78.107 0 0 1-78.019 78.015zm176.628 0a78.072 78.072 0 0 1-78.014-77.874l2.005-144.924h78.333l75.637 147.206a78.091 78.091 0 0 1-77.961 75.592z"/><path class="b" d="M468.979 347.644L369.9 446.723a10.294 10.294 0 0 0 14.563 14.554l99.079-99.071a10.3 10.3 0 0 0-14.562-14.562zM425.52 477.249l-6.09 6.1a10.3 10.3 0 1 0 14.576 14.554l6.09-6.089a10.302 10.302 0 0 0-14.576-14.562zm33.338-18.769a10.3 10.3 0 0 0 14.562 0l96.274-96.273a10.3 10.3 0 0 0-14.562-14.562l-96.274 96.274a10.288 10.288 0 0 0 0 14.561zm-191.523.304h-38.774a10.3 10.3 0 1 0 0 20.593h38.774a10.3 10.3 0 0 0 0-20.593z"/></g></svg>