<svg xmlns="http://www.w3.org/2000/svg" width="88.008" height="83.78" viewBox="0 0 88.008 83.78">
  <g id="Group_1413" data-name="Group 1413" transform="translate(-1477.188 -3308.332)">
    <g id="Group_1412" data-name="Group 1412" transform="translate(1477.188 3308.332)">
      <path id="Path_4425" data-name="Path 4425" d="M74.716,945.151H63.261V897.672a1.343,1.343,0,0,0-1.343-1.343H50.542a1.344,1.344,0,0,0-1.344,1.343v47.479H39.561V910.737a1.343,1.343,0,0,0-1.343-1.343H26.841a1.344,1.344,0,0,0-1.344,1.343v34.415H15.861V923.8a1.343,1.343,0,0,0-1.343-1.343H3.141A1.343,1.343,0,0,0,1.8,923.8v21.349H-10.6a1.344,1.344,0,0,0-1.344,1.343,1.344,1.344,0,0,0,1.344,1.343h85.32a1.343,1.343,0,1,0,0-2.687Zm-70.231,0V925.145h8.688v20.006Zm23.7,0V912.08h8.688v33.071Zm23.7,0V899.016h8.688v46.136Z" transform="translate(11.949 -864.058)" fill="#1cb0e6"/>
      <path id="Path_4426" data-name="Path 4426" d="M5.11,905.469a1.336,1.336,0,0,0,.95-.393L30.516,880.62l7.425,7.425a1.341,1.341,0,0,0,1.9,0L60.966,866.92v8.11a1.344,1.344,0,0,0,2.688,0V863.767a1.337,1.337,0,0,0-.019-.325,1.489,1.489,0,0,0-.028-.147,1.41,1.41,0,0,0-.071-.211,1.352,1.352,0,0,0-.237-.356c-.007-.008-.009-.017-.016-.024l-.009-.006a1.336,1.336,0,0,0-.963-.411h-11.4a1.343,1.343,0,0,0,0,2.687h8.2l-20.22,20.219-7.424-7.424a1.342,1.342,0,0,0-1.9,0L4.16,903.175a1.343,1.343,0,0,0,.95,2.293Z" transform="translate(11.132 -862.288)" fill="#1cb0e6"/>
      <path id="Path_4427" data-name="Path 4427" d="M-3.749,916.37a1.336,1.336,0,0,0,.951-.393L.459,912.72a1.344,1.344,0,0,0,0-1.9,1.342,1.342,0,0,0-1.9,0L-4.7,914.077a1.344,1.344,0,0,0,0,1.9A1.334,1.334,0,0,0-3.749,916.37Z" transform="translate(11.592 -864.791)" fill="#1cb0e6"/>
    </g>
  </g>
</svg>
