<?xml version="1.0" encoding="UTF-8"?>
<svg width="52px" height="34px" viewBox="0 0 52 34" version="1.1" xmlns="http://www.w3.org/2000/svg" xmlns:xlink="http://www.w3.org/1999/xlink">
    <!-- Generator: Sketch 52.2 (67145) - http://www.bohemiancoding.com/sketch -->
    <title>australia (1)</title>
    <desc>Created with Sketch.</desc>
    <g id="03" stroke="none" stroke-width="1" fill="none" fill-rule="evenodd">
        <g id="Terms-and-conditions" transform="translate(-222.000000, -762.000000)">
            <g id="australia-(1)" transform="translate(222.613604, 762.261128)">
                <path d="M50.3172,33.5725 L0.8828,33.5725 C0.3953,33.5725 0,33.1772 0,32.6897 L0,0.9104 C0,0.4229 0.3953,0.0276 0.8828,0.0276 L50.3173,0.0276 C50.8048,0.0276 51.2001,0.4229 51.2001,0.9104 L51.2001,32.6897 C51.2,33.1773 50.8047,33.5725 50.3172,33.5725 Z" id="Path" fill="#41479B"></path>
                <path d="M24.7172,0.0277 L23.1838,0.0277 L15.0068,5.3851 L15.0068,0.0277 L10.593,0.0277 L10.593,5.3851 L2.416,0.0277 L0.8828,0.0277 C0.3953,0.0277 0,0.4229 0,0.9104 L0,1.6106 L7.0155,6.2069 L0,6.2069 L0,10.6207 L7.0155,10.6207 L0,15.2171 L0,15.9173 C0,16.4048 0.3953,16.8001 0.8828,16.8001 L2.4162,16.8001 L10.5932,11.4427 L10.5932,16.8001 L15.007,16.8001 L15.007,11.4427 L23.1839,16.8001 L24.7173,16.8001 C25.2048,16.8001 25.6001,16.4048 25.6001,15.9173 L25.6001,15.2171 L18.5846,10.6208 L25.6,10.6208 L25.6,6.207 L18.5845,6.207 L25.6,1.6107 L25.6,0.9105 C25.6,0.4229 25.2047,0.0277 24.7172,0.0277 Z" id="Path" fill="#F5F5F5"></path>
                <g id="Group" fill="#FF4B55">
                    <polygon id="Path" points="25.6 7.0898 14.1241 7.0898 14.1241 0.0277 11.4759 0.0277 11.4759 7.0898 0 7.0898 0 9.738 11.4759 9.738 11.4759 16.8001 14.1241 16.8001 14.1241 9.738 25.6 9.738"></polygon>
                    <path d="M9.7103,6.207 L0.4207,0.1769 C0.1735,0.3333 0,0.5962 0,0.9104 L0,0.9562 L8.0889,6.207 L9.7103,6.207 Z" id="Path"></path>
                    <path d="M16.6283,6.207 L25.4657,0.4704 C25.3121,0.2105 25.0411,0.0277 24.7172,0.0277 L24.5263,0.0277 L15.0069,6.207 L16.6283,6.207 Z" id="Path"></path>
                    <path d="M8.9474,10.6208 L0.1269,16.3464 C0.279,16.6126 0.5542,16.8001 0.8828,16.8001 L1.0493,16.8001 L10.5689,10.6208 L8.9474,10.6208 Z" id="Path"></path>
                    <path d="M25.586,15.9866 L17.3194,10.6208 L15.698,10.6208 L25.0854,16.7143 C25.3666,16.5838 25.5595,16.3103 25.586,15.9866 Z" id="Path"></path>
                </g>
                <g id="Group" transform="translate(8.800000, 5.900000)" fill="#F5F5F5">
                    <path d="M4.2671,15.7131 L4.9334,17.9128 L7.0687,17.0623 C7.2509,16.9897 7.4165,17.1975 7.3053,17.3589 L6.0009,19.2513 L7.9971,20.3904 C8.1674,20.4876 8.1083,20.7466 7.9127,20.7603 L5.6198,20.9204 L5.9739,23.1914 C6.0041,23.3852 5.7647,23.5005 5.6321,23.356 L4.0773,21.6632 L2.5225,23.356 C2.3899,23.5004 2.1505,23.3851 2.1807,23.1914 L2.5348,20.9204 L0.2419,20.7603 C0.0463,20.7466 -0.0128,20.4876 0.1575,20.3904 L2.1537,19.2513 L0.8493,17.3589 C0.7381,17.1975 0.9037,16.9897 1.0859,17.0623 L3.2212,17.9128 L3.8875,15.7131 C3.9446,15.5254 4.2103,15.5254 4.2671,15.7131 Z" id="Path"></path>
                    <path d="M30.5279,0.073 L30.8534,1.1475 L31.8964,0.7321 C31.9853,0.6967 32.0663,0.7981 32.0119,0.877 L31.3748,1.8015 L32.3499,2.358 C32.4331,2.4054 32.4042,2.532 32.3086,2.5386 L31.1886,2.6168 L31.3615,3.7261 C31.3763,3.8208 31.2593,3.8771 31.1945,3.8065 L30.435,2.9796 L29.6755,3.8065 C29.6107,3.877 29.4938,3.8207 29.5085,3.7261 L29.6814,2.6168 L28.5614,2.5386 C28.4658,2.532 28.4369,2.4054 28.5201,2.358 L29.4952,1.8015 L28.8581,0.877 C28.8037,0.7981 28.8847,0.6967 28.9736,0.7321 L30.0166,1.1475 L30.3421,0.073 C30.3703,-0.0187 30.5002,-0.0187 30.5279,0.073 Z" id="Path"></path>
                    <path d="M23.2702,8.3206 L23.5957,9.3951 L24.6387,8.9797 C24.7276,8.9443 24.8086,9.0457 24.7542,9.1246 L24.1171,10.0491 L25.0922,10.6056 C25.1754,10.653 25.1465,10.7796 25.0509,10.7862 L23.9309,10.8644 L24.1038,11.9737 C24.1186,12.0684 24.0016,12.1247 23.9368,12.0541 L23.1773,11.2272 L22.4178,12.0541 C22.353,12.1246 22.2361,12.0683 22.2508,11.9737 L22.4237,10.8644 L21.3037,10.7862 C21.2081,10.7796 21.1792,10.653 21.2624,10.6056 L22.2375,10.0491 L21.6004,9.1246 C21.546,9.0457 21.627,8.9443 21.7159,8.9797 L22.7589,9.3951 L23.0844,8.3206 C23.1126,8.2289 23.2424,8.2289 23.2702,8.3206 Z" id="Path"></path>
                    <path d="M37.3943,4.7895 L37.7198,5.864 L38.7628,5.4486 C38.8517,5.4132 38.9327,5.5146 38.8783,5.5935 L38.2412,6.518 L39.2163,7.0745 C39.2995,7.1219 39.2706,7.2485 39.175,7.2551 L38.055,7.3333 L38.2279,8.4426 C38.2427,8.5373 38.1257,8.5936 38.061,8.523 L37.3015,7.6961 L36.542,8.523 C36.4772,8.5935 36.3603,8.5372 36.375,8.4426 L36.5479,7.3333 L35.4279,7.2551 C35.3323,7.2485 35.3034,7.1219 35.3866,7.0745 L36.3617,6.518 L35.7246,5.5935 C35.6702,5.5146 35.7512,5.4132 35.8401,5.4486 L36.8831,5.864 L37.2086,4.7895 C37.2367,4.6978 37.3665,4.6978 37.3943,4.7895 Z" id="Path"></path>
                    <path d="M30.5279,18.9137 L30.8534,19.9882 L31.8964,19.5727 C31.9853,19.5373 32.0663,19.6387 32.0119,19.7176 L31.3748,20.6421 L32.3499,21.1986 C32.4331,21.246 32.4042,21.3726 32.3086,21.3792 L31.1886,21.4574 L31.3615,22.5667 C31.3763,22.6614 31.2593,22.7177 31.1945,22.6471 L30.435,21.8202 L29.6755,22.6471 C29.6107,22.7176 29.4938,22.6613 29.5085,22.5667 L29.6814,21.4574 L28.5614,21.3792 C28.4658,21.3726 28.4369,21.246 28.5201,21.1986 L29.4952,20.6421 L28.8581,19.7176 C28.8037,19.6387 28.8847,19.5373 28.9736,19.5727 L30.0166,19.9882 L30.3421,18.9137 C30.3703,18.822 30.5002,18.822 30.5279,18.9137 Z" id="Path"></path>
                    <path d="M33.0461,10.2514 L32.7848,11.035 L31.9589,11.0414 C31.852,11.0423 31.8076,11.1787 31.8937,11.2422 L32.5581,11.7329 L32.3089,12.5204 C32.2767,12.6224 32.3928,12.7067 32.4797,12.6445 L33.1517,12.1642 L33.8237,12.6445 C33.9107,12.7067 34.0267,12.6223 33.9945,12.5204 L33.7453,11.7329 L34.4097,11.2422 C34.4958,11.1786 34.4514,11.0423 34.3445,11.0414 L33.5186,11.035 L33.2573,10.2514 C33.2234,10.1499 33.0799,10.1499 33.0461,10.2514 Z" id="Path"></path>
                </g>
            </g>
        </g>
    </g>
</svg>