<?xml version="1.0" encoding="UTF-8"?>
<svg width="17px" height="21px" viewBox="0 0 17 21" version="1.1" xmlns="http://www.w3.org/2000/svg" xmlns:xlink="http://www.w3.org/1999/xlink">
    <!-- Generator: Sketch 52.2 (67145) - http://www.bohemiancoding.com/sketch -->
    <title>Location icon Copy 3</title>
    <desc>Created with Sketch.</desc>
    <defs>
        <path d="M8.1601349,0.000510008431 C3.66084052,0.000510008431 0,3.66033051 0,8.16064491 C0,15.8046513 7.34106136,20.0877021 7.65420654,20.266205 C7.81026912,20.3559665 7.98571202,20.4008473 8.1601349,20.4008473 C8.33455778,20.4008473 8.51000069,20.3559665 8.66606327,20.266205 C8.97920844,20.0877021 16.3202698,15.8046513 16.3202698,8.16064491 C16.3202698,3.66033051 12.6594293,0.000510008431 8.1601349,0.000510008431 M8.15911488,18.1700704 C6.60766924,17.118433 2.04003373,13.5616342 2.04003373,8.16064491 C2.04003373,4.78540911 4.7848991,2.04054373 8.1601349,2.04054373 C11.5353707,2.04054373 14.2802361,4.78540911 14.2802361,8.16064491 C14.2802361,13.5422539 9.7085205,17.1143529 8.15911488,18.1700704 M8.1601349,10.2001686 C7.0350563,10.2001686 6.12010118,9.2852135 6.12010118,8.1601349 C6.12010118,7.0350563 7.0350563,6.12010118 8.1601349,6.12010118 C9.2852135,6.12010118 10.2001686,7.0350563 10.2001686,8.1601349 C10.2001686,9.2852135 9.2852135,10.2001686 8.1601349,10.2001686 M8.1601349,4.08006745 C5.9099777,4.08006745 4.08006745,5.9099777 4.08006745,8.1601349 C4.08006745,10.4102921 5.9099777,12.2402024 8.1601349,12.2402024 C10.4102921,12.2402024 12.2402024,10.4102921 12.2402024,8.1601349 C12.2402024,5.9099777 10.4102921,4.08006745 8.1601349,4.08006745" id="path-1"></path>
    </defs>
    <g id="OP_01-Journeys-with-post-code--Copy" stroke="none" stroke-width="1" fill="none" fill-rule="evenodd">
        <g id="Desktop-HD" transform="translate(-412.000000, -588.000000)">
            <g id="Group-3" transform="translate(390.000000, 461.000000)">
                <g id="Group-8">
                    <g id="Location-icon" transform="translate(22.254913, 127.438801)">
                        <g>
                            <mask id="mask-2" fill="white">
                                <use xlink:href="#path-1"></use>
                            </mask>
                            <use id="Icon" fill="#38465B" xlink:href="#path-1"></use>
                        </g>
                    </g>
                </g>
            </g>
        </g>
    </g>
</svg>