<?xml version="1.0" encoding="UTF-8"?>
<svg width="52px" height="34px" viewBox="0 0 52 34" version="1.1" xmlns="http://www.w3.org/2000/svg" xmlns:xlink="http://www.w3.org/1999/xlink">
    <!-- Generator: Sketch 52.2 (67145) - http://www.bohemiancoding.com/sketch -->
    <title>new-zealand</title>
    <desc>Created with Sketch.</desc>
    <g id="03" stroke="none" stroke-width="1" fill="none" fill-rule="evenodd">
        <g id="Terms-and-conditions" transform="translate(-441.000000, -762.000000)">
            <g id="new-zealand" transform="translate(441.706017, 762.079778)">
                <path d="M50.3172,33.5725 L0.8828,33.5725 C0.3953,33.5725 0,33.1772 0,32.6897 L0,0.9104 C0,0.4229 0.3953,0.0276 0.8828,0.0276 L50.3173,0.0276 C50.8048,0.0276 51.2001,0.4229 51.2001,0.9104 L51.2001,32.6897 C51.2,33.1773 50.8047,33.5725 50.3172,33.5725 Z" id="Path" fill="#41479B"></path>
                <path d="M24.7172,0.0277 L23.1838,0.0277 L15.0068,5.3851 L15.0068,0.0277 L10.593,0.0277 L10.593,5.3851 L2.416,0.0277 L0.8828,0.0277 C0.3953,0.0277 0,0.4229 0,0.9104 L0,1.6106 L7.0155,6.2069 L0,6.2069 L0,10.6207 L7.0155,10.6207 L0,15.2171 L0,15.9173 C0,16.4048 0.3953,16.8001 0.8828,16.8001 L2.4162,16.8001 L10.5932,11.4427 L10.5932,16.8001 L15.007,16.8001 L15.007,11.4427 L23.1839,16.8001 L24.7173,16.8001 C25.2048,16.8001 25.6001,16.4048 25.6001,15.9173 L25.6001,15.2171 L18.5846,10.6208 L25.6,10.6208 L25.6,6.207 L18.5845,6.207 L25.6,1.6107 L25.6,0.9105 C25.6,0.4229 25.2047,0.0277 24.7172,0.0277 Z" id="Path" fill="#F5F5F5"></path>
                <g id="Group" fill="#FF4B55">
                    <polygon id="Path" points="25.6 7.0898 14.1241 7.0898 14.1241 0.0277 11.4759 0.0277 11.4759 7.0898 0 7.0898 0 9.738 11.4759 9.738 11.4759 16.8001 14.1241 16.8001 14.1241 9.738 25.6 9.738"></polygon>
                    <path d="M9.7103,6.207 L0.4207,0.1769 C0.1735,0.3333 0,0.5962 0,0.9104 L0,0.9562 L8.0889,6.207 L9.7103,6.207 Z" id="Path"></path>
                    <path d="M16.6283,6.207 L25.4657,0.4704 C25.3121,0.2105 25.0411,0.0277 24.7172,0.0277 L24.5263,0.0277 L15.0069,6.207 L16.6283,6.207 Z" id="Path"></path>
                    <path d="M8.9474,10.6208 L0.1269,16.3464 C0.279,16.6126 0.5542,16.8001 0.8828,16.8001 L1.0493,16.8001 L10.5689,10.6208 L8.9474,10.6208 Z" id="Path"></path>
                    <path d="M25.586,15.9866 L17.3194,10.6208 L15.698,10.6208 L25.0854,16.7143 C25.3666,16.5838 25.5595,16.3103 25.586,15.9866 Z" id="Path"></path>
                    <path d="M39.5474,28.0114 C39.5116,28.0114 39.4755,28.0001 39.4448,27.9786 L38.4,27.232 L37.3551,27.9786 C37.3245,28.0001 37.2883,28.0114 37.2525,28.0114 C37.2159,28.0114 37.1797,28.0001 37.1487,27.9777 C37.0875,27.9329 37.0612,27.8536 37.084,27.7812 L37.4715,26.557 L36.4388,25.795 C36.3776,25.7493 36.3522,25.6709 36.3755,25.5985 C36.3992,25.5261 36.466,25.4769 36.5423,25.4761 L37.8264,25.4657 L38.2325,24.2476 C38.2567,24.1761 38.3243,24.1269 38.4002,24.1269 C38.4761,24.1269 38.5438,24.176 38.5679,24.2476 L38.974,25.4657 L40.2581,25.4761 C40.3344,25.477 40.4012,25.5261 40.4249,25.5985 C40.4482,25.6709 40.4227,25.7493 40.3616,25.795 L39.3289,26.557 L39.7164,27.7812 C39.7392,27.8536 39.713,27.9329 39.6517,27.9777 C39.6203,28.0001 39.5837,28.0114 39.5474,28.0114 Z" id="Path"></path>
                </g>
                <path d="M38.4,24.3035 L38.8461,25.6413 L40.2563,25.6522 L39.1218,26.4899 L39.5472,27.8344 L38.4,27.0145 L37.2527,27.8346 L37.6781,26.4901 L36.5436,25.6524 L37.9538,25.6415 L38.4,24.3035 Z M38.4,23.9504 C38.2481,23.9504 38.1131,24.0476 38.065,24.1918 L37.6987,25.2902 L36.5409,25.2992 C36.389,25.3003 36.2548,25.3986 36.2078,25.5432 C36.1608,25.6878 36.2117,25.8461 36.3338,25.9364 L37.2652,26.6242 L36.916,27.7281 C36.8702,27.873 36.9222,28.031 37.0451,28.1203 C37.107,28.1652 37.1798,28.1877 37.2527,28.1877 C37.3246,28.1877 37.3966,28.1657 37.4581,28.1218 L38.4001,27.4485 L39.3421,28.1218 C39.4036,28.1656 39.4755,28.1877 39.5474,28.1877 C39.6202,28.1877 39.6931,28.1652 39.755,28.1203 C39.8779,28.0309 39.9299,27.873 39.8841,27.7281 L39.5349,26.6242 L40.4663,25.9364 C40.5886,25.8461 40.6393,25.6878 40.5923,25.5432 C40.5453,25.3987 40.4112,25.3003 40.2592,25.2992 L39.1014,25.2902 L38.7351,24.1918 C38.6869,24.0477 38.5519,23.9504 38.4,23.9504 Z" id="Shape" fill="#F5F5F5" fill-rule="nonzero"></path>
                <path d="M39.5474,13.7794 C39.5112,13.7794 39.4755,13.7681 39.4448,13.7466 L38.4,12.9993 L37.3551,13.7467 C37.3245,13.7682 37.2883,13.7795 37.2525,13.7795 C37.2163,13.7795 37.1797,13.7682 37.1487,13.7458 C37.0875,13.701 37.0612,13.6217 37.084,13.5493 L37.4715,12.3251 L36.4388,11.5622 C36.3776,11.5165 36.3522,11.4372 36.3755,11.3657 C36.3992,11.2933 36.4664,11.2441 36.5423,11.2433 L37.8264,11.2338 L38.2325,10.0157 C38.2567,9.9442 38.3243,9.895 38.4002,9.895 C38.4761,9.895 38.5438,9.9441 38.5679,10.0157 L38.974,11.2338 L40.2581,11.2433 C40.334,11.2442 40.4012,11.2933 40.4249,11.3657 C40.4482,11.4372 40.4227,11.5165 40.3616,11.5622 L39.3289,12.3251 L39.7164,13.5493 C39.7392,13.6217 39.713,13.701 39.6517,13.7458 C39.6203,13.7682 39.5837,13.7794 39.5474,13.7794 Z" id="Path" fill="#FF4B55"></path>
                <path d="M38.4,10.0714 L38.8461,11.4092 L40.2563,11.4201 L39.1218,12.2578 L39.5472,13.6024 L38.4,12.7823 L37.2527,13.6024 L37.6781,12.2578 L36.5436,11.4201 L37.9538,11.4092 L38.4,10.0714 Z M38.4,9.7183 C38.2481,9.7183 38.1131,9.8155 38.065,9.9597 L37.6987,11.0581 L36.5409,11.0671 C36.389,11.0682 36.2548,11.1665 36.2078,11.3111 C36.1608,11.4557 36.2117,11.614 36.3338,11.7043 L37.2652,12.3921 L36.916,13.496 C36.8702,13.6409 36.9222,13.7989 37.0451,13.8882 C37.107,13.9331 37.1798,13.9556 37.2527,13.9556 C37.3246,13.9556 37.3966,13.9336 37.4581,13.8897 L38.4001,13.2164 L39.3421,13.8897 C39.4036,13.9335 39.4755,13.9556 39.5474,13.9556 C39.6202,13.9556 39.6931,13.9331 39.755,13.8882 C39.8779,13.7988 39.9299,13.6409 39.8841,13.496 L39.5349,12.3921 L40.4663,11.7043 C40.5886,11.614 40.6393,11.4557 40.5923,11.3111 C40.5453,11.1665 40.4112,11.0682 40.2592,11.0671 L39.1014,11.0581 L38.7351,9.9597 C38.6869,9.8155 38.5519,9.7183 38.4,9.7183 Z" id="Shape" fill="#F5F5F5" fill-rule="nonzero"></path>
                <path d="M45.7267,18.1932 C45.6905,18.1932 45.6548,18.1819 45.6241,18.1604 L44.5794,17.413 L43.5345,18.1604 C43.5039,18.1819 43.4677,18.1932 43.4319,18.1932 C43.3957,18.1932 43.3591,18.1819 43.3281,18.1595 C43.2669,18.1147 43.2406,18.0354 43.2634,17.963 L43.6509,16.7388 L42.6182,15.9759 C42.557,15.9302 42.5316,15.8509 42.5549,15.7794 C42.5786,15.707 42.6458,15.6578 42.7217,15.657 L44.0058,15.6475 L44.4119,14.4294 C44.4361,14.3579 44.5037,14.3087 44.5796,14.3087 C44.6555,14.3087 44.7232,14.3578 44.7473,14.4294 L45.1534,15.6475 L46.4375,15.657 C46.5134,15.6579 46.5806,15.707 46.6043,15.7794 C46.6276,15.8509 46.6021,15.9302 46.541,15.9759 L45.5083,16.7388 L45.8958,17.963 C45.9186,18.0354 45.8924,18.1147 45.8311,18.1595 C45.7996,18.1819 45.763,18.1932 45.7267,18.1932 Z" id="Path" fill="#FF4B55"></path>
                <path d="M44.5793,14.4852 L45.0254,15.823 L46.4356,15.8339 L45.3011,16.6716 L45.7265,18.0162 L44.5792,17.1961 L43.4319,18.0162 L43.8573,16.6717 L42.7228,15.834 L44.133,15.8231 L44.5793,14.4852 Z M44.5793,14.1321 C44.4274,14.1321 44.2924,14.2293 44.2443,14.3735 L43.878,15.4719 L42.7202,15.4809 C42.5683,15.482 42.4341,15.5803 42.3871,15.7249 C42.3401,15.8695 42.391,16.0278 42.5131,16.1181 L43.4445,16.8059 L43.0953,17.9098 C43.0495,18.0547 43.1015,18.2127 43.2244,18.302 C43.2863,18.3469 43.3591,18.3694 43.432,18.3694 C43.5039,18.3694 43.5759,18.3474 43.6373,18.3035 L44.5793,17.6302 L45.5213,18.3035 C45.5828,18.3473 45.6547,18.3694 45.7267,18.3694 C45.7995,18.3694 45.8724,18.3469 45.9343,18.302 C46.0572,18.2126 46.1092,18.0547 46.0634,17.9098 L45.7142,16.8059 L46.6456,16.1181 C46.7679,16.0278 46.8186,15.8695 46.7716,15.7249 C46.7246,15.5803 46.5905,15.482 46.4385,15.4809 L45.2807,15.4719 L44.9144,14.3735 C44.8662,14.2293 44.7313,14.1321 44.5793,14.1321 Z" id="Shape" fill="#F5F5F5" fill-rule="nonzero"></path>
                <path d="M33.3681,19.9587 C33.3319,19.9587 33.2962,19.9474 33.2655,19.9259 L32.2208,19.1785 L31.1759,19.9259 C31.1453,19.9474 31.1091,19.9587 31.0733,19.9587 C31.0371,19.9587 31.0005,19.9474 30.9695,19.925 C30.9083,19.8802 30.882,19.8009 30.9048,19.7285 L31.2923,18.5043 L30.2596,17.7414 C30.1984,17.6957 30.173,17.6164 30.1963,17.5449 C30.22,17.4725 30.2872,17.4233 30.3631,17.4225 L31.6472,17.413 L32.0533,16.1949 C32.0775,16.1234 32.1451,16.0742 32.221,16.0742 C32.2969,16.0742 32.3646,16.1233 32.3887,16.1949 L32.7948,17.413 L34.0789,17.4225 C34.1548,17.4234 34.222,17.4725 34.2457,17.5449 C34.269,17.6164 34.2435,17.6957 34.1824,17.7414 L33.1497,18.5043 L33.5372,19.7285 C33.56,19.8009 33.5338,19.8802 33.4725,19.925 C33.441,19.9475 33.4044,19.9587 33.3681,19.9587 Z" id="Path" fill="#FF4B55"></path>
                <path d="M32.2207,16.2507 L32.6668,17.5885 L34.077,17.5994 L32.9425,18.4371 L33.3679,19.7817 L32.2206,18.9616 L31.0733,19.7817 L31.4987,18.4371 L30.3642,17.5994 L31.7744,17.5885 L32.2207,16.2507 Z M32.2207,15.8976 C32.0688,15.8976 31.9338,15.9948 31.8857,16.139 L31.5194,17.2374 L30.3616,17.2464 C30.2097,17.2475 30.0755,17.3458 30.0285,17.4904 C29.9815,17.635 30.0324,17.7933 30.1545,17.8836 L31.0859,18.5714 L30.7367,19.6753 C30.6909,19.8202 30.7429,19.9782 30.8658,20.0675 C30.9277,20.1124 31.0005,20.1349 31.0734,20.1349 C31.1453,20.1349 31.2173,20.1129 31.2787,20.069 L32.2207,19.3957 L33.1627,20.069 C33.2242,20.1128 33.2961,20.1349 33.368,20.1349 C33.4408,20.1349 33.5137,20.1124 33.5756,20.0675 C33.6985,19.9781 33.7505,19.8202 33.7047,19.6753 L33.3555,18.5714 L34.2869,17.8836 C34.4092,17.7933 34.4599,17.635 34.4129,17.4904 C34.3659,17.3458 34.2318,17.2475 34.0798,17.2464 L32.922,17.2374 L32.5557,16.139 C32.5076,15.9948 32.3726,15.8976 32.2207,15.8976 Z" id="Shape" fill="#F5F5F5" fill-rule="nonzero"></path>
            </g>
        </g>
    </g>
</svg>