<svg id="Layer_1" data-name="Layer 1" xmlns="http://www.w3.org/2000/svg" xmlns:xlink="http://www.w3.org/1999/xlink" viewBox="0 0 607.02 117.57"><defs><style>.cls-1{fill:url(#linear-gradient);}.cls-2{fill:url(#linear-gradient-2);}.cls-3{fill:url(#linear-gradient-3);}.cls-4{fill:url(#linear-gradient-5);}.cls-5{fill:url(#linear-gradient-6);}.cls-6{fill:url(#linear-gradient-7);}.cls-7{fill:#00e1b4;}</style><linearGradient id="linear-gradient" x1="84.37" y1="143.24" x2="672.15" y2="143.24" gradientUnits="userSpaceOnUse"><stop offset="0" stop-color="#2864ff"/><stop offset="0.12" stop-color="#2769fc"/><stop offset="0.26" stop-color="#2276f4"/><stop offset="0.4" stop-color="#1b8de7"/><stop offset="0.55" stop-color="#11acd4"/><stop offset="0.71" stop-color="#04d5bb"/><stop offset="0.75" stop-color="#00e1b4"/></linearGradient><linearGradient id="linear-gradient-2" x1="84.37" y1="128.39" x2="672.15" y2="128.39" xlink:href="#linear-gradient"/><linearGradient id="linear-gradient-3" x1="84.37" y1="127.32" x2="672.15" y2="127.32" xlink:href="#linear-gradient"/><linearGradient id="linear-gradient-5" x1="84.37" y1="128.14" x2="672.15" y2="128.14" xlink:href="#linear-gradient"/><linearGradient id="linear-gradient-6" x1="84.37" y1="144.69" x2="672.15" y2="144.69" xlink:href="#linear-gradient"/><linearGradient id="linear-gradient-7" x1="84.37" y1="128.35" x2="672.15" y2="128.35" xlink:href="#linear-gradient"/></defs><title>OPENPAY_BRANDMARK_POSITIVE_RGB</title><path class="cls-1" d="M228.69,85.55c-8.63,0-16.84,3.33-21.95,8.79q.12-1.22.18-2.67a4.31,4.31,0,0,0-1-3,4.12,4.12,0,0,0-3.13-1.44h-15.2a2.08,2.08,0,0,0-2,1.63L162.31,198.45a2.08,2.08,0,0,0,.93,2.19,2.16,2.16,0,0,0,1.14.3h8.42a14.79,14.79,0,0,0,14.42-11.72l5.95-28.46c3.91,5.42,12.16,10.8,24.63,10.8,24.82,0,42.84-21.69,42.84-51.59C260.64,98.74,248.4,85.55,228.69,85.55Zm8.66,37.89c0,17.84-11.18,27.47-21.69,27.47-9.92,0-16.09-6.92-16.09-18.06,0-15.13,9.46-27,21.53-27C231.27,105.87,237.35,112.44,237.35,123.44Z" transform="translate(-87.49 -84.6)"/><path class="cls-2" d="M343.36,133.27a54.32,54.32,0,0,0,2-13.79c0-21.11-14.23-34.75-36.24-34.75C287.43,84.73,265,103.16,265,134c0,22.05,15.93,38.06,37.89,38.06,22.77,0,32.82-13.55,36.08-19.38a2.07,2.07,0,0,0,.18-1.65,2,2,0,0,0-1-1.23l-14.25-7.12a2,2,0,0,0-2.65.73,19.5,19.5,0,0,1-17,9.15c-10.48,0-17.32-6.9-17.56-17.64l54.75-.16A2.06,2.06,0,0,0,343.36,133.27Zm-34.55-29.54c11.65,0,14.76,8.45,14.76,13.44a10.43,10.43,0,0,1-.09,1.39H289.15C292.25,109.26,299.55,103.73,308.81,103.73Z" transform="translate(-87.49 -84.6)"/><path class="cls-3" d="M402.22,85.06c-9.11,0-17,3.24-21.94,9,.07-.74.12-1.52.16-2.33a4.29,4.29,0,0,0-1-3,4.1,4.1,0,0,0-3.14-1.45H361.12a2.07,2.07,0,0,0-2,1.64l-16.5,78.25a2.06,2.06,0,0,0,2.07,2.49h18.74a2.06,2.06,0,0,0,2-1.62l10-45.88c2.24-10.25,8.44-16.37,16.59-16.37,7.49,0,11.79,4.18,11.79,11.46a24.67,24.67,0,0,1-.48,4.66l-8.24,38.48a7.63,7.63,0,0,0,1.89,6.83,7.89,7.89,0,0,0,5.82,2.44h12a1.78,1.78,0,0,0,1.73-1.4l10.36-48.24a39.52,39.52,0,0,0,1-8.71C427.9,95.33,417.82,85.06,402.22,85.06Z" transform="translate(-87.49 -84.6)"/><path class="cls-1" d="M484.81,85.55c-8.63,0-16.84,3.33-21.95,8.79.08-.86.14-1.8.19-2.83a4.14,4.14,0,0,0-4.13-4.31H443.73a2.08,2.08,0,0,0-2,1.63L418.43,198.45a2.06,2.06,0,0,0,2,2.49h8.47a14.79,14.79,0,0,0,14.42-11.72l6-28.46c3.91,5.42,12.16,10.8,24.63,10.8,24.82,0,42.84-21.69,42.84-51.59C516.76,98.74,504.52,85.55,484.81,85.55Zm8.66,37.89c0,17.84-11.18,27.47-21.7,27.47-9.91,0-16.08-6.92-16.08-18.06,0-15.13,9.46-27,21.53-27C487.39,105.87,493.47,112.44,493.47,123.44Z" transform="translate(-87.49 -84.6)"/><path class="cls-4" d="M594.9,168.54a2,2,0,0,0,.26-1.17c0-.64,0-1.13,0-1.51a74.16,74.16,0,0,1,1.48-14.57l13-61.56a2,2,0,0,0-.07-1.17,2.06,2.06,0,0,0-1.94-1.36H591a4.13,4.13,0,0,0-4,3.26l-1.06,5c-2.29-3.53-8.57-10.19-23.35-10.19-23.95,0-42,21.11-42,49.11,0,21.63,13.27,36.74,32.28,36.74a26,26,0,0,0,21-10c-.09,1.36-.18,2.91-.18,4.1v.26a4.13,4.13,0,0,0,4.13,4.12h15.33A2.07,2.07,0,0,0,594.9,168.54Zm-15.64-45.76c0,16.3-8.63,28.13-20.53,28.13-9.55,0-15.26-6.51-15.26-17.4,0-17.84,10.75-27.47,20.87-27.47C573.68,106,579.26,112.3,579.26,122.78Z" transform="translate(-87.49 -84.6)"/><path class="cls-5" d="M693.76,87.66a1.94,1.94,0,0,0-1.29-.46H672.62a2.07,2.07,0,0,0-1.82,1.09L643,140.2,636.34,89a2.06,2.06,0,0,0-2-1.8H614.72a2,2,0,0,0-.79.16,2.08,2.08,0,0,0-1.22,2.26l13.62,77a1.74,1.74,0,0,1-.24,1.24l-3,4.85c-3.44,5.94-7.56,8.79-12.93,8.95a13.05,13.05,0,0,1-5-.9,2,2,0,0,0-2.55.83l-9.17,15a1.88,1.88,0,0,0-.29,1.28,1.74,1.74,0,0,0,.91,1.28,32.62,32.62,0,0,0,14.15,3c14.36,0,27.91-8.7,37.2-23.9l48.87-88A2.08,2.08,0,0,0,693.76,87.66Z" transform="translate(-87.49 -84.6)"/><path class="cls-6" d="M148.12,123.89c0,13.09-7.5,27-21.38,27-9.78,0-16.1-7.16-16.1-18.25,0-15.29,9.19-26.83,21.38-26.83a20.45,20.45,0,0,1,3.57.31,2,2,0,0,0,2.31-1.54c.86-4,2.77-13.06,3.64-17.11a2,2,0,0,0-1.65-2.39,43.48,43.48,0,0,0-6.22-.44c-26.33,0-46.18,21.06-46.18,49,0,22.26,15.88,38.42,37.76,38.42,25.8,0,46-21.52,46-49a45,45,0,0,0-.85-8.82,2,2,0,0,0-2.57-1.49l-18.52,6A2,2,0,0,0,148,120.9,28.71,28.71,0,0,1,148.12,123.89Z" transform="translate(-87.49 -84.6)"/><path class="cls-7" d="M162.89,91.51A26.5,26.5,0,0,0,149,84.64a2.27,2.27,0,0,0-2.62,1.74l-6.12,28.86a1.12,1.12,0,0,0,1.45,1.3L169,107.66a2.25,2.25,0,0,0,1.5-2.64A27.45,27.45,0,0,0,162.89,91.51Z" transform="translate(-87.49 -84.6)"/></svg>