<?xml version="1.0" encoding="UTF-8"?>
<svg width="21px" height="21px" viewBox="0 0 21 21" version="1.1" xmlns="http://www.w3.org/2000/svg" xmlns:xlink="http://www.w3.org/1999/xlink">
    <!-- Generator: Sketch 52.2 (67145) - http://www.bohemiancoding.com/sketch -->
    <title>Search icon</title>
    <desc>Created with Sketch.</desc>
    <g id="OP_01-Journeys-with-post-code--Copy" stroke="none" stroke-width="1" fill="none" fill-rule="evenodd" opacity="0.600000024">
        <g id="Mobile_Search-Copy-19" transform="translate(-276.000000, -149.000000)">
            <g id="Group-Copy-2" transform="translate(28.000000, 148.000000)">
                <g id="Search-icon" transform="translate(249.000000, 2.000000)">
                    <path d="M8.00818081,1.65456364 C4.52511039,1.648605 1.66429125,4.49651843 1.65496062,7.97926158 C1.64555158,11.4729812 4.53005013,14.3619778 8.01123875,14.3455132 C11.4974455,14.3289701 14.3479147,11.4711779 14.3450136,7.99541262 C14.3421125,4.50992536 11.4946228,1.66060068 8.00818081,1.65456364 M8.01014103,2.3471532e-05 C12.4138862,0.0107646933 16.0082969,3.59511824 15.9999856,7.96750112 C15.9914391,12.4167974 12.4075351,16.0109514 7.99022522,15.9999749 C3.54406097,15.9889985 -0.0178101786,12.3818297 6.70006844e-05,7.9083068 C0.0173953192,3.55999366 3.63399573,-0.0105609441 8.01014103,2.3471532e-05" id="Fill-1-Copy" fill="#000000"></path>
                    <path d="M8.00818081,1.65456364 C4.52511039,1.648605 1.66429125,4.49651843 1.65496062,7.97926158 C1.64555158,11.4729812 4.53005013,14.3619778 8.01123875,14.3455132 C11.4974455,14.3289701 14.3479147,11.4711779 14.3450136,7.99541262 C14.3421125,4.50992536 11.4946228,1.66060068 8.00818081,1.65456364 Z M8.01014103,2.3471532e-05 C12.4138862,0.0107646933 16.0082969,3.59511824 15.9999856,7.96750112 C15.9914391,12.4167974 12.4075351,16.0109514 7.99022522,15.9999749 C3.54406097,15.9889985 -0.0178101786,12.3818297 6.70006844e-05,7.9083068 C0.0173953192,3.55999366 3.63399573,-0.0105609441 8.01014103,2.3471532e-05 Z" id="Stroke-3-Copy" stroke="#FFFFFF" stroke-width="0.6"></path>
                    <path d="M15.3311724,13 C16.3839304,14.0293364 17.4981249,15.0720873 18.555301,16.1697462 C19.1898401,16.8285581 19.1223182,17.8403973 18.4991161,18.4634649 C17.843737,19.1188607 16.8445797,19.2015143 16.1744458,18.55745 C15.0755062,17.5011179 14.032418,16.3867117 13,15.331796 C13.7597463,14.5718335 14.5497524,13.7817091 15.3311724,13" id="Fill-5-Copy" fill="#000000"></path>
                    <path d="M15.3311724,13 C16.3839304,14.0293364 17.4981249,15.0720873 18.555301,16.1697462 C19.1898401,16.8285581 19.1223182,17.8403973 18.4991161,18.4634649 C17.843737,19.1188607 16.8445797,19.2015143 16.1744458,18.55745 C15.0755062,17.5011179 14.032418,16.3867117 13,15.331796 C13.7597463,14.5718335 14.5497524,13.7817091 15.3311724,13 Z" id="Stroke-7-Copy" stroke="#FFFFFF" stroke-width="0.6"></path>
                </g>
            </g>
        </g>
    </g>
</svg>