<?xml version="1.0" encoding="UTF-8"?>
<svg width="34px" height="35px" viewBox="0 0 34 35" version="1.1" xmlns="http://www.w3.org/2000/svg" xmlns:xlink="http://www.w3.org/1999/xlink">
    <!-- Generator: Sketch 52.4 (67378) - http://www.bohemiancoding.com/sketch -->
    <title>socialLinkedIn</title>
    <desc>Created with Sketch.</desc>
    <g id="Symbols" stroke="none" stroke-width="1" fill="none" fill-rule="evenodd">
        <g id="_Max/Linkedin-Icon" transform="translate(-1.000000, 0.000000)">
            <g id="LinkedIn">
                <path d="M18.0074,34.8808 C27.4034,34.8808 35.0164,27.2658 35.0164,17.8728 C35.0164,8.4798 27.4034,0.8648 18.0074,0.8648 C8.6144,0.8648 0.9994,8.4798 0.9994,17.8728 C0.9994,27.2658 8.6144,34.8808 18.0074,34.8808" id="Fill-11" fill="#FFFFFF"></path>
                <path d="M26.5113,24.9863 L22.7523,24.9863 L22.7523,19.4963 C22.7523,18.0593 22.1653,17.0783 20.8713,17.0783 C19.8823,17.0783 19.3323,17.7403 19.0763,18.3783 C18.9813,18.6073 18.9953,18.9253 18.9953,19.2453 L18.9953,24.9863 L15.2713,24.9863 C15.2713,24.9863 15.3203,15.2613 15.2713,14.3773 L18.9953,14.3773 L18.9953,16.0423 C19.2153,15.3143 20.4053,14.2753 22.3053,14.2753 C24.6603,14.2753 26.5113,15.8013 26.5113,19.0873 L26.5113,24.9863 Z M11.5053,13.0493 L11.4823,13.0493 C10.2823,13.0493 9.5033,12.2383 9.5033,11.2113 C9.5033,10.1633 10.3053,9.3693 11.5293,9.3693 C12.7513,9.3693 13.5033,10.1613 13.5283,11.2083 C13.5283,12.2363 12.7513,13.0493 11.5053,13.0493 Z M9.9323,24.9863 L13.2483,24.9863 L13.2483,14.3773 L9.9323,14.3773 L9.9323,24.9863 Z" id="Fill-14" fill="#3C465A"></path>
            </g>
        </g>
    </g>
</svg>