<svg width="59" height="53" xmlns="http://www.w3.org/2000/svg"><g stroke="#179ECF" fill="none" fill-rule="evenodd"><path d="M6.276 26.676V39.654l-.028 4.804c0 3.92 3.206 7.097 7.162 7.097H45.518c3.955 0 7.162-3.177 7.162-7.097l-.023-7.378V26.676c0-2.248 1.839-4.07 4.107-4.07H2.169c2.269 0 4.107 1.822 4.107 4.07zM35.434 1.706a1.654 1.654 0 0 0-2.324 0 1.618 1.618 0 0 0 0 2.302l14.384 14.253h4.647L35.434 1.706zM25.798 4.008a1.618 1.618 0 0 0 0-2.303 1.654 1.654 0 0 0-2.324 0L6.767 18.261h4.648L25.798 4.008z" stroke-width=".551"/><path d="M1.856 22.603h55.16a.622.622 0 0 0 .625-.619v-3.103c0-.342-.28-.62-.625-.62H1.856a.622.622 0 0 0-.625.62v3.103c0 .342.28.62.625.62z" stroke-width="1.206" stroke-linecap="round" stroke-linejoin="round"/><path d="M1.856 22.603h55.16a.622.622 0 0 0 .625-.619v-3.103c0-.342-.28-.62-.625-.62H1.856a.622.622 0 0 0-.625.62v3.103c0 .342.28.62.625.62z" stroke-width="1.561" stroke-linecap="round" stroke-linejoin="round"/><path d="M35.434 1.706a1.654 1.654 0 0 0-2.324 0 1.618 1.618 0 0 0 0 2.302l14.384 14.253h4.647L35.434 1.706zM25.798 4.008a1.618 1.618 0 0 0 0-2.303 1.654 1.654 0 0 0-2.324 0L6.767 18.261h4.648L25.798 4.008zM29.504 46.482a1.908 1.908 0 0 1-1.917-1.9V29.93c0-1.05.859-1.9 1.917-1.9s1.917.85 1.917 1.9v14.653c0 1.049-.859 1.9-1.917 1.9zM19.372 46.482a1.908 1.908 0 0 1-1.917-1.9V29.93c0-1.05.859-1.9 1.917-1.9 1.06 0 1.917.85 1.917 1.9v14.653c0 1.049-.858 1.9-1.917 1.9zM41.553 36.321v8.262c0 1.049-.859 1.9-1.917 1.9a1.908 1.908 0 0 1-1.917-1.9V29.93c0-1.05.858-1.9 1.917-1.9 1.058 0 1.917.85 1.917 1.9v3.739" stroke-width="1.561" stroke-linecap="round" stroke-linejoin="round"/><path d="M52.68 44.458c0 3.92-3.207 7.097-7.162 7.097H13.41c-3.955 0-7.162-3.177-7.162-7.097l.028-4.804V26.676c0-2.248-1.838-4.07-4.107-4.07h54.595c-2.268 0-4.107 1.822-4.107 4.07V37.08l.023 7.377z" stroke-width="1.561" stroke-linecap="round" stroke-linejoin="round"/></g></svg>