<svg xmlns="http://www.w3.org/2000/svg" width="79.184" height="67.334" viewBox="0 0 79.184 67.334"><defs><style>.a{fill:#179ecf;}</style></defs><g transform="translate(-824.046 -413.217)"><path class="a" d="M903.2,473.152l-3.458-18a1.017,1.017,0,0,0-2,.384l3.449,17.951a1.129,1.129,0,0,1-.161.7.9.9,0,0,1-.648.192H882.744l10.317-10.317a1.01,1.01,0,0,0,.2-.3.868.868,0,0,0,.034-.095,1.006,1.006,0,0,0,.053-.265c0-.021.012-.04.012-.062v-30.65l3.459,18.011a1.017,1.017,0,0,0,1,.825.987.987,0,0,0,.193-.019,1.016,1.016,0,0,0,.807-1.19l-5.471-28.488a2.434,2.434,0,0,0-.118-.617l-.065-.338a1.01,1.01,0,0,0-.68-.77,2.446,2.446,0,0,0-1.589-.6H879.867v-4.559a1.017,1.017,0,1,0-2.034,0v4.559h-8.041v-4.739a1.017,1.017,0,1,0-2.034,0v4.739h-8.04v-4.919a1.017,1.017,0,1,0-2.034,0v4.919h-8.041v-5.1a1.017,1.017,0,1,0-2.034,0v5.1h-8.04v-5.279a1.017,1.017,0,1,0-2.034,0v5.279H826.513a2.47,2.47,0,0,0-2.467,2.468v56.1a2.47,2.47,0,0,0,2.467,2.468h29.448a1.017,1.017,0,1,0,0-2.034H826.513a.435.435,0,0,1-.433-.434V433.6h65.246v28.727H877.6a2.47,2.47,0,0,0-2.468,2.468v13.723H861.22a1.017,1.017,0,1,0,0,2.034h14.932a1.026,1.026,0,0,0,.719-.3l3.84-3.84h19.676a2.757,2.757,0,0,0,2.184-.892A3.116,3.116,0,0,0,903.2,473.152ZM826.08,431.566V421.98a.435.435,0,0,1,.433-.434h11.025v4.92a1.017,1.017,0,1,0,2.034,0v-4.92h8.04v5.1a1.017,1.017,0,1,0,2.034,0v-5.1h8.041v5.28a1.017,1.017,0,1,0,2.034,0v-5.28h8.04v5.46a1.017,1.017,0,1,0,2.034,0v-5.46h8.041v5.64a1.017,1.017,0,1,0,2.034,0v-5.64h11.024a.429.429,0,0,1,.369.22l.065.339v9.461Zm51.089,33.229a.435.435,0,0,1,.434-.434h12.284l-12.719,12.718Z" transform="translate(0)"/><path class="a" d="M861.739,450.82a4.435,4.435,0,1,0,4.435,4.435A4.44,4.44,0,0,0,861.739,450.82Zm0,6.836a2.4,2.4,0,1,1,2.4-2.4A2.4,2.4,0,0,1,861.739,457.656Z" transform="translate(-9.392 -10.62)"/><path class="a" d="M878.827,459.689a4.435,4.435,0,1,0-4.434-4.435A4.44,4.44,0,0,0,878.827,459.689Zm0-6.836a2.4,2.4,0,1,1-2.4,2.4A2.4,2.4,0,0,1,878.827,452.854Z" transform="translate(-14.219 -10.62)"/><path class="a" d="M895.916,459.689a4.435,4.435,0,1,0-4.435-4.435A4.44,4.44,0,0,0,895.916,459.689Zm0-6.836a2.4,2.4,0,1,1-2.4,2.4A2.4,2.4,0,0,1,895.916,452.854Z" transform="translate(-19.045 -10.62)"/><path class="a" d="M861.739,466.864a4.435,4.435,0,1,0,4.435,4.435A4.44,4.44,0,0,0,861.739,466.864Zm0,6.836a2.4,2.4,0,1,1,2.4-2.4A2.4,2.4,0,0,1,861.739,473.7Z" transform="translate(-9.392 -15.151)"/><path class="a" d="M878.827,475.734a4.435,4.435,0,1,0-4.434-4.435A4.441,4.441,0,0,0,878.827,475.734Zm0-6.836a2.4,2.4,0,1,1-2.4,2.4A2.4,2.4,0,0,1,878.827,468.9Z" transform="translate(-14.219 -15.151)"/><path class="a" d="M895.916,475.734a4.435,4.435,0,1,0-4.435-4.435A4.441,4.441,0,0,0,895.916,475.734Zm0-6.836a2.4,2.4,0,1,1-2.4,2.4A2.4,2.4,0,0,1,895.916,468.9Z" transform="translate(-19.045 -15.151)"/><path class="a" d="M861.739,482.908a4.435,4.435,0,1,0,4.435,4.435A4.44,4.44,0,0,0,861.739,482.908Zm0,6.836a2.4,2.4,0,1,1,2.4-2.4A2.4,2.4,0,0,1,861.739,489.744Z" transform="translate(-9.392 -19.682)"/><path class="a" d="M878.827,491.778a4.435,4.435,0,1,0-4.434-4.435A4.441,4.441,0,0,0,878.827,491.778Zm0-6.836a2.4,2.4,0,1,1-2.4,2.4A2.4,2.4,0,0,1,878.827,484.942Z" transform="translate(-14.219 -19.682)"/><path class="a" d="M848.3,452.12a1.016,1.016,0,0,0-1.438,0l-1.889,1.889-1.889-1.889a1.017,1.017,0,0,0-1.438,1.438l1.889,1.89-1.889,1.889a1.017,1.017,0,0,0,1.438,1.438l1.889-1.889,1.889,1.889a1.017,1.017,0,1,0,1.438-1.438l-1.889-1.889,1.889-1.89A1.016,1.016,0,0,0,848.3,452.12Z" transform="translate(-4.885 -10.902)"/><path class="a" d="M848.3,468.165a1.016,1.016,0,0,0-1.438,0l-1.889,1.889-1.889-1.889a1.017,1.017,0,0,0-1.438,1.438l1.889,1.889-1.889,1.889a1.017,1.017,0,0,0,1.438,1.438l1.889-1.889,1.889,1.889a1.017,1.017,0,1,0,1.438-1.438l-1.889-1.889L848.3,469.6A1.016,1.016,0,0,0,848.3,468.165Z" transform="translate(-4.885 -15.434)"/><path class="a" d="M848.3,484.208a1.015,1.015,0,0,0-1.438,0l-1.889,1.889-1.889-1.889a1.017,1.017,0,1,0-1.438,1.438l1.889,1.889-1.889,1.889a1.017,1.017,0,0,0,1.438,1.438l1.889-1.889,1.889,1.889a1.017,1.017,0,1,0,1.438-1.438l-1.889-1.889,1.889-1.889A1.016,1.016,0,0,0,848.3,484.208Z" transform="translate(-4.885 -19.965)"/></g></svg>