<svg xmlns="http://www.w3.org/2000/svg" width="63.471" height="76.079" viewBox="0 0 63.471 76.079"><defs><style>.a{fill:#1cb0e6;}</style></defs><path class="a" d="M600.437,809.9a1.187,1.187,0,0,0-1.163-.953H591.69c-.1-2.313-.232-4.049-.289-4.756h1.822A1.188,1.188,0,0,0,594.411,803v-7.133a1.188,1.188,0,0,0-1.188-1.188H544.7a1.187,1.187,0,0,0-1.188,1.188V803a1.187,1.187,0,0,0,1.188,1.188h1.822c-.058.707-.189,2.443-.289,4.756h-7.583a1.188,1.188,0,0,0-1.164.953c-.038.184-3.452,18.379,15.744,30.677,2.756,4.448,5.737,8.833,7.351,11.166h-.214a1.189,1.189,0,0,0-1.189,1.188v5.945a1.189,1.189,0,0,0,1.189,1.188h.414a8.844,8.844,0,0,1-5.72,3.591,1.19,1.19,0,0,0-.954,1.165v4.754a1.187,1.187,0,0,0,1.188,1.188H582.63a1.187,1.187,0,0,0,1.188-1.188v-4.754a1.189,1.189,0,0,0-.955-1.165,8.846,8.846,0,0,1-5.72-3.591h.415a1.188,1.188,0,0,0,1.188-1.188v-5.945a1.188,1.188,0,0,0-1.188-1.188h-.214c1.613-2.333,4.594-6.718,7.35-11.166C603.89,828.276,600.474,810.081,600.437,809.9Zm-25.253,47.788H561.55v-3.568h14.82v3.568Zm6.258,8.069v2.629H556.477v-2.629a10.894,10.894,0,0,0,7.045-5.693H574.4A10.894,10.894,0,0,0,581.442,865.754Zm16.794-54.433c.33,3.309.51,14.61-10.445,24.01.616-1.11,1.171-2.169,1.633-3.136,2.3-4.82,2.529-14.219,2.351-20.874Zm-52.352-14.265h46.151v4.757H545.883Zm43.134,7.133c.131,1.594,1.572,20.061-1.737,26.983-3.145,6.581-10.962,17.893-12.715,20.4H563.353c-1.754-2.509-9.57-13.821-12.716-20.4-3.307-6.917-1.867-25.389-1.736-26.983Zm-49.346,7.133h6.474c-.179,6.655.047,16.054,2.35,20.874.466.974,1.025,2.04,1.646,3.159C539.027,825.89,539.3,814.651,539.671,811.321Z" transform="translate(-537.223 -794.68)"/></svg>