<svg width="192px" height="37px" viewBox="0 0 192 37" version="1.1" xmlns="http://www.w3.org/2000/svg" xmlns:xlink="http://www.w3.org/1999/xlink">
    <!-- Generator: Sketch 47.1 (45422) - http://www.bohemiancoding.com/sketch -->
    <desc>Created with Sketch.</desc>
    <defs>
        <linearGradient x1="41.511027%" y1="50%" x2="63.1067912%" y2="50%" id="linearGradient-1">
            <stop stop-color="#336DF9" offset="0%"/>
            <stop stop-color="#00E1B4" offset="100%"/>
        </linearGradient>
    </defs>
    <g id="Symbols" stroke="none" stroke-width="1" fill="none" fill-rule="evenodd">
        <g id="Logo_Updated">
            <g id="Page-1">
                <path d="M38.0148777,3.7425512 C38.0381992,3.49007989 38.0574647,3.21201009 38.0721674,2.91085147 L38.0721674,2.91085147 C38.087884,2.56953836 37.9875003,2.22471174 37.7618905,1.96521339 L37.7618905,1.96521339 C37.5114383,1.67610111 37.1570535,1.51548318 36.7742773,1.51548318 L36.7742773,1.51548318 L31.9857727,1.51548318 C31.6815798,1.51548318 31.4138899,1.73030966 31.3500094,2.02544512 L31.3500094,2.02544512 L24.0143956,36.2225088 C23.9586269,36.4825091 24.0666154,36.7520461 24.3084488,36.905637 L24.3084488,36.905637 C24.4133954,36.9723938 24.5391285,37 24.6643546,37 L24.6643546,37 L27.3189454,37 C29.5055859,37 31.4169319,35.4615814 31.8646025,33.3424285 L31.8646025,33.3424285 L33.7379243,24.4627665 C34.9693989,26.1562818 37.569742,27.8347392 41.4999153,27.8347392 L41.4999153,27.8347392 C49.3222379,27.8347392 55,21.0656972 55,11.7403204 L55,11.7403204 C55,5.11583453 51.142833,1 44.9322262,1 L44.9322262,1 C42.2132479,1 39.6250726,2.03849532 38.0148777,3.7425512 M35.7567518,15.7567726 C35.7567518,11.037115 38.7363221,7.34139676 42.5407623,7.34139676 C45.7454354,7.34139676 47.6593163,9.39027927 47.6593163,12.8214799 C47.6593163,18.3868912 44.1377755,21.3909485 40.8235929,21.3909485 C37.69801,21.3909485 35.7567518,19.2316412 35.7567518,15.7567726 Z M56,16.798681 C56,6.90980436 62.9817702,1 69.731415,1 C76.5766114,1 81,5.3736782 81,12.1423308 C81,13.4695479 80.764873,15.1227663 80.3711604,16.5650123 C80.2951194,16.8451052 80.0419827,17.0411186 79.7558281,17.0416344 L62.7321354,17.0927011 C62.8071759,20.5353156 64.9328237,22.7482038 68.192584,22.7482038 C71.3672983,22.7482038 72.9461509,20.6983162 73.4779381,19.8167717 C73.6510316,19.5284256 74.0062234,19.427324 74.3038841,19.5800081 L78.7337762,21.8640802 C78.8918616,21.9450647 79.007424,22.085369 79.0584516,22.2592019 C79.1109799,22.4335507 79.0904689,22.6264692 79.0024213,22.7874065 C77.9878735,24.655208 74.8616853,29 67.7818622,29 C60.9551758,29 56,23.8685752 56,16.798681 Z M69.6288596,7.09292215 C66.7483041,7.09292215 64.4790787,8.8642644 63.5160587,11.847279 L74.1898225,11.847279 C74.2183379,11.6038097 74.2183379,11.4846542 74.2183379,11.4010906 C74.2183379,9.80100217 73.2523163,7.09292215 69.6288596,7.09292215 Z M91.994,3.9445283 C93.536,2.1309434 95.9805,1.10341509 98.813,1.10341509 C103.661,1.10341509 106.7925,4.35666038 106.7925,9.39088679 C106.7925,10.2839245 106.691,11.1856226 106.4805,12.1484528 L103.26,27.4263774 C103.206,27.6821132 102.98,27.868566 102.723,27.868566 L98.9835,27.868566 C98.303,27.868566 97.637,27.6041698 97.1735,27.0962642 C96.6385,26.5093962 96.4245,25.7095849 96.587,24.9347358 L99.147,12.748566 C99.245,12.2488113 99.297,11.7378491 99.297,11.271717 C99.297,8.96601887 97.9615,7.6435283 95.633,7.6435283 C93.1005,7.6435283 91.173,9.58141509 90.4775,12.8270189 L87.3755,27.3540377 C87.312,27.6520566 87.0485,27.868566 86.7495,27.868566 L80.9265,27.868566 C80.8025,27.868566 80.677,27.8405472 80.573,27.7712642 C80.3375,27.6153774 80.231,27.3428302 80.285,27.0804717 L85.4115,2.30211321 C85.474,2.00103774 85.738,1.783 86.039,1.783 L90.7665,1.783 C91.144,1.783 91.4945,1.94601887 91.742,2.24098113 C91.9655,2.50639623 92.0615,2.85841509 92.045,3.20788679 C92.0325,3.46515094 92.016,3.71120755 91.994,3.9445283 Z M118.014647,3.7425512 C119.624864,2.03849532 122.213581,1 124.932596,1 C131.105263,1 134.953863,5.06714722 135,11.6223666 L135,11.881865 C134.94271,21.1339598 129.282615,27.8347392 121.500239,27.8347392 C117.569505,27.8347392 114.970141,26.1562818 113.738143,24.4627665 L111.864288,33.3424285 C111.417119,35.4615814 109.505747,37 107.319076,37 L104.649747,37 C104.453033,37 104.268486,36.9131659 104.14478,36.7615828 C104.020566,36.6099996 103.973415,36.4137445 104.014482,36.2225088 L111.350195,2.02544512 C111.414077,1.73030966 111.681263,1.51548318 111.986474,1.51548318 L116.77403,1.51548318 C117.132982,1.51548318 117.466078,1.6565258 117.713492,1.91150677 C117.961413,2.16799353 118.089682,2.50428733 118.073965,2.8596545 C118.05977,3.18089037 118.039997,3.47552389 118.014647,3.7425512 Z M115.75649,15.7567726 C115.75649,19.2316412 117.698282,21.3909485 120.824414,21.3909485 C124.137628,21.3909485 127.659724,18.3868912 127.659724,12.8214799 C127.659724,9.39027927 125.745817,7.34139676 122.540593,7.34139676 C118.736101,7.34139676 115.75649,11.037115 115.75649,15.7567726 Z M137,16.4466434 C137,7.64044754 142.674087,1 150.19843,1 C154.841508,1 156.813565,3.09440009 157.531734,4.20459912 L157.864285,2.64860002 C157.993161,2.04998313 158.5213,1.62239964 159.132324,1.62239964 L164.352565,1.62239964 C164.618909,1.62239964 164.859983,1.78331272 164.962073,2.04846508 C165.007559,2.16636681 165.009075,2.29590689 164.982795,2.41836276 L160.90475,21.7795457 C160.606061,23.2237153 160.441301,24.8510626 160.441301,26.3605083 C160.441301,26.4809401 160.441301,26.636287 160.451915,26.8376813 C160.458485,26.9651973 160.434226,27.0957495 160.36903,27.2050489 C160.245208,27.4145395 160.035468,27.5329473 159.805513,27.5329473 L154.9906,27.5329473 C154.274453,27.5329473 153.694763,26.9515349 153.694763,26.2350163 L153.694763,26.1535477 C153.694763,25.780108 153.720538,25.2918025 153.749851,24.864219 C152.672346,26.2233779 150.601231,28 147.13977,28 C141.169521,28 137,23.2490161 137,16.4466434 Z M144.21403,16.1860452 C144.21403,19.6137974 146.005155,21.6596199 149.005694,21.6596199 C152.744112,21.6596199 155.456576,17.9393905 155.456576,12.8129428 C155.456576,9.51574272 153.704366,7.54784662 150.768517,7.54784662 C147.591089,7.54784662 144.21403,10.5748341 144.21403,16.1860452 Z M185.092247,1 L191.354698,1 C191.502922,1 191.650638,1.04634696 191.762313,1.14357482 C192.015613,1.36372287 192.066882,1.69671569 191.91409,1.96371447 L176.496288,29.51547 C173.565824,34.2745973 169.288149,37 164.75819,37 C162.796764,37 161.126709,36.4891759 160.292697,36.0524062 C160.13889,35.9718028 160.034828,35.8277242 160.006402,35.6534193 C159.983559,35.5138747 160.023661,35.3718112 160.097773,35.2509061 L162.99118,30.5628105 C163.159709,30.2902702 163.498288,30.1824632 163.796766,30.3058871 C164.247021,30.4922825 164.783063,30.5864877 165.389156,30.5864877 C167.083576,30.5351031 168.381548,29.6439317 169.469876,27.7835043 L170.413533,26.2656414 C170.485106,26.149774 170.511502,26.0117407 170.488152,25.8777375 L166.190173,1.75767202 C166.139919,1.47304124 166.283574,1.18035012 166.576468,1.04785827 C166.653625,1.01360182 166.738905,1 166.822661,1 L173.001356,1 C173.32623,1 173.603895,1.24181022 173.64552,1.56120121 L175.757707,17.5952338 L184.519149,1.34105316 C184.632855,1.12997299 184.852145,1 185.092247,1 Z M0,16.6923473 C0,7.74671476 6.16223067,1 14.3331029,1 C14.9961593,1 15.6397434,1.04792579 16.2608595,1.14017006 C16.6133579,1.1922185 16.8465261,1.5452203 16.7731305,1.90440608 C16.5055114,3.20304045 15.9103583,6.09817057 15.6447363,7.38701366 C15.5753351,7.72610152 15.2572877,7.94357124 14.9272574,7.88018552 C14.578254,7.81422314 14.2092791,7.78072662 13.8203326,7.78072662 C10.0372163,7.78072662 7.18477551,11.4751353 7.18477551,16.3754187 C7.18477551,19.9250193 9.14548527,22.2187581 12.1801667,22.2187581 C16.4895341,22.2187581 18.8152245,17.7632054 18.8152245,13.5709869 C18.8152245,13.239629 18.7992472,12.920639 18.7682913,12.6145323 C18.7373353,12.3125483 18.9105888,12.0280855 19.1911895,11.93378 L24.9405077,10.0043803 C25.2905097,9.88688482 25.6669739,10.1084772 25.7388716,10.4815769 C25.9096286,11.378253 26,12.3218243 26,13.306622 C26,22.1059005 19.7269271,29 11.7183239,29 C4.92848638,29 0,23.8245298 0,16.6923473 Z" id="Combined-Shape" fill="url(#linearGradient-1)"/>
                <path d="M23.43475,2.73229524 C22.30925,1.60558095 20.85025,0.81672381 19.10575,0.494057143 C18.73275,0.425438095 18.37325,0.67372381 18.29425,1.06239048 C17.90225,2.99734286 16.76975,8.58534286 16.38975,10.4584857 C16.33425,10.7345333 16.58475,10.9697238 16.84175,10.8822476 L25.33125,7.99029524 C25.67525,7.8729619 25.88325,7.4989619 25.79775,7.1302 C25.39625,5.40372381 24.59175,3.8904381 23.43475,2.73229524" id="Fill-16" fill="#00E1B4"/>
            </g>
        </g>
    </g>
</svg>