<svg width="58" height="50" xmlns="http://www.w3.org/2000/svg"><g fill="#179ECF" fill-rule="nonzero"><path d="M57.394 44.156l-2.476-13.044a.73.73 0 0 0-.853-.585.737.737 0 0 0-.579.864l2.47 13.008a.826.826 0 0 1-.116.507.64.64 0 0 1-.464.139h-12.63l7.388-7.476a.733.733 0 0 0 .168-.286.737.737 0 0 0 .038-.192c0-.016.008-.03.008-.045v-22.21l2.477 13.051a.73.73 0 0 0 .854.584.727.727 0 0 0 .466-.31.743.743 0 0 0 .112-.552L50.34 6.965a1.783 1.783 0 0 0-.085-.447l-.046-.245a.73.73 0 0 0-.487-.558 1.74 1.74 0 0 0-1.138-.435h-7.897V1.977a.733.733 0 0 0-.729-.737.733.733 0 0 0-.728.737V5.28h-5.758V1.846a.733.733 0 0 0-.728-.737.733.733 0 0 0-.728.737V5.28h-5.757V1.716a.733.733 0 0 0-.728-.737.733.733 0 0 0-.728.737V5.28h-5.758V1.585a.733.733 0 0 0-.728-.737.733.733 0 0 0-.729.737V5.28h-5.757V1.455a.733.733 0 0 0-.728-.737.733.733 0 0 0-.728.737V5.28H2.483A1.78 1.78 0 0 0 .716 7.07V47.72a1.78 1.78 0 0 0 1.767 1.788h21.086c.402 0 .728-.33.728-.737a.733.733 0 0 0-.728-.736H2.483a.313.313 0 0 1-.31-.315V15.495h46.719v20.817h-9.829a1.78 1.78 0 0 0-1.767 1.788v9.944h-9.962c-.26 0-.5.14-.63.369a.745.745 0 0 0 0 .737c.13.228.37.368.63.368h10.693a.73.73 0 0 0 .514-.217l2.75-2.783H55.38a1.962 1.962 0 0 0 1.564-.646 2.278 2.278 0 0 0 .45-1.716zM2.172 14.02V7.075c0-.174.14-.314.31-.315h7.895v3.565c0 .407.326.737.728.737.402 0 .728-.33.728-.737V6.76h5.757v3.696c0 .407.327.737.729.737.402 0 .728-.33.728-.737V6.76h5.758v3.826c0 .407.326.737.728.737.402 0 .728-.33.728-.737V6.76h5.757v3.957c0 .407.326.737.728.737.403 0 .729-.33.729-.737V6.76h5.757v4.087c0 .407.326.737.729.737.402 0 .728-.33.728-.737V6.76h7.894c.11.002.21.062.264.16l.046.245v6.856H2.173zM38.755 38.1c0-.174.139-.314.31-.314h8.796L38.754 47V38.1z"/><path d="M20.981 20.278c-1.754 0-3.176 1.438-3.176 3.213 0 1.775 1.422 3.214 3.176 3.214 1.754 0 3.176-1.439 3.176-3.214-.002-1.774-1.423-3.211-3.176-3.213zm0 4.953a1.718 1.718 0 0 1-1.588-1.073 1.754 1.754 0 0 1 .373-1.896 1.704 1.704 0 0 1 1.873-.377 1.74 1.74 0 0 1 1.06 1.607c0 .96-.769 1.74-1.718 1.74zM29.76 26.704a3.176 3.176 0 0 0 2.935-1.983c.492-1.2.22-2.583-.688-3.503a3.148 3.148 0 0 0-3.461-.697 3.214 3.214 0 0 0-1.96 2.97c.001 1.773 1.422 3.211 3.174 3.213zm0-4.953c.95 0 1.719.778 1.719 1.739 0 .96-.77 1.739-1.719 1.739-.949 0-1.718-.779-1.718-1.74 0-.96.77-1.738 1.718-1.738zM38.541 26.704c1.754 0 3.176-1.439 3.176-3.213 0-1.775-1.422-3.214-3.176-3.214-1.754 0-3.175 1.439-3.175 3.214.002 1.774 1.422 3.211 3.175 3.213zm0-4.953c.695 0 1.322.423 1.588 1.073.266.65.119 1.398-.372 1.896a1.704 1.704 0 0 1-1.873.377 1.74 1.74 0 0 1-1.061-1.607c0-.96.77-1.739 1.718-1.739zM20.981 28.62c-1.754 0-3.176 1.44-3.176 3.214 0 1.775 1.422 3.214 3.176 3.214 1.754 0 3.176-1.439 3.176-3.214-.002-1.774-1.423-3.212-3.176-3.214zm0 4.954c-.95 0-1.719-.779-1.719-1.74 0-.96.77-1.738 1.719-1.738.95 0 1.718.778 1.718 1.739 0 .96-.769 1.739-1.718 1.739zM29.76 35.048a3.176 3.176 0 0 0 2.935-1.984c.492-1.2.22-2.583-.688-3.502a3.148 3.148 0 0 0-3.461-.697 3.214 3.214 0 0 0-1.96 2.97c.002 1.773 1.422 3.21 3.174 3.213zm0-4.954c.696 0 1.322.424 1.588 1.074.266.65.12 1.398-.372 1.895a1.704 1.704 0 0 1-1.873.377 1.74 1.74 0 0 1-1.061-1.607c0-.96.77-1.737 1.718-1.737v-.002zM38.541 35.048c1.754 0 3.176-1.439 3.176-3.214s-1.422-3.214-3.176-3.214c-1.754 0-3.175 1.44-3.175 3.214.002 1.774 1.422 3.211 3.175 3.214zm0-4.954c.695 0 1.322.424 1.588 1.074.266.65.119 1.398-.372 1.895a1.704 1.704 0 0 1-1.873.377 1.74 1.74 0 0 1-1.061-1.607c0-.96.77-1.737 1.718-1.737v-.002zM20.981 36.963c-1.754 0-3.176 1.439-3.176 3.214s1.422 3.214 3.176 3.214c1.754 0 3.176-1.44 3.176-3.214-.002-1.774-1.423-3.212-3.176-3.214zm0 4.954c-.95 0-1.719-.779-1.719-1.74 0-.96.77-1.739 1.719-1.739.95 0 1.718.779 1.718 1.74 0 .96-.769 1.739-1.718 1.739zM29.76 43.39a3.176 3.176 0 0 0 2.935-1.983c.492-1.2.22-2.583-.688-3.502a3.148 3.148 0 0 0-3.461-.697 3.214 3.214 0 0 0-1.96 2.969c.002 1.773 1.422 3.21 3.174 3.214zm0-4.953c.95 0 1.719.779 1.719 1.74 0 .96-.77 1.738-1.719 1.738-.949 0-1.718-.778-1.718-1.739 0-.96.77-1.739 1.718-1.739zM14.585 21.015a.723.723 0 0 0-1.03 0l-1.352 1.37-1.353-1.37a.722.722 0 0 0-1.02.01.743.743 0 0 0-.01 1.032l1.353 1.37-1.352 1.369a.743.743 0 0 0 .01 1.032.722.722 0 0 0 1.02.01l1.352-1.37 1.353 1.37c.182.192.453.269.708.202a.733.733 0 0 0 .52-.527.743.743 0 0 0-.199-.717l-1.352-1.37 1.352-1.369a.74.74 0 0 0 0-1.042zM14.585 29.358a.723.723 0 0 0-1.03 0l-1.352 1.369-1.353-1.369a.722.722 0 0 0-1.02.01.743.743 0 0 0-.01 1.032l1.353 1.369-1.352 1.369a.743.743 0 0 0 .01 1.032.722.722 0 0 0 1.02.01l1.352-1.37 1.353 1.37c.182.192.453.269.708.202a.733.733 0 0 0 .52-.527.743.743 0 0 0-.199-.717l-1.352-1.37 1.352-1.37a.742.742 0 0 0 0-1.04zM14.585 37.7a.722.722 0 0 0-1.03 0l-1.352 1.369L10.85 37.7a.723.723 0 0 0-.708-.202.733.733 0 0 0-.52.527.743.743 0 0 0 .199.717l1.352 1.369-1.352 1.369a.743.743 0 0 0 .01 1.032.722.722 0 0 0 1.02.01l1.352-1.37 1.353 1.37c.182.192.453.269.708.202a.733.733 0 0 0 .52-.527.743.743 0 0 0-.199-.717l-1.352-1.37 1.352-1.368a.74.74 0 0 0 0-1.042z"/></g></svg>