<svg xmlns="http://www.w3.org/2000/svg" width="60.917" height="81.39" viewBox="0 0 60.917 81.39"><defs><style>.a{fill:#179ecf;}</style></defs><g transform="translate(-611.843 -125.2)"><path class="a" d="M672.651,202.357l-11.482-26.214a1.3,1.3,0,1,0-2.375,1.04l9.84,22.468a9.559,9.559,0,0,0-9.752,2.309,6.96,6.96,0,0,1-9.831,0,9.555,9.555,0,0,0-13.5,0,6.95,6.95,0,0,1-9.83,0,9.56,9.56,0,0,0-9.752-2.309l17.6-40.175v5.317a1.3,1.3,0,0,0,2.593,0V154.7h12.787l5.982,13.657a1.3,1.3,0,1,0,2.375-1.041l-5.9-13.461a17.129,17.129,0,0,0,6.96-11.269l2.2-14.043a2.895,2.895,0,0,0-5.521-1.587A20.655,20.655,0,0,1,647,136.365l-4.7,2.948-4.7-2.948a20.638,20.638,0,0,1-8.045-9.409,2.894,2.894,0,0,0-5.52,1.587l2.2,14.044a17.139,17.139,0,0,0,6.961,11.269l-21.243,48.5a1.3,1.3,0,0,0,2.1,1.438,6.961,6.961,0,0,1,9.831,0,9.544,9.544,0,0,0,13.5,0,6.96,6.96,0,0,1,9.831,0,9.556,9.556,0,0,0,13.5,0,6.96,6.96,0,0,1,9.831,0,1.3,1.3,0,0,0,2.1-1.437ZM628.8,142.185l-2.2-14.045a.288.288,0,0,1,.068-.241.339.339,0,0,1,.506.078,23.217,23.217,0,0,0,9.05,10.586l5.2,3.264a1.294,1.294,0,0,0,.857.324h.015a1.362,1.362,0,0,0,.873-.324l5.2-3.264a23.228,23.228,0,0,0,9.051-10.586.338.338,0,0,1,.506-.078.292.292,0,0,1,.069.242l-2.2,14.043a14.559,14.559,0,0,1-6.391,9.922H635.188A14.561,14.561,0,0,1,628.8,142.185Z"/><path class="a" d="M636.88,173.912a1.3,1.3,0,0,0-1.3,1.3v2.9a1.3,1.3,0,0,0,2.593,0v-2.9A1.3,1.3,0,0,0,636.88,173.912Z" transform="translate(-2.017 -4.139)"/></g></svg>