<svg xmlns="http://www.w3.org/2000/svg" width="85.056" height="94.855" viewBox="0 0 85.056 94.855"><defs><style>.a{fill:#3c465a;}</style></defs><path class="a" d="M831,525.982c-2.813-5.705-9.031-13.1-22.617-16.279l-.841-2.175h3.2V489.21h3.376a4.91,4.91,0,0,0,4.9-4.9v-13.49h-.029a27.384,27.384,0,0,0-54.72,0h-.037v13.49a4.894,4.894,0,0,0,3.5,4.673v2.575a5.3,5.3,0,0,0,4.736,5.254v10.72H775.1l-.84,2.174c-26.354,6.168-25.47,28.172-25.457,28.4l.073,1.339h84.893l.073-1.339A26.559,26.559,0,0,0,831,525.982Zm-25.17-14.763-.008.035c-.04.182-.1.414-.173.7l-.009.034c-.02.072-.043.152-.066.231l-.035.123c-.022.076-.047.156-.072.237-.017.054-.033.108-.051.165-.026.08-.053.165-.081.25l-.065.2c-.029.088-.06.177-.092.269-.025.073-.052.149-.079.224-.034.095-.067.189-.1.288-.029.078-.061.161-.092.242-.039.105-.078.209-.12.318-.033.084-.069.174-.1.261-.075.191-.156.389-.241.593-.048.118-.1.234-.149.357-.045.107-.1.221-.144.332s-.1.238-.159.362-.107.236-.161.355-.118.257-.179.389l-.178.376c-.064.135-.13.272-.2.41s-.127.262-.194.4-.151.3-.228.455c-.066.13-.132.26-.2.394-.088.17-.18.346-.273.521-.066.126-.13.249-.2.378-.125.231-.255.47-.387.71-.043.079-.083.154-.128.233-.176.318-.361.644-.552.977-.067.116-.139.237-.208.355-.131.225-.262.45-.4.682-.085.143-.175.291-.263.437l0,.007-7.061-7.888,10.1-11.279,2.6,6.714,0,.019C805.854,511.116,805.844,511.165,805.832,511.219Zm-7.793,15.756c-.183.276-.372.558-.564.841-.091.136-.18.268-.273.405q-.393.576-.809,1.172c-.029.04-.055.079-.083.119q-.471.67-.972,1.365c-.068.095-.141.192-.21.288-.264.364-.533.732-.811,1.107-.109.148-.223.3-.335.448-.246.329-.495.661-.751,1-.127.167-.258.336-.387.505-.256.333-.515.669-.781,1.009l-.4.515-.339.426-.341-.43c-.128-.162-.254-.324-.38-.485q-.409-.525-.8-1.038l-.35-.458c-.268-.353-.529-.7-.786-1.045l-.3-.4q-.432-.582-.84-1.148c-.058-.08-.119-.162-.176-.242q-.995-1.379-1.868-2.663c-.081-.119-.158-.235-.238-.353-.2-.3-.4-.6-.6-.892-.1-.143-.186-.283-.278-.424q-.218-.333-.427-.658l7.335-8.2,7.4,8.265c-.109.168-.218.336-.33.507C798.241,526.667,798.142,526.82,798.039,526.975Zm-17.528-6.825c-.058-.107-.111-.21-.167-.316-.1-.2-.209-.395-.308-.586-.062-.12-.12-.236-.18-.354-.086-.17-.172-.339-.254-.5l-.173-.352-.224-.464c-.054-.113-.107-.226-.159-.336q-.1-.222-.2-.436c-.049-.106-.1-.213-.144-.316-.064-.144-.125-.282-.185-.42-.041-.094-.084-.189-.123-.28-.065-.153-.126-.3-.186-.445-.035-.082-.07-.166-.1-.247q-.117-.286-.222-.555c-.032-.082-.06-.159-.091-.238l-.122-.323c-.032-.086-.061-.167-.09-.248s-.067-.184-.1-.272-.054-.157-.08-.233-.055-.161-.08-.238-.049-.147-.071-.217-.046-.145-.068-.215l-.059-.19c-.02-.068-.039-.131-.057-.2s-.034-.114-.049-.166-.034-.125-.051-.185c-.011-.043-.024-.089-.035-.129-.024-.094-.046-.182-.066-.262-.008-.033-.014-.06-.021-.09-.011-.047-.023-.1-.032-.136s-.012-.056-.018-.083l-.015-.073,2.559-6.621,10.026,11.2-6.986,7.8c-.06-.1-.121-.2-.179-.3-.141-.238-.277-.471-.412-.7-.067-.114-.136-.231-.2-.344-.193-.336-.38-.667-.559-.988h0C780.847,520.773,780.676,520.459,780.511,520.15Zm2.3-23.284a4.929,4.929,0,0,0,4.751,3.671h4.207A4.939,4.939,0,0,0,796.7,495.6v-.33a4.939,4.939,0,0,0-4.933-4.933H787.56a4.93,4.93,0,0,0-4.757,3.691h-5.469c-1.553-5.006-2.274-12.311-2.265-22.47l12.623-4.33c4.98,2.473,16.745,4.132,20.509,4.615,0,.374,0,.752,0,1.119,0,.35,0,.7-.008,1.042-.007.607-.018,1.2-.031,1.786,0,.251-.009.511-.015.758q-.031,1.185-.08,2.307c-.012.29-.028.567-.042.851-.023.462-.047.918-.075,1.364-.011.179-.023.353-.035.53h0v.054c-.01.157-.02.316-.031.47-.024.331-.05.654-.076.976-.032.395-.064.792-.1,1.174-.011.115-.024.223-.035.336-.1,1.04-.22,2.037-.354,2.98l-.1.72c-.877,5.7-2.356,9.538-4.5,11.881l-.133.14c-3.814,4.02-7.63,4.359-10.989,4.359-3.279,0-7.1-.339-10.909-4.359a12.967,12.967,0,0,1-2.267-3.469Zm-.322-39.825a19.846,19.846,0,0,1,18.2,0c4.466,2.364,6.936,6.372,7.356,11.929-5.4-.711-15.934-2.427-19.521-4.5l-.558-.323-12.792,4.386C775.692,463.2,778.142,459.341,782.487,457.041Zm9.188,50.487h.5l.146,0,.387-.006.223-.007c.123,0,.246-.008.375-.014l.263-.015c.127-.008.255-.016.388-.027.094-.007.189-.016.285-.025.135-.012.271-.027.41-.043.1-.012.2-.024.3-.038.143-.019.289-.042.436-.065.1-.017.206-.033.312-.052.158-.028.32-.062.483-.1.1-.021.2-.039.295-.062.2-.046.405-.1.61-.156l.071-.018-5.9,6.584-5.927-6.621c.476.136.936.239,1.384.325l.15.03c.177.032.348.059.52.085l.238.036c.155.021.3.039.454.056.092.01.182.02.27.028.138.014.272.025.405.035.1.008.189.014.282.02.122.007.242.015.36.02l.289.011.31.009c.107,0,.208,0,.31,0l.244,0h1.12Zm14.773-2.834-1.2-3.1a17.427,17.427,0,0,0,2.661-4.635v7.739Zm9.742-20.388a2.073,2.073,0,0,1-2.071,2.07h-3.376v-4.56c.007-.11.013-.227.02-.338q.043-.688.081-1.4c.015-.306.031-.613.045-.926q.047-1.047.078-2.146c.007-.242.012-.491.018-.737.018-.725.032-1.466.041-2.227,0-.13,0-.255.005-.387v-.005h5.159Zm-24.554-36.889a24.585,24.585,0,0,1,24.525,23.4h-5.124c0-.082,0-.159,0-.242C810.94,452.518,793.646,452,791.6,452H791.5c-1.972,0-19.266.521-19.362,18.577l0,.242h-5.03A24.585,24.585,0,0,1,791.636,447.417Zm-24.564,36.889V473.65h5.158c.027,2.9.12,5.537.277,7.954h-.037v4.772h-3.327A2.073,2.073,0,0,1,767.072,484.306Zm3.5,7.248V489.21h1.9v4.748A2.479,2.479,0,0,1,770.568,491.554Zm4.736,13.14v-7.828h.021a18.348,18.348,0,0,0,2.208,4.091l.028.207-1.366,3.53ZM751.646,536.6c.238-4.53,2.586-19.021,22.591-24l.017.06q.063.228.141.489c.017.059.035.118.054.181.063.207.132.424.21.659.01.03.022.062.031.092.072.212.152.438.237.674.029.08.059.162.09.245.091.247.189.505.3.775.016.039.029.074.044.112.118.295.248.609.386.931.043.1.088.206.134.311q.184.424.392.878c.033.072.062.14.1.213.167.36.348.737.537,1.124.059.12.12.241.181.364q.246.5.519,1.02c.05.095.1.187.148.284.225.427.465.87.717,1.325.073.133.15.269.226.4q.32.57.669,1.168c.07.12.137.237.209.359q.44.746.926,1.534c.084.136.172.275.258.412q.414.666.864,1.36c.087.135.172.268.261.405q.561.858,1.174,1.761l.265.385q.53.771,1.1,1.575l.326.459c.464.648.945,1.309,1.449,1.987.079.107.164.217.244.324q.673.9,1.4,1.838l.219.288Zm42.945,0c.094-.122.177-.235.269-.355q.66-.855,1.278-1.681c.111-.148.227-.3.336-.447.487-.656.953-1.295,1.4-1.923.132-.183.258-.362.386-.543q.529-.747,1.023-1.466c.106-.155.216-.312.32-.465q.6-.878,1.143-1.714c.105-.161.2-.316.306-.475q.422-.651.811-1.276c.1-.156.2-.314.292-.467q.477-.771.908-1.5l.236-.405q.331-.57.637-1.112l.246-.44c.247-.447.483-.882.7-1.3.058-.11.111-.214.167-.322q.262-.5.5-.981l.19-.382c.187-.383.366-.756.531-1.112.038-.081.071-.156.107-.236q.2-.44.38-.852l.141-.326c.132-.311.258-.613.372-.9.022-.054.041-.105.062-.158.1-.262.2-.511.287-.751.032-.086.063-.17.093-.253.084-.234.163-.458.234-.669.01-.03.023-.063.032-.093.079-.235.147-.452.211-.659.019-.063.036-.122.054-.181q.078-.261.14-.489l.017-.06c20.008,4.976,22.354,19.47,22.59,24Z" transform="translate(-748.796 -444.583)"/></svg>