<svg width="54" height="53" xmlns="http://www.w3.org/2000/svg"><g fill="none" fill-rule="evenodd"><path d="M44.642 23.8H25.705l-.672-.016a9.968 9.968 0 0 0 1.743 2.335l.13.129c3.574 3.564 9.18 3.866 13.1.906l.4-.265 4.236-3.09zM23.112 47.084a2.714 2.714 0 0 1 0 3.847 2.733 2.733 0 0 1-3.858 0L2.026 33.748a2.714 2.714 0 0 1 0-3.847 2.732 2.732 0 0 1 3.857 0l17.229 17.183zM22.534 46.142l4.885-6.412.267-.398a9.955 9.955 0 0 0-.91-13.065l-.128-.129c-3.574-3.564-9.181-3.866-13.1-.906l-.4.266-6.43 4.872 15.816 15.772z"/><path d="M26.134 12.837l4.885-6.411 15.815 15.771-6.429 4.873-.4.266c-3.918 2.96-9.525 2.657-13.1-.907l-.128-.129a9.955 9.955 0 0 1-.91-13.064l.267-.399zM39.264 6.517l-4.966-4.953a2.732 2.732 0 0 0-3.857 0 2.715 2.715 0 0 0 0 3.847l17.23 17.182a2.731 2.731 0 0 0 3.856 0 2.715 2.715 0 0 0 0-3.847L41.733 8.98"/><path d="M39.264 6.517l-4.966-4.953a2.732 2.732 0 0 0-3.857 0 2.715 2.715 0 0 0 0 3.847l17.23 17.182a2.731 2.731 0 0 0 3.856 0 2.715 2.715 0 0 0 0-3.847L41.733 8.98M23.112 47.084a2.714 2.714 0 0 1 0 3.847 2.733 2.733 0 0 1-3.858 0L2.026 33.748a2.714 2.714 0 0 1 0-3.847 2.732 2.732 0 0 1 3.857 0l17.229 17.183zM6.718 30.479l6.43-4.873.4-.265c3.918-2.96 9.526-2.658 13.1.906l.129.129a9.955 9.955 0 0 1 .909 13.064l-.267.399-4.885 6.41M31.02 6.244l-4.886 6.412-.266.398a9.955 9.955 0 0 0 .908 13.065l.129.129c3.575 3.564 9.182 3.866 13.1.906l.4-.266 6.43-4.872" stroke="#179ECF" stroke-width="1.531" stroke-linecap="round" stroke-linejoin="round"/><path stroke="#179ECF" stroke-width="1.531" stroke-linecap="round" stroke-linejoin="round" d="M44.384 23.8h-18.68l-.67-.016M26.436 32.944v1.373M26.436 26.338v4.055"/></g></svg>