<svg xmlns="http://www.w3.org/2000/svg" width="77.691" height="69.284" viewBox="0 0 77.691 69.284"><defs><style>.a{fill:#179ecf;}</style></defs><g transform="translate(-291.732 -417.583)"><path class="a" d="M317.552,498.441a1.294,1.294,0,0,1,1.194.792,1.056,1.056,0,0,0,1.945-.824,3.407,3.407,0,1,0-1.3,4.2,1.056,1.056,0,0,0-1.14-1.779,1.279,1.279,0,0,1-.695.2,1.3,1.3,0,0,1,0-2.59Z" transform="translate(-5.71 -20.062)"/><path class="a" d="M330.4,466.454a1.056,1.056,0,0,0-1.056,1.056v15.6a1.637,1.637,0,0,1-1.629,1.641H295.474a1.638,1.638,0,0,1-1.63-1.641V421.336a1.638,1.638,0,0,1,1.63-1.641H327.72a1.637,1.637,0,0,1,1.629,1.641v16.328a1.056,1.056,0,1,0,2.112,0V421.336a3.751,3.751,0,0,0-3.741-3.753H295.474a3.751,3.751,0,0,0-3.742,3.753v61.778a3.751,3.751,0,0,0,3.742,3.753H327.72a3.751,3.751,0,0,0,3.741-3.753v-15.6A1.056,1.056,0,0,0,330.4,466.454Z"/><path class="a" d="M304.022,443.877a1.056,1.056,0,0,0,1.056,1.056h19.3a1.056,1.056,0,1,0,0-2.112h-19.3A1.056,1.056,0,0,0,304.022,443.877Z" transform="translate(-3.131 -6.43)"/><path class="a" d="M319.089,427.775a1.007,1.007,0,0,0,0-2.014h-3.178a1.007,1.007,0,1,0,0,2.014Z" transform="translate(-5.904 -2.084)"/><path class="a" d="M324.377,469.861h-19.3a1.056,1.056,0,0,0,0,2.112h19.3a1.056,1.056,0,0,0,0-2.112Z" transform="translate(-3.131 -13.319)"/><path class="a" d="M325.433,484.438a1.056,1.056,0,0,0-1.056-1.056h-19.3a1.056,1.056,0,1,0,0,2.112h19.3A1.056,1.056,0,0,0,325.433,484.438Z" transform="translate(-3.131 -16.764)"/><path class="a" d="M368.1,452.985l-11.3-7.874a4.187,4.187,0,0,0-6.58,3.527,4.208,4.208,0,0,0-1.555-.013,4.187,4.187,0,0,0-3.45,4.213,4.2,4.2,0,0,0-1.554-.012,4.192,4.192,0,0,0-3.44,3.795l-13.4-9.334a4.176,4.176,0,0,0-5.679,6h-16.06a1.056,1.056,0,1,0,0,2.112H323.81l11.913,8.3c-.48,9.147,4.121,11.1,4.312,11.178.043.018,4.448,1.826,11.09,4.4a12.8,12.8,0,0,0,4.644.917A10.333,10.333,0,0,0,363,477.341a.957.957,0,0,0,.1-.12l8-11.488C374.73,460.249,370.748,455.014,368.1,452.985Zm1.253,11.56-7.937,11.395c-.464.452-3.907,3.538-9.525,1.365-6.62-2.561-11.006-4.361-11.057-4.382-.033-.013-2.988-1.392-3.029-7.774l4.342,3.025a1.057,1.057,0,0,0,1.208-1.734l-18.031-12.56a1.049,1.049,0,0,0-.829-.578l-1.254-.873a2.076,2.076,0,0,1,2.372-3.407l18.855,13.135a1.056,1.056,0,0,0,1.22-1.724l-2.479-1.78a2.075,2.075,0,1,1,2.373-3.406l3.89,2.71a1.057,1.057,0,0,0,1.22-1.725l-2.479-1.779a2.076,2.076,0,1,1,2.373-3.406l3.47,2.418a1.056,1.056,0,0,0,1.223-1.723l-2.062-1.488a2.076,2.076,0,0,1,2.373-3.407l11.265,7.846C367.095,454.878,372.8,459.337,369.35,464.545Z" transform="translate(-3.131 -6.822)"/></g></svg>