<svg width="58" height="51" xmlns="http://www.w3.org/2000/svg"><g fill="#179ECF" fill-rule="nonzero"><path d="M15.305 44.389c.378 0 .719.224.865.569a.768.768 0 0 0 1.004.402.756.756 0 0 0 .407-.994 2.472 2.472 0 0 0-2.4-1.489 2.466 2.466 0 0 0-2.234 1.72 2.434 2.434 0 0 0 .863 2.671 2.489 2.489 0 0 0 2.828.115.755.755 0 0 0 .232-1.049.77.77 0 0 0-1.058-.23.934.934 0 0 1-.504.144.937.937 0 0 1-.86-.93c0-.484.373-.888.86-.93h-.003z"/><path d="M28.76 35.823a.762.762 0 0 0-.766.758v11.206a1.181 1.181 0 0 1-1.181 1.179H3.438a1.182 1.182 0 0 1-1.182-1.179V3.414a1.182 1.182 0 0 1 1.182-1.179h23.378c.655.004 1.183.53 1.181 1.18v11.728c0 .419.343.758.766.758s.766-.34.766-.758V3.414c0-1.486-1.213-2.692-2.713-2.696H3.438C1.938.722.724 1.928.725 3.414V47.79c0 1.486 1.213 2.692 2.713 2.696h23.378c1.5-.004 2.713-1.21 2.713-2.696V36.584a.755.755 0 0 0-.225-.54.77.77 0 0 0-.545-.221z"/><path d="M7.365 14.987c0 .419.343.758.766.758h13.992c.423 0 .766-.34.766-.758a.762.762 0 0 0-.766-.759H8.131a.77.77 0 0 0-.541.222.755.755 0 0 0-.225.537zM16.278 6.542c.404 0 .73-.323.73-.723 0-.4-.326-.723-.73-.723h-2.304a.727.727 0 0 0-.73.723c0 .4.327.723.73.723h2.304zM22.123 28.703H8.13a.762.762 0 0 0-.765.758c0 .42.342.759.765.759h13.993c.422 0 .765-.34.765-.759a.762.762 0 0 0-.765-.758zM22.888 36.7a.762.762 0 0 0-.765-.76H8.13a.762.762 0 0 0-.765.76c0 .418.342.758.765.758h13.993c.422 0 .765-.34.765-.759z"/><path d="M53.822 21.248l-8.193-5.656a3.06 3.06 0 0 0-3.17-.184 3.003 3.003 0 0 0-1.6 2.717 3.079 3.079 0 0 0-1.128-.01 3.015 3.015 0 0 0-2.5 3.027 3.073 3.073 0 0 0-1.127-.009 3.022 3.022 0 0 0-2.494 2.726l-9.715-6.704a3.048 3.048 0 0 0-3.935.395 2.979 2.979 0 0 0-.183 3.915H8.134a.762.762 0 0 0-.766.758c0 .419.343.759.766.759h13.578l8.637 5.962c-.349 6.57 2.987 7.973 3.126 8.029.03.013 3.224 1.311 8.04 3.16a9.355 9.355 0 0 0 3.367.66 7.53 7.53 0 0 0 5.242-2.05.689.689 0 0 0 .073-.086l5.8-8.252c2.632-3.94-.255-7.7-2.175-9.157zm.908 8.303l-5.754 8.185c-.336.325-2.833 2.542-6.906.98-4.8-1.839-7.98-3.132-8.016-3.147-.024-.01-2.166-1-2.196-5.584l3.148 2.173a.77.77 0 0 0 1.05-.2.755.755 0 0 0-.174-1.046L22.809 21.89a.76.76 0 0 0-.6-.415l-.91-.627a1.482 1.482 0 0 1-.354-2.06 1.514 1.514 0 0 1 2.074-.387l13.67 9.435a.77.77 0 0 0 1.067-.181.754.754 0 0 0-.183-1.057l-1.797-1.279c-.682-.47-.85-1.4-.375-2.076a1.514 1.514 0 0 1 2.095-.37l2.82 1.946a.77.77 0 0 0 1.048-.196.755.755 0 0 0-.163-1.043l-1.797-1.278a1.487 1.487 0 0 1-.666-1.357 1.492 1.492 0 0 1 .87-1.238 1.517 1.517 0 0 1 1.516.149l2.516 1.736a.77.77 0 0 0 1.068-.18.754.754 0 0 0-.181-1.057l-1.495-1.07a1.482 1.482 0 0 1-.37-2.071 1.514 1.514 0 0 1 2.09-.375l8.167 5.635c.174.133 4.31 3.336 1.81 7.077h.001z"/></g></svg>