<?xml version="1.0" encoding="UTF-8"?>
<svg width="140px" height="42px" viewBox="0 0 140 42" version="1.1" xmlns="http://www.w3.org/2000/svg" xmlns:xlink="http://www.w3.org/1999/xlink">
    <!-- Generator: Sketch 51.2 (57519) - http://www.bohemiancoding.com/sketch -->
    <title>DL Apple</title>
    <desc>Created with Sketch.</desc>
    <defs>
        <polygon id="path-1" points="0 0.562 139.856 0.562 139.856 41.9994 0 41.9994"></polygon>
        <polygon id="path-3" points="0 0.562 139.856 0.562 139.856 42 0 42"></polygon>
        <polygon id="path-5" points="0 42.4388 139.856 42.4388 139.856 1.0008 0 1.0008"></polygon>
    </defs>
    <g id="Page-1" stroke="none" stroke-width="1" fill="none" fill-rule="evenodd">
        <g id="Desktop-HD" transform="translate(-815.000000, -900.000000)">
            <g id="DL-Apple" transform="translate(815.000000, 899.000000)">
                <g id="Group-3" transform="translate(0.000000, 0.438800)">
                    <mask id="mask-2" fill="white">
                        <use xlink:href="#path-1"></use>
                    </mask>
                    <g id="Clip-2"></g>
                    <path d="M134.676,41.9994 L5.18,41.9994 C2.33,41.9994 0,39.6694 0,36.8194 L0,5.7414 C0,2.8914 2.33,0.5614 5.18,0.5614 L134.676,0.5614 C137.524,0.5614 139.856,2.8914 139.856,5.7414 L139.856,36.8194 C139.856,39.6694 137.524,41.9994 134.676,41.9994" id="Fill-1" fill="#010202" mask="url(#mask-2)"></path>
                </g>
                <g id="Group-6" transform="translate(0.000000, 0.438800)">
                    <mask id="mask-4" fill="white">
                        <use xlink:href="#path-3"></use>
                    </mask>
                    <g id="Clip-5"></g>
                    <path d="M134.676,0.561 L5.18,0.561 C2.33,0.561 0,2.893 0,5.741 L0,36.819 C0,39.669 2.33,42.001 5.18,42.001 L134.676,42.001 C137.524,42.001 139.856,39.669 139.856,36.819 L139.856,5.741 C139.856,2.893 137.524,0.561 134.676,0.561 M134.676,1.391 C137.074,1.391 139.026,3.343 139.026,5.741 L139.026,36.819 C139.026,39.219 137.074,41.171 134.676,41.171 L5.18,41.171 C2.782,41.171 0.828,39.219 0.828,36.819 L0.828,5.741 C0.828,3.343 2.782,1.391 5.18,1.391 L134.676,1.391" id="Fill-4" fill="#A6A6A5" mask="url(#mask-4)"></path>
                </g>
                <path d="M33.4436,20.9978 C33.4156,18.1118 35.8076,16.7058 35.9156,16.6418 C34.5636,14.6678 32.4656,14.3978 31.7276,14.3758 C29.9656,14.1918 28.2576,15.4318 27.3596,15.4318 C26.4436,15.4318 25.0616,14.3958 23.5716,14.4258 C21.6556,14.4558 19.8636,15.5658 18.8796,17.2898 C16.8496,20.8018 18.3636,25.9658 20.3076,28.8058 C21.2796,30.1978 22.4156,31.7498 23.9036,31.6958 C25.3596,31.6338 25.9016,30.7678 27.6596,30.7678 C29.4016,30.7678 29.9096,31.6958 31.4276,31.6598 C32.9896,31.6338 33.9756,30.2638 34.9116,28.8598 C36.0376,27.2638 36.4876,25.6958 36.5056,25.6138 C36.4696,25.6018 33.4736,24.4578 33.4436,20.9978" id="Fill-7" fill="#FEFEFE"></path>
                <path d="M30.5764,12.5086 C31.3604,11.5306 31.8944,10.1986 31.7464,8.8466 C30.6144,8.8966 29.1964,9.6306 28.3784,10.5886 C27.6584,11.4306 27.0144,12.8146 27.1804,14.1146 C28.4524,14.2106 29.7604,13.4726 30.5764,12.5086" id="Fill-9" fill="#FEFEFE"></path>
                <path d="M47.3888,26.5496 L51.3268,26.5496 L49.3848,20.8336 L49.3308,20.8336 L47.3888,26.5496 Z M51.8428,28.1736 L46.8748,28.1736 L45.6808,31.6956 L43.5788,31.6956 L48.2808,18.6656 L50.4688,18.6656 L55.1728,31.6956 L53.0328,31.6956 L51.8428,28.1736 Z" id="Fill-11" fill="#FEFEFE"></path>
                <path d="M63.3282,26.947 C63.3282,25.023 62.3342,23.759 60.8182,23.759 C59.3282,23.759 58.3262,25.049 58.3262,26.947 C58.3262,28.861 59.3282,30.143 60.8182,30.143 C62.3342,30.143 63.3282,28.887 63.3282,26.947 M65.3342,26.947 C65.3342,29.899 63.7522,31.795 61.3702,31.795 C60.0142,31.795 58.9402,31.191 58.3782,30.133 L58.3342,30.133 L58.3342,34.839 L56.3842,34.839 L56.3842,22.197 L58.2722,22.197 L58.2722,23.777 L58.3062,23.777 C58.8502,22.757 60.0062,22.097 61.3322,22.097 C63.7442,22.097 65.3342,24.003 65.3342,26.947" id="Fill-13" fill="#FEFEFE"></path>
                <path d="M73.7854,26.947 C73.7854,25.023 72.7914,23.759 71.2754,23.759 C69.7854,23.759 68.7834,25.049 68.7834,26.947 C68.7834,28.861 69.7854,30.143 71.2754,30.143 C72.7914,30.143 73.7854,28.887 73.7854,26.947 M75.7894,26.947 C75.7894,29.899 74.2094,31.795 71.8254,31.795 C70.4714,31.795 69.3974,31.191 68.8354,30.133 L68.7914,30.133 L68.7914,34.839 L66.8394,34.839 L66.8394,22.197 L68.7294,22.197 L68.7294,23.777 L68.7634,23.777 C69.3074,22.757 70.4614,22.097 71.7894,22.097 C74.1994,22.097 75.7894,24.003 75.7894,26.947" id="Fill-15" fill="#FEFEFE"></path>
                <path d="M82.7014,28.0662 C82.8454,29.3582 84.0994,30.2062 85.8174,30.2062 C87.4594,30.2062 88.6434,29.3582 88.6434,28.1922 C88.6434,27.1822 87.9294,26.5762 86.2414,26.1602 L84.5514,25.7542 C82.1594,25.1762 81.0474,24.0582 81.0474,22.2402 C81.0474,19.9922 83.0074,18.4482 85.7894,18.4482 C88.5434,18.4482 90.4294,19.9922 90.4934,22.2402 L88.5254,22.2402 C88.4094,20.9402 87.3314,20.1562 85.7614,20.1562 C84.1914,20.1562 83.1154,20.9502 83.1154,22.1062 C83.1154,23.0262 83.8034,23.5682 85.4834,23.9842 L86.9174,24.3362 C89.5914,24.9702 90.7014,26.0422 90.7014,27.9482 C90.7014,30.3862 88.7594,31.9142 85.6714,31.9142 C82.7814,31.9142 80.8294,30.4222 80.7054,28.0662 L82.7014,28.0662 Z" id="Fill-17" fill="#FEFEFE"></path>
                <path d="M94.9104,19.948 L94.9104,22.196 L96.7164,22.196 L96.7164,23.74 L94.9104,23.74 L94.9104,28.978 C94.9104,29.792 95.2724,30.17 96.0664,30.17 C96.2664,30.17 96.5824,30.144 96.7064,30.126 L96.7064,31.66 C96.4924,31.714 96.0584,31.75 95.6244,31.75 C93.7024,31.75 92.9524,31.028 92.9524,29.186 L92.9524,23.74 L91.5704,23.74 L91.5704,22.196 L92.9524,22.196 L92.9524,19.948 L94.9104,19.948 Z" id="Fill-19" fill="#FEFEFE"></path>
                <path d="M104.7892,26.947 C104.7892,24.897 103.8492,23.687 102.2692,23.687 C100.6892,23.687 99.7492,24.905 99.7492,26.947 C99.7492,29.005 100.6892,30.207 102.2692,30.207 C103.8492,30.207 104.7892,29.005 104.7892,26.947 M97.7632,26.947 C97.7632,23.957 99.5232,22.079 102.2692,22.079 C105.0232,22.079 106.7752,23.957 106.7752,26.947 C106.7752,29.945 105.0332,31.815 102.2692,31.815 C99.5052,31.815 97.7632,29.945 97.7632,26.947" id="Fill-21" fill="#FEFEFE"></path>
                <path d="M108.385,22.196 L110.245,22.196 L110.245,23.814 L110.289,23.814 C110.589,22.738 111.453,22.096 112.575,22.096 C112.853,22.096 113.089,22.134 113.243,22.17 L113.243,23.994 C113.089,23.93 112.747,23.876 112.365,23.876 C111.111,23.876 110.335,24.726 110.335,26.062 L110.335,31.696 L108.385,31.696 L108.385,22.196 Z" id="Fill-23" fill="#FEFEFE"></path>
                <path d="M115.6408,26.071 L120.3908,26.071 C120.3468,24.617 119.4168,23.659 118.0608,23.659 C116.7148,23.659 115.7408,24.635 115.6408,26.071 Z M122.2328,28.905 C121.9708,30.631 120.2908,31.815 118.1428,31.815 C115.3788,31.815 113.6648,29.963 113.6648,26.991 C113.6648,24.011 115.3888,22.079 118.0608,22.079 C120.6888,22.079 122.3428,23.885 122.3428,26.765 L122.3428,27.433 L115.6328,27.433 L115.6328,27.551 C115.6328,29.177 116.6528,30.241 118.1868,30.241 C119.2708,30.241 120.1208,29.729 120.3808,28.905 L122.2328,28.905 Z" id="Fill-25" fill="#FEFEFE"></path>
                <path d="M45.8556,14.2332 L47.0356,14.2332 C48.3456,14.2332 49.0996,13.4172 49.0996,11.9812 C49.0996,10.5672 48.3316,9.7412 47.0356,9.7412 L45.8556,9.7412 L45.8556,14.2332 Z M47.1456,8.8572 C49.0016,8.8572 50.0896,9.9992 50.0896,11.9692 C50.0896,13.9692 49.0096,15.1192 47.1456,15.1192 L44.8836,15.1192 L44.8836,8.8572 L47.1456,8.8572 Z" id="Fill-27" fill="#FEFEFE"></path>
                <path d="M54.6856,12.7536 C54.6856,11.7296 54.2276,11.1296 53.4176,11.1296 C52.6076,11.1296 52.1516,11.7296 52.1516,12.7536 C52.1516,13.7876 52.6076,14.3796 53.4176,14.3796 C54.2276,14.3796 54.6856,13.7816 54.6856,12.7536 M51.1896,12.7536 C51.1896,11.2296 52.0396,10.3016 53.4176,10.3016 C54.7956,10.3016 55.6456,11.2296 55.6456,12.7536 C55.6456,14.2856 54.7996,15.2096 53.4176,15.2096 C52.0356,15.2096 51.1896,14.2856 51.1896,12.7536" id="Fill-29" fill="#FEFEFE"></path>
                <polygon id="Fill-31" fill="#FEFEFE" points="61.5704 15.1188 60.6024 15.1188 59.6244 11.6388 59.5524 11.6388 58.5804 15.1188 57.6204 15.1188 56.3184 10.3928 57.2644 10.3928 58.1124 13.9988 58.1824 13.9988 59.1524 10.3928 60.0464 10.3928 61.0184 13.9988 61.0924 13.9988 61.9344 10.3928 62.8664 10.3928"></polygon>
                <path d="M63.963,10.3932 L64.859,10.3932 L64.859,11.1432 L64.929,11.1432 C65.161,10.6192 65.629,10.3032 66.339,10.3032 C67.395,10.3032 67.975,10.9352 67.975,12.0592 L67.975,15.1192 L67.043,15.1192 L67.043,12.2932 C67.043,11.5352 66.713,11.1572 66.023,11.1572 C65.335,11.1572 64.895,11.6172 64.895,12.3532 L64.895,15.1192 L63.963,15.1192 L63.963,10.3932 Z" id="Fill-33" fill="#FEFEFE"></path>
                <mask id="mask-6" fill="white">
                    <use xlink:href="#path-5"></use>
                </mask>
                <g id="Clip-36"></g>
                <polygon id="Fill-35" fill="#FEFEFE" mask="url(#mask-6)" points="69.462 15.1188 70.396 15.1188 70.396 8.5488 69.462 8.5488"></polygon>
                <path d="M75.1876,12.7536 C75.1876,11.7296 74.7276,11.1296 73.9196,11.1296 C73.1096,11.1296 72.6536,11.7296 72.6536,12.7536 C72.6536,13.7876 73.1096,14.3796 73.9196,14.3796 C74.7276,14.3796 75.1876,13.7816 75.1876,12.7536 M71.6896,12.7536 C71.6896,11.2296 72.5416,10.3016 73.9196,10.3016 C75.2976,10.3016 76.1456,11.2296 76.1456,12.7536 C76.1456,14.2856 75.3016,15.2096 73.9196,15.2096 C72.5376,15.2096 71.6896,14.2856 71.6896,12.7536" id="Fill-37" fill="#FEFEFE" mask="url(#mask-6)"></path>
                <path d="M80.1662,13.3786 L80.1662,12.9826 L79.0122,13.0566 C78.3622,13.1006 78.0662,13.3226 78.0662,13.7386 C78.0662,14.1646 78.4362,14.4126 78.9442,14.4126 C79.6462,14.4126 80.1662,13.9646 80.1662,13.3786 M77.1282,13.7826 C77.1282,12.9306 77.7622,12.4406 78.8862,12.3726 L80.1662,12.2966 L80.1662,11.8906 C80.1662,11.3906 79.8362,11.1086 79.2002,11.1086 C78.6782,11.1086 78.3182,11.3006 78.2142,11.6346 L77.3102,11.6346 C77.4062,10.8226 78.1702,10.3026 79.2422,10.3026 C80.4262,10.3026 81.0942,10.8926 81.0942,11.8906 L81.0942,15.1186 L80.1982,15.1186 L80.1982,14.4546 L80.1242,14.4546 C79.8422,14.9266 79.3242,15.1966 78.7042,15.1966 C77.7922,15.1966 77.1282,14.6446 77.1282,13.7826" id="Fill-38" fill="#FEFEFE" mask="url(#mask-6)"></path>
                <path d="M83.2834,12.7536 C83.2834,13.7556 83.7554,14.3596 84.5474,14.3596 C85.3314,14.3596 85.8194,13.7476 85.8194,12.7576 C85.8194,11.7736 85.3254,11.1536 84.5474,11.1536 C83.7614,11.1536 83.2834,11.7596 83.2834,12.7536 M82.3214,12.7536 C82.3214,11.2596 83.0874,10.3156 84.2814,10.3156 C84.9274,10.3156 85.4754,10.6236 85.7314,11.1436 L85.8014,11.1436 L85.8014,8.5476 L86.7334,8.5476 L86.7334,15.1196 L85.8394,15.1196 L85.8394,14.3716 L85.7654,14.3716 C85.4854,14.8876 84.9314,15.1956 84.2814,15.1956 C83.0794,15.1956 82.3214,14.2516 82.3214,12.7536" id="Fill-39" fill="#FEFEFE" mask="url(#mask-6)"></path>
                <path d="M94.088,12.7536 C94.088,11.7296 93.63,11.1296 92.82,11.1296 C92.01,11.1296 91.554,11.7296 91.554,12.7536 C91.554,13.7876 92.01,14.3796 92.82,14.3796 C93.63,14.3796 94.088,13.7816 94.088,12.7536 M90.592,12.7536 C90.592,11.2296 91.442,10.3016 92.82,10.3016 C94.198,10.3016 95.046,11.2296 95.046,12.7536 C95.046,14.2856 94.202,15.2096 92.82,15.2096 C91.438,15.2096 90.592,14.2856 90.592,12.7536" id="Fill-40" fill="#FEFEFE" mask="url(#mask-6)"></path>
                <path d="M96.299,10.3932 L97.197,10.3932 L97.197,11.1432 L97.265,11.1432 C97.497,10.6192 97.965,10.3032 98.675,10.3032 C99.731,10.3032 100.313,10.9352 100.313,12.0592 L100.313,15.1192 L99.379,15.1192 L99.379,12.2932 C99.379,11.5352 99.049,11.1572 98.359,11.1572 C97.671,11.1572 97.233,11.6172 97.233,12.3532 L97.233,15.1192 L96.299,15.1192 L96.299,10.3932 Z" id="Fill-41" fill="#FEFEFE" mask="url(#mask-6)"></path>
                <path d="M105.5822,9.2176 L105.5822,10.4156 L106.6062,10.4156 L106.6062,11.2016 L105.5822,11.2016 L105.5822,13.6316 C105.5822,14.1256 105.7862,14.3416 106.2502,14.3416 C106.3922,14.3416 106.4742,14.3336 106.6062,14.3196 L106.6062,15.0976 C106.4542,15.1236 106.2802,15.1436 106.0982,15.1436 C105.0602,15.1436 104.6482,14.7796 104.6482,13.8696 L104.6482,11.2016 L103.8982,11.2016 L103.8982,10.4156 L104.6482,10.4156 L104.6482,9.2176 L105.5822,9.2176 Z" id="Fill-42" fill="#FEFEFE" mask="url(#mask-6)"></path>
                <path d="M107.879,8.5486 L108.803,8.5486 L108.803,11.1526 L108.877,11.1526 C109.105,10.6226 109.605,10.3066 110.319,10.3066 C111.325,10.3066 111.945,10.9446 111.945,12.0686 L111.945,15.1186 L111.011,15.1186 L111.011,12.2986 C111.011,11.5446 110.661,11.1606 110.001,11.1606 C109.237,11.1606 108.811,11.6426 108.811,12.3586 L108.811,15.1186 L107.879,15.1186 L107.879,8.5486 Z" id="Fill-43" fill="#FEFEFE" mask="url(#mask-6)"></path>
                <path d="M114.1018,12.32 L116.4878,12.32 C116.4678,11.578 116.0158,11.096 115.3258,11.096 C114.6378,11.096 114.1538,11.582 114.1018,12.32 Z M117.3838,13.842 C117.1698,14.69 116.4138,15.21 115.3338,15.21 C113.9798,15.21 113.1518,14.28 113.1518,12.772 C113.1518,11.26 113.9978,10.302 115.3298,10.302 C116.6438,10.302 117.4398,11.2 117.4398,12.684 L117.4398,13.01 L114.1018,13.01 L114.1018,13.062 C114.1338,13.89 114.6158,14.416 115.3598,14.416 C115.9258,14.416 116.3098,14.212 116.4838,13.842 L117.3838,13.842 Z" id="Fill-44" fill="#FEFEFE" mask="url(#mask-6)"></path>
            </g>
        </g>
    </g>
</svg>