<?xml version="1.0" encoding="UTF-8"?>
<svg width="140px" height="42px" viewBox="0 0 140 42" version="1.1" xmlns="http://www.w3.org/2000/svg" xmlns:xlink="http://www.w3.org/1999/xlink">
    <!-- Generator: Sketch 51.2 (57519) - http://www.bohemiancoding.com/sketch -->
    <title>DL Google</title>
    <desc>Created with Sketch.</desc>
    <defs>
        <polygon id="path-1" points="0 0.562 139.8558 0.562 139.8558 41.9994 0 41.9994"></polygon>
        <polygon id="path-3" points="0 0.562 139.8558 0.562 139.8558 42 0 42"></polygon>
        <polygon id="path-5" points="0 42 139.856 42 139.856 0.562 0 0.562"></polygon>
        <path d="M1.712,5.128 L1.712,5.28 L1.712,5.432 L5.984,9.708 L6.082,9.652 L11.148,6.774 C12.594,5.954 12.594,4.606 11.148,3.786 L6.084,0.908 L5.986,0.854 L1.712,5.128 Z" id="path-7"></path>
        <linearGradient x1="80.7451984%" y1="49.9989451%" x2="-157.326629%" y2="49.9989451%" id="linearGradient-9">
            <stop stop-color="#FEFEFE" offset="0%"></stop>
            <stop stop-color="#F8F8F8" offset="100%"></stop>
        </linearGradient>
        <path d="M0.81,14.18 C1.288,14.686 2.074,14.748 2.962,14.244 L18.082,5.652 L13.712,1.28 L0.81,14.18 Z" id="path-10"></path>
        <linearGradient x1="86.2491049%" y1="17.8495819%" x2="-50.1411197%" y2="194.809696%" id="linearGradient-12">
            <stop stop-color="#EE4547" offset="0%"></stop>
            <stop stop-color="#C7186D" offset="100%"></stop>
        </linearGradient>
        <path d="M0.81,2.38 L13.712,15.28 L18.084,10.908 L2.962,2.316 C2.546,2.08 2.152,1.968 1.802,1.968 C1.404,1.968 1.064,2.112 0.81,2.38" id="path-13"></path>
        <linearGradient x1="-50.742913%" y1="-95.5939408%" x2="60.603118%" y2="48.8915865%" id="linearGradient-15">
            <stop stop-color="#73C169" offset="0%"></stop>
            <stop stop-color="#289E6F" offset="100%"></stop>
        </linearGradient>
    </defs>
    <g id="Page-1" stroke="none" stroke-width="1" fill="none" fill-rule="evenodd">
        <g id="Desktop-HD" transform="translate(-970.000000, -900.000000)">
            <g id="DL-Google" transform="translate(970.000000, 899.000000)">
                <g id="Group-30" transform="translate(0.000000, 0.438800)">
                    <g id="Group-3">
                        <mask id="mask-2" fill="white">
                            <use xlink:href="#path-1"></use>
                        </mask>
                        <g id="Clip-2"></g>
                        <path d="M134.6758,41.9994 L5.1798,41.9994 C2.3318,41.9994 -0.0002,39.6694 -0.0002,36.8194 L-0.0002,5.7414 C-0.0002,2.8914 2.3318,0.5614 5.1798,0.5614 L134.6758,0.5614 C137.5238,0.5614 139.8558,2.8914 139.8558,5.7414 L139.8558,36.8194 C139.8558,39.6694 137.5238,41.9994 134.6758,41.9994" id="Fill-1" fill="#010202" mask="url(#mask-2)"></path>
                    </g>
                    <g id="Group-6">
                        <mask id="mask-4" fill="white">
                            <use xlink:href="#path-3"></use>
                        </mask>
                        <g id="Clip-5"></g>
                        <path d="M134.6758,0.561 L5.1798,0.561 C2.3318,0.561 -0.0002,2.893 -0.0002,5.741 L-0.0002,36.819 C-0.0002,39.669 2.3318,42.001 5.1798,42.001 L134.6758,42.001 C137.5238,42.001 139.8558,39.669 139.8558,36.819 L139.8558,5.741 C139.8558,2.893 137.5238,0.561 134.6758,0.561 M134.6758,1.391 C137.0738,1.391 139.0258,3.343 139.0258,5.741 L139.0258,36.819 C139.0258,39.219 137.0738,41.171 134.6758,41.171 L5.1798,41.171 C2.7798,41.171 0.8298,39.219 0.8298,36.819 L0.8298,5.741 C0.8298,3.343 2.7798,1.391 5.1798,1.391 L134.6758,1.391" id="Fill-4" fill="#A6A6A5" mask="url(#mask-4)"></path>
                    </g>
                    <path d="M49.124,11.1732 C49.124,12.0412 48.868,12.7312 48.352,13.2472 C47.766,13.8612 47.004,14.1672 46.068,14.1672 C45.17,14.1672 44.408,13.8572 43.782,13.2352 C43.152,12.6132 42.838,11.8412 42.838,10.9212 C42.838,10.0012 43.152,9.2292 43.782,8.6072 C44.408,7.9852 45.17,7.6732 46.068,7.6732 C46.514,7.6732 46.94,7.7612 47.344,7.9332 C47.75,8.1092 48.074,8.3392 48.316,8.6292 L47.77,9.1752 C47.358,8.6832 46.792,8.4372 46.068,8.4372 C45.414,8.4372 44.848,8.6692 44.372,9.1292 C43.894,9.5892 43.654,10.1852 43.654,10.9212 C43.654,11.6552 43.894,12.2532 44.372,12.7132 C44.848,13.1732 45.414,13.4032 46.068,13.4032 C46.762,13.4032 47.34,13.1732 47.804,12.7092 C48.106,12.4072 48.28,11.9892 48.326,11.4512 L46.068,11.4512 L46.068,10.7032 L49.08,10.7032 C49.11,10.8672 49.124,11.0212 49.124,11.1732" id="Fill-7" fill="#FEFEFE"></path>
                    <path d="M49.124,11.1732 C49.124,12.0412 48.868,12.7312 48.352,13.2472 C47.766,13.8612 47.004,14.1672 46.068,14.1672 C45.17,14.1672 44.408,13.8572 43.782,13.2352 C43.152,12.6132 42.838,11.8412 42.838,10.9212 C42.838,10.0012 43.152,9.2292 43.782,8.6072 C44.408,7.9852 45.17,7.6732 46.068,7.6732 C46.514,7.6732 46.94,7.7612 47.344,7.9332 C47.75,8.1092 48.074,8.3392 48.316,8.6292 L47.77,9.1752 C47.358,8.6832 46.792,8.4372 46.068,8.4372 C45.414,8.4372 44.848,8.6692 44.372,9.1292 C43.894,9.5892 43.654,10.1852 43.654,10.9212 C43.654,11.6552 43.894,12.2532 44.372,12.7132 C44.848,13.1732 45.414,13.4032 46.068,13.4032 C46.762,13.4032 47.34,13.1732 47.804,12.7092 C48.106,12.4072 48.28,11.9892 48.326,11.4512 L46.068,11.4512 L46.068,10.7032 L49.08,10.7032 C49.11,10.8672 49.124,11.0212 49.124,11.1732 Z" id="Stroke-9" stroke="#FEFEFE" stroke-width="0.5"></path>
                    <polygon id="Fill-11" fill="#FEFEFE" points="53.8984 8.5766 51.0684 8.5766 51.0684 10.5466 53.6204 10.5466 53.6204 11.2946 51.0684 11.2946 51.0684 13.2646 53.8984 13.2646 53.8984 14.0286 50.2704 14.0286 50.2704 7.8126 53.8984 7.8126"></polygon>
                    <polygon id="Stroke-13" stroke="#FEFEFE" stroke-width="0.5" points="53.8984 8.5766 51.0684 8.5766 51.0684 10.5466 53.6204 10.5466 53.6204 11.2946 51.0684 11.2946 51.0684 13.2646 53.8984 13.2646 53.8984 14.0286 50.2704 14.0286 50.2704 7.8126 53.8984 7.8126"></polygon>
                    <polygon id="Fill-15" fill="#FEFEFE" points="57.2666 14.0288 56.4686 14.0288 56.4686 8.5768 54.7306 8.5768 54.7306 7.8128 59.0026 7.8128 59.0026 8.5768 57.2666 8.5768"></polygon>
                    <polygon id="Stroke-17" stroke="#FEFEFE" stroke-width="0.5" points="57.2666 14.0288 56.4686 14.0288 56.4686 8.5768 54.7306 8.5768 54.7306 7.8128 59.0026 7.8128 59.0026 8.5768 57.2666 8.5768"></polygon>
                    <mask id="mask-6" fill="white">
                        <use xlink:href="#path-5"></use>
                    </mask>
                    <g id="Clip-20"></g>
                    <polygon id="Fill-19" fill="#FEFEFE" mask="url(#mask-6)" points="62.094 14.028 62.892 14.028 62.892 7.812 62.094 7.812"></polygon>
                    <polygon id="Stroke-21" stroke="#FEFEFE" stroke-width="0.5" mask="url(#mask-6)" points="62.094 14.028 62.892 14.028 62.892 7.812 62.094 7.812"></polygon>
                    <polygon id="Fill-22" fill="#FEFEFE" mask="url(#mask-6)" points="66.4346 14.0288 65.6366 14.0288 65.6366 8.5768 63.8986 8.5768 63.8986 7.8128 68.1706 7.8128 68.1706 8.5768 66.4346 8.5768"></polygon>
                    <polygon id="Stroke-23" stroke="#FEFEFE" stroke-width="0.5" mask="url(#mask-6)" points="66.4346 14.0288 65.6366 14.0288 65.6366 8.5768 63.8986 8.5768 63.8986 7.8128 68.1706 7.8128 68.1706 8.5768 66.4346 8.5768"></polygon>
                    <path d="M72.289,12.7054 C72.749,13.1714 73.311,13.4034 73.977,13.4034 C74.643,13.4034 75.205,13.1714 75.665,12.7054 C76.125,12.2394 76.357,11.6434 76.357,10.9214 C76.357,10.1974 76.125,9.6034 75.665,9.1374 C75.205,8.6714 74.643,8.4374 73.977,8.4374 C73.311,8.4374 72.749,8.6714 72.289,9.1374 C71.829,9.6034 71.599,10.1974 71.599,10.9214 C71.599,11.6434 71.829,12.2394 72.289,12.7054 M76.257,13.2254 C75.645,13.8534 74.885,14.1674 73.977,14.1674 C73.069,14.1674 72.309,13.8534 71.699,13.2254 C71.087,12.5974 70.783,11.8294 70.783,10.9214 C70.783,10.0114 71.087,9.2434 71.699,8.6174 C72.309,7.9874 73.069,7.6734 73.977,7.6734 C74.881,7.6734 75.639,7.9894 76.253,8.6214 C76.865,9.2514 77.171,10.0174 77.171,10.9214 C77.171,11.8294 76.867,12.5974 76.257,13.2254" id="Fill-24" fill="#FEFEFE" mask="url(#mask-6)"></path>
                    <path d="M72.289,12.7054 C72.749,13.1714 73.311,13.4034 73.977,13.4034 C74.643,13.4034 75.205,13.1714 75.665,12.7054 C76.125,12.2394 76.357,11.6434 76.357,10.9214 C76.357,10.1974 76.125,9.6034 75.665,9.1374 C75.205,8.6714 74.643,8.4374 73.977,8.4374 C73.311,8.4374 72.749,8.6714 72.289,9.1374 C71.829,9.6034 71.599,10.1974 71.599,10.9214 C71.599,11.6434 71.829,12.2394 72.289,12.7054 Z M76.257,13.2254 C75.645,13.8534 74.885,14.1674 73.977,14.1674 C73.069,14.1674 72.309,13.8534 71.699,13.2254 C71.087,12.5974 70.783,11.8294 70.783,10.9214 C70.783,10.0114 71.087,9.2434 71.699,8.6174 C72.309,7.9874 73.069,7.6734 73.977,7.6734 C74.881,7.6734 75.639,7.9894 76.253,8.6214 C76.865,9.2514 77.171,10.0174 77.171,10.9214 C77.171,11.8294 76.867,12.5974 76.257,13.2254 Z" id="Stroke-25" stroke="#FEFEFE" stroke-width="0.5" mask="url(#mask-6)"></path>
                    <polygon id="Fill-26" fill="#FEFEFE" mask="url(#mask-6)" points="78.293 14.0288 78.293 7.8128 79.265 7.8128 82.287 12.6488 82.321 12.6488 82.287 11.4508 82.287 7.8128 83.085 7.8128 83.085 14.0288 82.251 14.0288 79.091 8.9588 79.057 8.9588 79.091 10.1568 79.091 14.0288"></polygon>
                    <polygon id="Stroke-27" stroke="#FEFEFE" stroke-width="0.5" mask="url(#mask-6)" points="78.293 14.0288 78.293 7.8128 79.265 7.8128 82.287 12.6488 82.321 12.6488 82.287 11.4508 82.287 7.8128 83.085 7.8128 83.085 14.0288 82.251 14.0288 79.091 8.9588 79.057 8.9588 79.091 10.1568 79.091 14.0288"></polygon>
                    <path d="M110.782,31.64 L112.714,31.64 L112.714,18.688 L110.782,18.688 L110.782,31.64 Z M128.194,23.354 L125.978,28.97 L125.912,28.97 L123.612,23.354 L121.53,23.354 L124.978,31.202 L123.012,35.568 L125.028,35.568 L130.342,23.354 L128.194,23.354 Z M117.23,30.17 C116.596,30.17 115.714,29.852 115.714,29.07 C115.714,28.07 116.814,27.686 117.764,27.686 C118.614,27.686 119.012,27.87 119.53,28.12 C119.38,29.32 118.346,30.17 117.23,30.17 Z M117.464,23.072 C116.064,23.072 114.614,23.688 114.014,25.054 L115.73,25.77 C116.098,25.054 116.78,24.82 117.498,24.82 C118.496,24.82 119.512,25.42 119.53,26.486 L119.53,26.62 C119.18,26.42 118.43,26.12 117.514,26.12 C115.664,26.12 113.782,27.138 113.782,29.036 C113.782,30.768 115.298,31.886 116.998,31.886 C118.296,31.886 119.012,31.302 119.462,30.62 L119.53,30.62 L119.53,31.618 L121.396,31.618 L121.396,26.654 C121.396,24.354 119.68,23.072 117.464,23.072 Z M105.518,24.932 L102.768,24.932 L102.768,20.492 L105.518,20.492 C106.962,20.492 107.784,21.688 107.784,22.712 C107.784,23.716 106.962,24.932 105.518,24.932 Z M105.466,18.688 L100.834,18.688 L100.834,31.64 L102.768,31.64 L102.768,26.734 L105.466,26.734 C107.61,26.734 109.716,25.182 109.716,22.712 C109.716,20.24 107.61,18.688 105.466,18.688 Z M80.21,30.172 C78.874,30.172 77.756,29.054 77.756,27.518 C77.756,25.966 78.874,24.83 80.21,24.83 C81.528,24.83 82.562,25.966 82.562,27.518 C82.562,29.054 81.528,30.172 80.21,30.172 Z M82.428,24.08 L82.362,24.08 C81.928,23.562 81.094,23.096 80.042,23.096 C77.84,23.096 75.82,25.032 75.82,27.518 C75.82,29.988 77.84,31.908 80.042,31.908 C81.094,31.908 81.928,31.44 82.362,30.906 L82.428,30.906 L82.428,31.54 C82.428,33.226 81.528,34.128 80.076,34.128 C78.89,34.128 78.156,33.276 77.856,32.558 L76.17,33.26 C76.654,34.428 77.94,35.862 80.076,35.862 C82.346,35.862 84.264,34.528 84.264,31.272 L84.264,23.362 L82.428,23.362 L82.428,24.08 Z M85.6,31.64 L87.536,31.64 L87.536,18.688 L85.6,18.688 L85.6,31.64 Z M90.39,27.368 C90.34,25.666 91.71,24.798 92.694,24.798 C93.46,24.798 94.112,25.182 94.33,25.732 L90.39,27.368 Z M96.398,25.898 C96.032,24.914 94.914,23.096 92.626,23.096 C90.356,23.096 88.47,24.882 88.47,27.502 C88.47,29.972 90.34,31.908 92.844,31.908 C94.864,31.908 96.032,30.672 96.516,29.954 L95.014,28.954 C94.512,29.688 93.828,30.172 92.844,30.172 C91.858,30.172 91.158,29.722 90.708,28.836 L96.598,26.4 L96.398,25.898 Z M49.46,24.446 L49.46,26.316 L53.934,26.316 C53.8,27.368 53.45,28.136 52.916,28.67 C52.264,29.32 51.246,30.038 49.46,30.038 C46.708,30.038 44.554,27.818 44.554,25.064 C44.554,22.31 46.708,20.092 49.46,20.092 C50.946,20.092 52.032,20.676 52.832,21.426 L54.15,20.108 C53.032,19.04 51.546,18.222 49.46,18.222 C45.688,18.222 42.518,21.292 42.518,25.064 C42.518,28.836 45.688,31.908 49.46,31.908 C51.498,31.908 53.032,31.24 54.234,29.988 C55.468,28.754 55.852,27.016 55.852,25.616 C55.852,25.182 55.82,24.78 55.752,24.446 L49.46,24.446 Z M60.938,30.172 C59.602,30.172 58.452,29.07 58.452,27.502 C58.452,25.916 59.602,24.83 60.938,24.83 C62.274,24.83 63.424,25.916 63.424,27.502 C63.424,29.07 62.274,30.172 60.938,30.172 Z M60.938,23.096 C58.502,23.096 56.514,24.948 56.514,27.502 C56.514,30.038 58.502,31.908 60.938,31.908 C63.376,31.908 65.36,30.038 65.36,27.502 C65.36,24.948 63.376,23.096 60.938,23.096 Z M70.586,30.172 C69.252,30.172 68.1,29.07 68.1,27.502 C68.1,25.916 69.252,24.83 70.586,24.83 C71.922,24.83 73.074,25.916 73.074,27.502 C73.074,29.07 71.922,30.172 70.586,30.172 Z M70.586,23.096 C68.15,23.096 66.164,24.948 66.164,27.502 C66.164,30.038 68.15,31.908 70.586,31.908 C73.024,31.908 75.008,30.038 75.008,27.502 C75.008,24.948 73.024,23.096 70.586,23.096 Z" id="Fill-28" fill="#FEFEFE" mask="url(#mask-6)"></path>
                    <path d="M10.8106,8.3802 C10.5086,8.6982 10.3306,9.1922 10.3306,9.8342 L10.3306,32.7262 C10.3306,33.3682 10.5086,33.8622 10.8106,34.1802 L10.8866,34.2562 L23.7106,21.4322 L23.7106,21.2802 L23.7106,21.1302 L10.8866,8.3042 L10.8106,8.3802 Z" id="Fill-29" fill="#5AC8F2" mask="url(#mask-6)"></path>
                </g>
                <g id="Group-33" transform="translate(22.000000, 16.438800)">
                    <mask id="mask-8" fill="white">
                        <use xlink:href="#path-7"></use>
                    </mask>
                    <g id="Clip-32"></g>
                    <path d="M1.712,5.128 L1.712,5.28 L1.712,5.432 L5.984,9.708 L6.082,9.652 L11.148,6.774 C12.594,5.954 12.594,4.606 11.148,3.786 L6.084,0.908 L5.986,0.854 L1.712,5.128 Z" id="Fill-31" fill="url(#linearGradient-9)" mask="url(#mask-8)"></path>
                </g>
                <g id="Group-36" transform="translate(10.000000, 20.438800)">
                    <mask id="mask-11" fill="white">
                        <use xlink:href="#path-10"></use>
                    </mask>
                    <g id="Clip-35"></g>
                    <path d="M0.81,14.18 C1.288,14.686 2.074,14.748 2.962,14.244 L18.082,5.652 L13.712,1.28 L0.81,14.18 Z" id="Fill-34" fill="url(#linearGradient-12)" mask="url(#mask-11)"></path>
                </g>
                <g id="Group-39" transform="translate(10.000000, 6.438800)">
                    <mask id="mask-14" fill="white">
                        <use xlink:href="#path-13"></use>
                    </mask>
                    <g id="Clip-38"></g>
                    <path d="M0.81,2.38 L13.712,15.28 L18.084,10.908 L2.962,2.316 C2.546,2.08 2.152,1.968 1.802,1.968 C1.404,1.968 1.064,2.112 0.81,2.38" id="Fill-37" fill="url(#linearGradient-15)" mask="url(#mask-14)"></path>
                </g>
            </g>
        </g>
    </g>
</svg>